<?xml version="1.0" standalone="no"?>
<!DOCTYPE svg PUBLIC "-//W3C//DTD SVG 1.1//EN" "http://www.w3.org/Graphics/SVG/1.1/DTD/svg11.dtd" >
<svg xmlns="http://www.w3.org/2000/svg" xmlns:xlink="http://www.w3.org/1999/xlink" version="1.1">
<metadata>
Created by FontForge 20190801 at Wed Nov  8 19:41:15 2023
 By root
Copyright (c) 2022 Family Type Pty Ltd. All rights reserved.
</metadata>
<defs>
<font id="FirstLadySansText-450" horiz-adv-x="1294" >
  <font-face 
    font-family="First Lady Sans Text 450"
    font-weight="400"
    font-stretch="normal"
    units-per-em="2048"
    panose-1="2 0 0 0 0 0 0 0 0 0"
    ascent="1638"
    descent="-410"
    x-height="1050"
    cap-height="1442"
    bbox="-304 -428 2582 1842"
    underline-thickness="48"
    underline-position="-369"
    unicode-range="U+0020-FB02"
  />
<missing-glyph horiz-adv-x="1722" 
 />
    <glyph glyph-name=".notdef" horiz-adv-x="1722" 
 />
    <glyph glyph-name="glyph1" horiz-adv-x="503" 
 />
    <glyph glyph-name="space" unicode=" " horiz-adv-x="503" 
 />
    <glyph glyph-name="A" unicode="A" horiz-adv-x="1487" 
d="M81 0l529 1442h267l530 -1442h-233l-128 365h-605l-128 -365h-232zM499 537h488l-188 533q-25 73 -51 170h-9q-26 -97 -51 -170z" />
    <glyph glyph-name="Aacute" unicode="&#xc1;" horiz-adv-x="1487" 
d="M663 1546l132 220h232l-199 -220h-165zM81 0l529 1442h267l530 -1442h-233l-128 365h-605l-128 -365h-232zM499 537h488l-188 533q-25 73 -51 170h-9q-26 -97 -51 -170z" />
    <glyph glyph-name="Abreve" unicode="&#x102;" horiz-adv-x="1487" 
d="M743 1541q-82 0 -145 28t-100 79.5t-43 122.5h138q9 -54 48.5 -82.5t101.5 -28.5q64 0 104 28.5t47 82.5h139q-7 -71 -44.5 -122.5t-100 -79.5t-145.5 -28zM81 0l529 1442h267l530 -1442h-233l-128 365h-605l-128 -365h-232zM499 537h488l-188 533q-25 73 -51 170h-9
q-26 -97 -51 -170z" />
    <glyph glyph-name="uni01CD" unicode="&#x1cd;" horiz-adv-x="1461" 
d="M731 1632l146 134h185l-230 -221h-203l-230 221h185zM81 0l516 1442h267l516 -1442h-232l-126 367h-582l-126 -367h-233zM487 531h487l-191 546l-49 162h-6l-50 -162z" />
    <glyph glyph-name="Acircumflex" unicode="&#xc2;" horiz-adv-x="1487" 
d="M850 1767l226 -221h-182l-149 135l-153 -135h-180l225 221h213zM81 0l529 1442h267l530 -1442h-233l-128 365h-605l-128 -365h-232zM499 537h488l-188 533q-25 73 -51 170h-9q-26 -97 -51 -170z" />
    <glyph glyph-name="Adieresis" unicode="&#xc4;" horiz-adv-x="1487" 
d="M564 1553q-30 0 -55 13.5t-39.5 37.5t-14.5 53t14.5 53t39.5 37.5t55 13.5q31 0 56 -13.5t39.5 -37t14.5 -53.5q0 -29 -14.5 -53t-39.5 -37.5t-56 -13.5zM923 1553q-30 0 -55 13.5t-39.5 37.5t-14.5 53t14.5 53t39.5 37.5t55 13.5q31 0 55.5 -13.5t39 -37t14.5 -53.5
q0 -29 -14.5 -53t-39.5 -37.5t-55 -13.5zM81 0l529 1442h267l530 -1442h-233l-128 365h-605l-128 -365h-232zM499 537h488l-188 533q-25 73 -51 170h-9q-26 -97 -51 -170z" />
    <glyph glyph-name="Agrave" unicode="&#xc0;" horiz-adv-x="1487" 
d="M827 1546h-168l-199 220h225zM81 0l529 1442h267l530 -1442h-233l-128 365h-605l-128 -365h-232zM499 537h488l-188 533q-25 73 -51 170h-9q-26 -97 -51 -170z" />
    <glyph glyph-name="Amacron" unicode="&#x100;" horiz-adv-x="1487" 
d="M430 1592v131h628v-131h-628zM81 0l529 1442h267l530 -1442h-233l-128 365h-605l-128 -365h-232zM499 537h488l-188 533q-25 73 -51 170h-9q-26 -97 -51 -170z" />
    <glyph glyph-name="Aogonek" unicode="&#x104;" horiz-adv-x="1487" 
d="M1381 -414q-84 -10 -155 9t-113 64t-42 111q0 72 43.5 130t115.5 101l-8 -1h-48l-128 365h-605l-128 -365h-232l529 1442h267l530 -1442q-86 -41 -129.5 -92t-43.5 -109q0 -54 39.5 -81.5t107.5 -24.5v-107zM499 537h488l-188 533q-15 42 -27.5 87.5t-22.5 85.5h-11
q-10 -40 -22.5 -85.5t-27.5 -87.5z" />
    <glyph glyph-name="Aring" unicode="&#xc5;" horiz-adv-x="1487" 
d="M744 1514q-48 0 -86.5 20.5t-60 57.5t-21.5 83t21.5 83t60 57.5t86.5 20.5t86 -20.5t60 -57.5t22 -83t-22 -83t-60 -57.5t-86 -20.5zM744 1598q34 0 55.5 21.5t21.5 55.5t-21.5 55.5t-55.5 21.5t-55.5 -21.5t-21.5 -55.5t21.5 -55.5t55.5 -21.5zM81 0l529 1442h267
l530 -1442h-233l-128 365h-605l-128 -365h-232zM499 537h488l-188 533q-25 73 -51 170h-9q-26 -97 -51 -170z" />
    <glyph glyph-name="Atilde" unicode="&#xc3;" horiz-adv-x="1487" 
d="M1066 1768q0 -111 -51.5 -168t-141.5 -57q-48 0 -80.5 17t-72.5 52q-31 28 -53.5 41.5t-51.5 13.5q-42 0 -65 -30t-24 -93h-107q1 112 53 169t144 57q50 0 84.5 -19t72.5 -53q32 -27 52.5 -40t47.5 -13q41 0 63.5 31t22.5 92h107zM81 0l529 1442h267l530 -1442h-233
l-128 365h-605l-128 -365h-232zM499 537h488l-188 533q-25 73 -51 170h-9q-26 -97 -51 -170z" />
    <glyph glyph-name="AE" unicode="&#xc6;" horiz-adv-x="2037" 
d="M76 0l807 1442h1043v-181h-709v-439h623v-174h-623v-467h709v-181h-916v365h-510l-202 -365h-222zM595 537h415v748z" />
    <glyph glyph-name="AEacute" unicode="&#x1fc;" horiz-adv-x="2037" 
d="M1226 1546l132 220h233l-200 -220h-165zM76 0l807 1442h1043v-181h-709v-439h623v-174h-623v-467h709v-181h-916v365h-510l-202 -365h-222zM595 537h415v748z" />
    <glyph glyph-name="B" unicode="B" horiz-adv-x="1357" 
d="M188 0v1442h575q128 0 222 -46t145 -128.5t51 -188.5q0 -76 -28.5 -139.5t-81.5 -108t-128 -65.5v-11q95 -19 163.5 -68.5t104.5 -122.5t36 -164q0 -116 -53.5 -207t-153 -142t-232.5 -51h-620zM748 170q87 0 152.5 30t101 86.5t35.5 135.5q0 73 -35.5 126t-100 81.5
t-151.5 28.5h-356v-488h354zM714 829q81 0 141.5 27t92 76.5t31.5 117.5q0 69 -33.5 119.5t-95 77t-142.5 26.5h-314v-444h320z" />
    <glyph glyph-name="C" unicode="C" horiz-adv-x="1534" 
d="M808 -23q-207 0 -362.5 94t-240 263t-84.5 387t84 387t238.5 263.5t361.5 94.5q165 0 296 -63t215 -179t110 -270h-216q-22 100 -77 173t-138 112.5t-187 39.5q-141 0 -246 -71.5t-162 -198.5t-57 -289q0 -168 56.5 -294t161.5 -194t246 -68q107 0 192 41.5t140 117
t72 172.5h217q-21 -152 -102.5 -269.5t-214.5 -183t-303 -65.5z" />
    <glyph glyph-name="Cacute" unicode="&#x106;" horiz-adv-x="1534" 
d="M724 1545l133 221h231l-199 -221h-165zM808 -23q-207 0 -362.5 94t-240 263t-84.5 387t84 387t238.5 263.5t361.5 94.5q165 0 296 -63t215 -179t110 -270h-216q-22 100 -77 173t-138 112.5t-187 39.5q-141 0 -246 -71.5t-162 -198.5t-57 -289q0 -168 56.5 -294
t161.5 -194t246 -68q107 0 192 41.5t140 117t72 172.5h217q-21 -152 -102.5 -269.5t-214.5 -183t-303 -65.5z" />
    <glyph glyph-name="Ccaron" unicode="&#x10c;" horiz-adv-x="1534" 
d="M805 1632l146 134h185l-230 -221h-203l-230 221h185zM808 -23q-207 0 -362.5 94t-240 263t-84.5 387t84 387t238.5 263.5t361.5 94.5q165 0 296 -63t215 -179t110 -270h-216q-22 100 -77 173t-138 112.5t-187 39.5q-141 0 -246 -71.5t-162 -198.5t-57 -289
q0 -168 56.5 -294t161.5 -194t246 -68q107 0 192 41.5t140 117t72 172.5h217q-21 -152 -102.5 -269.5t-214.5 -183t-303 -65.5z" />
    <glyph glyph-name="Ccedilla" unicode="&#xc7;" horiz-adv-x="1534" 
d="M783 -396q-25 0 -58.5 4t-64.5 12v96q28 -8 56.5 -11.5t51.5 -3.5q46 0 67.5 15.5t21.5 45.5t-21.5 44.5t-66.5 14.5q-14 0 -28 -0.5t-33 -0.5v62l60 147l101 -19l-41 -105q80 -3 120 -41.5t40 -99.5q0 -72 -50 -116t-155 -44zM808 -23q-207 0 -362.5 94t-240 263
t-84.5 387t84 387t238.5 263.5t361.5 94.5q165 0 296 -63t215 -179t110 -270h-216q-22 100 -77 173t-138 112.5t-187 39.5q-141 0 -246 -71.5t-162 -198.5t-57 -289q0 -168 56.5 -294t161.5 -194t246 -68q107 0 192 41.5t140 117t72 172.5h217q-21 -152 -102.5 -269.5
t-214.5 -183t-303 -65.5z" />
    <glyph glyph-name="Ccircumflex" unicode="&#x108;" horiz-adv-x="1534" 
d="M911 1767l226 -222h-182l-149 136l-152 -136h-180l225 222h212zM808 -23q-207 0 -362.5 94t-240 263t-84.5 387t84 387t238.5 263.5t361.5 94.5q165 0 296 -63t215 -179t110 -270h-216q-22 100 -77 173t-138 112.5t-187 39.5q-141 0 -246 -71.5t-162 -198.5t-57 -289
q0 -168 56.5 -294t161.5 -194t246 -68q107 0 192 41.5t140 117t72 172.5h217q-21 -152 -102.5 -269.5t-214.5 -183t-303 -65.5z" />
    <glyph glyph-name="Cdotaccent" unicode="&#x10a;" horiz-adv-x="1534" 
d="M808 -23q-207 0 -362.5 94t-240 263t-84.5 387t84 387t238.5 263.5t361.5 94.5q165 0 296 -63t215 -179t110 -270h-216q-22 100 -77 173t-138 112.5t-187 39.5q-141 0 -246 -71.5t-162 -198.5t-57 -289q0 -168 56.5 -294t161.5 -194t246 -68q107 0 192 41.5t140 117
t72 172.5h217q-21 -152 -102.5 -269.5t-214.5 -183t-303 -65.5zM805 1550q-37 0 -66.5 15.5t-46.5 42.5t-17 61t17 61.5t46.5 43t66.5 14.5q37 1 66 -14.5t45.5 -43t16.5 -61.5t-16.5 -61t-45.5 -42.5t-66 -15.5z" />
    <glyph glyph-name="D" unicode="D" horiz-adv-x="1497" 
d="M188 0v1442h455q231 0 396.5 -88t251 -251t85.5 -384q0 -220 -85.5 -382t-251 -249.5t-396.5 -87.5h-455zM642 179q162 0 278 64.5t177.5 186.5t61.5 289q0 169 -61.5 291t-178 186.5t-278.5 64.5h-240v-1082h241z" />
    <glyph glyph-name="Eth" unicode="&#xd0;" horiz-adv-x="1552" 
d="M697 1442q232 0 397 -88t251 -251t86 -384q0 -220 -86 -382t-251 -249.5t-397 -87.5h-454v645h-156v152h156v645h454zM696 179q162 0 278 64.5t178 186.5t62 289q0 169 -62 291t-178.5 186.5t-278.5 64.5h-240v-464h315v-152h-315v-466h241z" />
    <glyph glyph-name="Dcaron" unicode="&#x10e;" horiz-adv-x="1497" 
d="M736 1632l146 134h185l-229 -220h-204l-231 220h187zM188 0v1442h455q231 0 396.5 -88t251 -251t85.5 -384q0 -220 -85.5 -382t-251 -249.5t-396.5 -87.5h-455zM642 179q162 0 278 64.5t177.5 186.5t61.5 289q0 169 -61.5 291t-178 186.5t-278.5 64.5h-240v-1082h241z
" />
    <glyph glyph-name="Dcroat" unicode="&#x110;" horiz-adv-x="1552" 
d="M697 1442q232 0 397 -88t251 -251t86 -384q0 -220 -86 -382t-251 -249.5t-397 -87.5h-454v645h-156v152h156v645h454zM696 179q162 0 278 64.5t178 186.5t62 289q0 169 -62 291t-178.5 186.5t-278.5 64.5h-240v-464h315v-152h-315v-466h241z" />
    <glyph glyph-name="E" unicode="E" horiz-adv-x="1216" 
d="M188 0v1442h917v-181h-709v-439h623v-174h-623v-467h709v-181h-917z" />
    <glyph glyph-name="Eacute" unicode="&#xc9;" horiz-adv-x="1216" 
d="M566 1546l132 220h232l-200 -220h-164zM188 0v1442h917v-181h-709v-439h623v-174h-623v-467h709v-181h-917z" />
    <glyph glyph-name="Ebreve" unicode="&#x114;" horiz-adv-x="1216" 
d="M646 1541q-82 0 -145 28t-100.5 79.5t-43.5 122.5h139q9 -54 48.5 -82.5t101.5 -28.5q64 0 103.5 28.5t47.5 82.5h139q-7 -71 -44.5 -122.5t-100 -79.5t-145.5 -28zM188 0v1442h917v-181h-709v-439h623v-174h-623v-467h709v-181h-917z" />
    <glyph glyph-name="Ecaron" unicode="&#x11a;" horiz-adv-x="1216" 
d="M647 1632l145 134h185l-229 -220h-203l-231 220h186zM188 0v1442h917v-181h-709v-439h623v-174h-623v-467h709v-181h-917z" />
    <glyph glyph-name="Ecircumflex" unicode="&#xca;" horiz-adv-x="1216" 
d="M753 1767l225 -221h-181l-149 135l-153 -135h-180l225 221h213zM188 0v1442h917v-181h-709v-439h623v-174h-623v-467h709v-181h-917z" />
    <glyph glyph-name="Edieresis" unicode="&#xcb;" horiz-adv-x="1216" 
d="M467 1553q-30 0 -55 13.5t-39.5 37.5t-14.5 53t14.5 53t39.5 37.5t55 13.5q31 0 56 -13.5t39.5 -37t14.5 -53.5q0 -29 -14.5 -53t-40 -37.5t-55.5 -13.5zM826 1553q-30 0 -55 13.5t-40 37.5t-15 53t15 53t40 37.5t55 13.5q31 0 55.5 -13.5t38.5 -37t14 -53.5
q0 -29 -14 -53t-39 -37.5t-55 -13.5zM188 0v1442h917v-181h-709v-439h623v-174h-623v-467h709v-181h-917z" />
    <glyph glyph-name="Edotaccent" unicode="&#x116;" horiz-adv-x="1216" 
d="M188 0v1442h917v-181h-709v-439h623v-174h-623v-467h709v-181h-917zM646 1549q-37 0 -66.5 16t-46 44t-16.5 62q0 36 16.5 64t46 44t66.5 16t66.5 -16t46 -44t16.5 -64q0 -34 -16.5 -62t-46.5 -44t-66 -16z" />
    <glyph glyph-name="Egrave" unicode="&#xc8;" horiz-adv-x="1216" 
d="M730 1546h-168l-200 220h226zM188 0v1442h917v-181h-709v-439h623v-174h-623v-467h709v-181h-917z" />
    <glyph glyph-name="Emacron" unicode="&#x112;" horiz-adv-x="1216" 
d="M333 1592v131h627v-131h-627zM188 0v1442h917v-181h-709v-439h623v-174h-623v-467h709v-181h-917z" />
    <glyph glyph-name="Eogonek" unicode="&#x118;" horiz-adv-x="1216" 
d="M769 -230q0 82 56 146t144 108l136 -24q-86 -41 -129 -92t-43 -109q0 -54 39 -81.5t107 -24.5v-107q-84 -10 -155 9t-113 64t-42 111zM188 0v1442h917v-181h-709v-439h623v-174h-623v-467h709v-181h-917z" />
    <glyph glyph-name="F" unicode="F" horiz-adv-x="1195" 
d="M188 0v1442h912v-181h-704v-471h638v-174h-638v-616h-208z" />
    <glyph glyph-name="H" unicode="H" horiz-adv-x="1512" 
d="M188 0v1442h208v-616h719v616h208v-1442h-208v641h-719v-641h-208z" />
    <glyph glyph-name="Hbar" unicode="&#x126;" horiz-adv-x="1621" 
d="M248 0v1050h-162v152h162v240h208v-240h719v240h208v-240h151v-152h-151v-1050h-208v622h-719v-622h-208zM456 807h719v243h-719v-243z" />
    <glyph glyph-name="Hcircumflex" unicode="&#x124;" horiz-adv-x="1512" 
d="M857 1767l225 -221h-181l-149 135l-153 -135h-180l225 221h213zM188 0v1442h208v-616h719v616h208v-1442h-208v641h-719v-641h-208z" />
    <glyph glyph-name="I" unicode="I" horiz-adv-x="594" 
d="M188 0v1442h218v-1442h-218z" />
    <glyph glyph-name="IJ" unicode="&#x132;" horiz-adv-x="1435" 
d="M188 0v1442h218v-1442h-218zM845 -7q-46 0 -84 3t-80 10v184q81 -11 154 -11q71 0 119 18t72 58t24 105v1082h209v-1080q0 -128 -47.5 -210t-138.5 -120.5t-228 -38.5z" />
    <glyph glyph-name="Iacute" unicode="&#xcd;" horiz-adv-x="594" 
d="M216 1545l133 221h232l-200 -221h-165zM188 0v1442h218v-1442h-218z" />
    <glyph glyph-name="Ibreve" unicode="&#x12c;" horiz-adv-x="594" 
d="M297 1541q-82 0 -145 28t-100 80t-44 122h139q9 -54 48.5 -82.5t101.5 -28.5q63 0 103 28.5t49 82.5h138q-7 -71 -44.5 -122.5t-100.5 -79.5t-145 -28zM188 0v1442h218v-1442h-218z" />
    <glyph glyph-name="Icircumflex" unicode="&#xce;" horiz-adv-x="594" 
d="M403 1767l226 -222h-181l-150 136l-152 -136h-180l225 222h212zM188 0v1442h218v-1442h-218z" />
    <glyph glyph-name="Idieresis" unicode="&#xcf;" horiz-adv-x="594" 
d="M118 1553q-30 0 -55 13.5t-39.5 37t-14.5 51.5t14.5 51.5t39.5 37t55 13.5q31 0 56 -13.5t39 -37t14 -51.5t-14 -51.5t-39 -37t-56 -13.5zM476 1553q-30 0 -55 13.5t-39.5 37t-14.5 51.5t14.5 51.5t39.5 37t55 13.5q31 0 56 -13.5t39 -37t14 -51.5t-14 -51.5t-39 -37
t-56 -13.5zM188 0v1442h218v-1442h-218z" />
    <glyph glyph-name="Idotaccent" unicode="&#x130;" horiz-adv-x="594" 
d="M188 0v1442h218v-1442h-218zM297 1550q-37 0 -66 15.5t-46 42.5t-17 61t17 61.5t46 43t66 14.5q37 1 66 -14.5t46 -43t17 -61.5t-17 -61t-46 -42.5t-66 -15.5z" />
    <glyph glyph-name="Igrave" unicode="&#xcc;" horiz-adv-x="594" 
d="M380 1545h-168l-199 221h226zM188 0v1442h218v-1442h-218z" />
    <glyph glyph-name="Imacron" unicode="&#x12a;" horiz-adv-x="594" 
d="M-16 1592v131h627v-131h-627zM188 0v1442h218v-1442h-218z" />
    <glyph glyph-name="Iogonek" unicode="&#x12e;" horiz-adv-x="594" 
d="M70 -230q0 82 56 146t144 108l136 -24q-86 -42 -129 -93t-43 -108q0 -54 39 -81.5t108 -24.5v-106q-84 -11 -155.5 7.5t-113.5 64t-42 111.5zM188 0v1442h218v-1442h-218z" />
    <glyph glyph-name="Itilde" unicode="&#x128;" horiz-adv-x="594" 
d="M619 1768q0 -112 -51.5 -168.5t-140.5 -56.5q-49 0 -82 17.5t-72 51.5q-30 28 -52.5 41.5t-52.5 13.5q-42 0 -64.5 -30.5t-24.5 -92.5h-107q1 112 53.5 169t144.5 57q50 0 83.5 -18.5t73.5 -53.5q30 -27 51.5 -40t48.5 -13q41 0 62.5 30.5t22.5 92.5h107zM188 0v1442h218
v-1442h-218z" />
    <glyph glyph-name="glyph52" horiz-adv-x="840" 
d="M251 -7q-46 0 -84 3t-80 10v184q81 -11 154 -11q71 0 119 18t72 58t24 105v1082h209v-1080q0 -128 -47.5 -210t-138.5 -120.5t-228 -38.5z" />
    <glyph glyph-name="L" unicode="L" horiz-adv-x="1151" 
d="M188 0v1442h217v-1252h659v-190h-876z" />
    <glyph glyph-name="Lacute" unicode="&#x139;" horiz-adv-x="1151" 
d="M217 1546l132 220h232l-199 -220h-165zM188 0v1442h217v-1252h659v-190h-876z" />
    <glyph glyph-name="Lcaron" unicode="&#x13d;" horiz-adv-x="1151" 
d="M742 1442h227l-158 -461h-135zM188 0v1442h217v-1252h659v-190h-876z" />
    <glyph glyph-name="uni013B" unicode="&#x13b;" horiz-adv-x="1151" 
d="M526 -357q53 7 78 18t38 33q-6 -2 -14 -2q-32 0 -57.5 13.5t-40 37.5t-14.5 53q0 28 14 51t39.5 36t58.5 13q55 0 88 -34t33 -97q0 -75 -52.5 -129.5t-170.5 -63.5v71zM188 0v1442h217v-1252h659v-190h-876z" />
    <glyph glyph-name="Ldot" unicode="&#x13f;" horiz-adv-x="1151" 
d="M188 0v1442h217v-1252h659v-190h-876zM848 605q-39 0 -70.5 18t-49.5 49t-18 71q0 39 18 70t49.5 49t70.5 18t70 -18t49 -49t18 -70q0 -40 -18 -71t-49 -49t-70 -18z" />
    <glyph glyph-name="Lslash" unicode="&#x141;" horiz-adv-x="1155" 
d="M192 0v588l-75 -29v144l75 29v710h217v-626l302 118v-144l-302 -118v-482h659v-190h-876z" />
    <glyph glyph-name="M" unicode="M" horiz-adv-x="1880" 
d="M188 0v1442h268l420 -970q31 -73 61 -161h10q29 88 60 161l418 970h266v-1442h-208v1101h-8q-32 -97 -70 -187l-394 -914h-141l-395 915q-38 90 -70 189h-9v-1104h-208z" />
    <glyph glyph-name="N" unicode="N" horiz-adv-x="1518" 
d="M188 0v1442h216l652 -989q17 -26 32 -53.5t25 -48.5h9v1091h208v-1442h-213l-654 991q-17 26 -32 53t-26 50h-9v-1094h-208z" />
    <glyph glyph-name="Nacute" unicode="&#x143;" horiz-adv-x="1518" 
d="M679 1546l133 220h232l-200 -220h-165zM188 0v1442h216l652 -989q17 -26 32 -53.5t25 -48.5h9v1091h208v-1442h-213l-654 991q-17 26 -32 53t-26 50h-9v-1094h-208z" />
    <glyph glyph-name="Ncaron" unicode="&#x147;" horiz-adv-x="1518" 
d="M761 1632l145 134h185l-229 -220h-203l-231 220h186zM188 0v1442h216l652 -989q17 -26 32 -53.5t25 -48.5h9v1091h208v-1442h-213l-654 991q-17 26 -32 53t-26 50h-9v-1094h-208z" />
    <glyph glyph-name="uni0145" unicode="&#x145;" horiz-adv-x="1518" 
d="M654 -357q53 7 78 18t38 33q-6 -2 -14 -2q-32 0 -57.5 13.5t-40.5 37.5t-15 53q0 28 14 51t40 36t59 13q55 0 88 -34t33 -97q0 -75 -52.5 -129.5t-170.5 -63.5v71zM188 0v1442h216l652 -989q17 -26 32 -53.5t25 -48.5h9v1091h208v-1442h-213l-654 991q-17 26 -32 53
t-26 50h-9v-1094h-208z" />
    <glyph glyph-name="Eng" unicode="&#x14a;" horiz-adv-x="1518" 
d="M952 -389v156h70q47 0 73 31.5t26 92.5v108l-658 992q-17 26 -31.5 53t-25.5 50h-10v-1094h-208v1442h216l652 -989q17 -26 31.5 -53.5t25.5 -48.5h9v1091h208v-1546q0 -94 -35 -158t-102 -95.5t-161 -31.5h-80z" />
    <glyph glyph-name="Ntilde" unicode="&#xd1;" horiz-adv-x="1518" 
d="M1083 1768q0 -111 -52 -168t-141 -57q-49 0 -81 17t-72 52q-31 28 -53.5 41.5t-51.5 13.5q-42 0 -65 -30t-24 -93h-107q0 112 52.5 169t144.5 57q50 0 84 -19t73 -53q32 -27 52.5 -40t47.5 -13q41 0 63 31t23 92h107zM188 0v1442h216l652 -989q17 -26 32 -53.5t25 -48.5
h9v1091h208v-1442h-213l-654 991q-17 26 -32 53t-26 50h-9v-1094h-208z" />
    <glyph glyph-name="O" unicode="O" horiz-adv-x="1641" 
d="M821 -23q-205 0 -364.5 91t-248.5 259t-89 391q0 222 89 391.5t248.5 262.5t364.5 93t364 -92.5t248 -262t89 -392.5q0 -224 -89 -392t-247.5 -258.5t-364.5 -90.5zM819 172q143 0 252 66.5t168.5 190t59.5 289.5q0 168 -59 292.5t-168 192t-253 67.5q-142 0 -251 -67.5
t-168.5 -192t-59.5 -292.5t60.5 -291t169 -189t249.5 -66z" />
    <glyph glyph-name="Oacute" unicode="&#xd3;" horiz-adv-x="1641" 
d="M740 1546l132 220h232l-199 -220h-165zM821 -23q-205 0 -364.5 91t-248.5 259t-89 391q0 222 89 391.5t248.5 262.5t364.5 93t364 -92.5t248 -262t89 -392.5q0 -224 -89 -392t-247.5 -258.5t-364.5 -90.5zM819 172q143 0 252 66.5t168.5 190t59.5 289.5q0 168 -59 292.5
t-168 192t-253 67.5q-142 0 -251 -67.5t-168.5 -192t-59.5 -292.5t60.5 -291t169 -189t249.5 -66z" />
    <glyph glyph-name="Obreve" unicode="&#x14e;" horiz-adv-x="1641" 
d="M820 1541q-82 0 -144.5 28t-100 79.5t-43.5 122.5h139q9 -54 48 -82.5t101 -28.5q64 0 104 28.5t48 82.5h139q-7 -71 -44.5 -122.5t-100.5 -79.5t-146 -28zM821 -23q-205 0 -364.5 91t-248.5 259t-89 391q0 222 89 391.5t248.5 262.5t364.5 93t364 -92.5t248 -262
t89 -392.5q0 -224 -89 -392t-247.5 -258.5t-364.5 -90.5zM819 172q143 0 252 66.5t168.5 190t59.5 289.5q0 168 -59 292.5t-168 192t-253 67.5q-142 0 -251 -67.5t-168.5 -192t-59.5 -292.5t60.5 -291t169 -189t249.5 -66z" />
    <glyph glyph-name="Ocircumflex" unicode="&#xd4;" horiz-adv-x="1641" 
d="M928 1767l225 -221h-181l-150 135l-152 -135h-180l225 221h213zM821 -23q-205 0 -364.5 91t-248.5 259t-89 391q0 222 89 391.5t248.5 262.5t364.5 93t364 -92.5t248 -262t89 -392.5q0 -224 -89 -392t-247.5 -258.5t-364.5 -90.5zM819 172q143 0 252 66.5t168.5 190
t59.5 289.5q0 168 -59 292.5t-168 192t-253 67.5q-142 0 -251 -67.5t-168.5 -192t-59.5 -292.5t60.5 -291t169 -189t249.5 -66z" />
    <glyph glyph-name="Odieresis" unicode="&#xd6;" horiz-adv-x="1641" 
d="M642 1553q-30 0 -55 13.5t-39.5 37.5t-14.5 53t14.5 53t39.5 37.5t55 13.5q31 0 55.5 -13.5t39 -37t14.5 -53.5q0 -29 -14.5 -53t-39.5 -37.5t-55 -13.5zM1001 1553q-30 0 -55.5 13.5t-40 37.5t-14.5 53t14.5 53t40 37.5t55.5 13.5q31 0 55.5 -13.5t38.5 -37t14 -53.5
q0 -29 -14 -53t-39 -37.5t-55 -13.5zM821 -23q-205 0 -364.5 91t-248.5 259t-89 391q0 222 89 391.5t248.5 262.5t364.5 93t364 -92.5t248 -262t89 -392.5q0 -224 -89 -392t-247.5 -258.5t-364.5 -90.5zM819 172q143 0 252 66.5t168.5 190t59.5 289.5q0 168 -59 292.5
t-168 192t-253 67.5q-142 0 -251 -67.5t-168.5 -192t-59.5 -292.5t60.5 -291t169 -189t249.5 -66z" />
    <glyph glyph-name="Ograve" unicode="&#xd2;" horiz-adv-x="1641" 
d="M904 1546h-168l-199 220h226zM821 -23q-205 0 -364.5 91t-248.5 259t-89 391q0 222 89 391.5t248.5 262.5t364.5 93t364 -92.5t248 -262t89 -392.5q0 -224 -89 -392t-247.5 -258.5t-364.5 -90.5zM819 172q143 0 252 66.5t168.5 190t59.5 289.5q0 168 -59 292.5t-168 192
t-253 67.5q-142 0 -251 -67.5t-168.5 -192t-59.5 -292.5t60.5 -291t169 -189t249.5 -66z" />
    <glyph glyph-name="Ohungarumlaut" unicode="&#x150;" horiz-adv-x="1641" 
d="M605 1546l141 218h199l-199 -218h-141zM912 1546l140 218h199l-199 -218h-140zM821 -23q-205 0 -364.5 91t-248.5 259t-89 391q0 222 89 391.5t248.5 262.5t364.5 93t364 -92.5t248 -262t89 -392.5q0 -224 -89 -392t-247.5 -258.5t-364.5 -90.5zM819 172q143 0 252 66.5
t168.5 190t59.5 289.5q0 168 -59 292.5t-168 192t-253 67.5q-142 0 -251 -67.5t-168.5 -192t-59.5 -292.5t60.5 -291t169 -189t249.5 -66z" />
    <glyph glyph-name="Omacron" unicode="&#x14c;" horiz-adv-x="1641" 
d="M508 1592v131h627v-131h-627zM821 -23q-205 0 -364.5 91t-248.5 259t-89 391q0 222 89 391.5t248.5 262.5t364.5 93t364 -92.5t248 -262t89 -392.5q0 -224 -89 -392t-247.5 -258.5t-364.5 -90.5zM819 172q143 0 252 66.5t168.5 190t59.5 289.5q0 168 -59 292.5t-168 192
t-253 67.5q-142 0 -251 -67.5t-168.5 -192t-59.5 -292.5t60.5 -291t169 -189t249.5 -66z" />
    <glyph glyph-name="Oslash" unicode="&#xd8;" horiz-adv-x="1641" 
d="M273 -33l-103 84l1196 1412l102 -83zM821 -23q-205 0 -364.5 91t-248.5 259t-89 391q0 222 89 391.5t248.5 262.5t364.5 93t364 -92.5t248 -262t89 -392.5q0 -224 -89 -392t-247.5 -258.5t-364.5 -90.5zM819 172q143 0 252 66.5t168.5 190t59.5 289.5q0 168 -59 292.5
t-168 192t-253 67.5q-142 0 -251 -67.5t-168.5 -192t-59.5 -292.5t60.5 -291t169 -189t249.5 -66z" />
    <glyph glyph-name="Oslashacute" unicode="&#x1fe;" horiz-adv-x="1641" 
d="M740 1546l132 220h232l-199 -220h-165zM821 -23q-205 0 -364.5 91t-248.5 259t-89 391q0 222 89 391.5t248.5 262.5t364.5 93t364 -92.5t248 -262t89 -392.5q0 -224 -89 -392t-247.5 -258.5t-364.5 -90.5zM819 172q143 0 252 66.5t168.5 190t59.5 289.5q0 168 -59 292.5
t-168 192t-253 67.5q-142 0 -251 -67.5t-168.5 -192t-59.5 -292.5t60.5 -291t169 -189t249.5 -66zM273 -33l-103 84l1196 1412l102 -83z" />
    <glyph glyph-name="Otilde" unicode="&#xd5;" horiz-adv-x="1641" 
d="M1144 1768q0 -111 -52 -168t-142 -57q-48 0 -80 17t-73 52q-30 28 -52.5 41.5t-51.5 13.5q-42 0 -65 -30t-24 -93h-108q1 112 53.5 169t144.5 57q50 0 84 -19t73 -53q31 -27 51.5 -40t47.5 -13q41 0 63.5 31t23.5 92h107zM821 -23q-205 0 -364.5 91t-248.5 259t-89 391
q0 222 89 391.5t248.5 262.5t364.5 93t364 -92.5t248 -262t89 -392.5q0 -224 -89 -392t-247.5 -258.5t-364.5 -90.5zM819 172q143 0 252 66.5t168.5 190t59.5 289.5q0 168 -59 292.5t-168 192t-253 67.5q-142 0 -251 -67.5t-168.5 -192t-59.5 -292.5t60.5 -291t169 -189
t249.5 -66z" />
    <glyph glyph-name="OE" unicode="&#x152;" horiz-adv-x="1938" 
d="M832 0q-217 0 -378 92t-247 255t-86 370q0 208 86 372.5t248 258.5t377 94h995v-190h-684v-427h597v-181h-597v-454h684v-190h-995zM837 190h89v1062h-89q-153 0 -268 -68.5t-177 -189.5t-62 -277q0 -155 61 -274.5t176 -186t270 -66.5z" />
    <glyph glyph-name="P" unicode="P" horiz-adv-x="1328" 
d="M188 0v1442h546q158 0 267.5 -53t165 -149t55.5 -223q0 -129 -55 -226.5t-165.5 -152t-267.5 -54.5h-338v-584h-208zM717 765q96 0 162 30.5t100.5 86.5t34.5 135q0 76 -34 131t-101 84t-162 29h-321v-496h321z" />
    <glyph glyph-name="Thorn" unicode="&#xde;" horiz-adv-x="1345" 
d="M188 0v1441l208 1v-288h360q157 0 266 -53.5t164 -150t55 -224.5q0 -129 -54.5 -227.5t-164.5 -153.5t-266 -55h-360v-290h-208zM739 471q95 0 160.5 31t100 88t34.5 136q0 77 -34 132.5t-100.5 85t-160.5 29.5h-343v-502h343z" />
    <glyph glyph-name="S" unicode="S" horiz-adv-x="1313" 
d="M664 -25q-171 0 -292.5 55.5t-188.5 159t-76 247.5h223q5 -79 43 -140t111.5 -96.5t181.5 -35.5q94 0 162 26t105 76.5t37 122.5q0 73 -35.5 120t-105.5 75t-185 48q-167 28 -273 73.5t-161 124t-55 202.5q0 133 58.5 230t171 150t270.5 53q159 0 273.5 -53t177.5 -149.5
t73 -226.5h-222q-5 70 -42.5 124.5t-105 84.5t-160.5 30q-87 0 -150 -27t-95.5 -77.5t-32.5 -117.5q0 -63 30.5 -103t95 -65.5t177.5 -47.5q177 -32 288.5 -78.5t171 -130t59.5 -219.5q0 -140 -64 -237.5t-183 -147.5t-282 -50z" />
    <glyph glyph-name="Sacute" unicode="&#x15a;" horiz-adv-x="1312" 
d="M574 1546l132 220h232l-199 -220h-165zM663 -25q-170 0 -292 55.5t-189 159t-75 247.5h222q6 -79 43.5 -140t111 -96.5t181.5 -35.5q95 0 162.5 26t104.5 76.5t37 122.5q0 73 -35.5 120t-105 75t-184.5 48q-168 28 -274 73.5t-161 124t-55 202.5q0 133 59 230t171.5 150
t269.5 53q159 0 273.5 -53t178 -149.5t73.5 -226.5h-223q-5 70 -42 124.5t-104.5 84.5t-160.5 30q-88 0 -150.5 -27t-95.5 -77.5t-33 -117.5q0 -63 30.5 -103t95.5 -65.5t178 -47.5q176 -32 287.5 -78.5t171.5 -130t60 -219.5q0 -140 -64 -237.5t-183 -147.5t-283 -50z" />
    <glyph glyph-name="Scaron" unicode="&#x160;" horiz-adv-x="1313" 
d="M656 1632l146 134h185l-229 -220h-204l-231 220h186zM664 -25q-171 0 -292.5 55.5t-188.5 159t-76 247.5h223q5 -79 43 -140t111.5 -96.5t181.5 -35.5q94 0 162 26t105 76.5t37 122.5q0 73 -35.5 120t-105.5 75t-185 48q-167 28 -273 73.5t-161 124t-55 202.5
q0 133 58.5 230t171 150t270.5 53q159 0 273.5 -53t177.5 -149.5t73 -226.5h-222q-5 70 -42.5 124.5t-105 84.5t-160.5 30q-87 0 -150 -27t-95.5 -77.5t-32.5 -117.5q0 -63 30.5 -103t95 -65.5t177.5 -47.5q177 -32 288.5 -78.5t171 -130t59.5 -219.5q0 -140 -64 -237.5
t-183 -147.5t-282 -50z" />
    <glyph glyph-name="Scedilla" unicode="&#x15e;" horiz-adv-x="1313" 
d="M641 -396q-27 0 -60.5 4t-62.5 12v96q27 -7 55.5 -11t51.5 -4q45 0 67 16t22 45q0 30 -21.5 44.5t-66.5 14.5h-27.5t-33.5 -1v62l60 147l102 -20l-43 -104q80 -4 120.5 -42.5t40.5 -98.5q0 -70 -50.5 -115t-153.5 -45zM664 -25q-171 0 -292.5 55.5t-188.5 159t-76 247.5
h223q5 -79 43 -140t111.5 -96.5t181.5 -35.5q94 0 162 26t105 76.5t37 122.5q0 73 -35.5 120t-105.5 75t-185 48q-167 28 -273 73.5t-161 124t-55 202.5q0 133 58.5 230t171 150t270.5 53q159 0 273.5 -53t177.5 -149.5t73 -226.5h-222q-5 70 -42.5 124.5t-105 84.5
t-160.5 30q-87 0 -150 -27t-95.5 -77.5t-32.5 -117.5q0 -63 30.5 -103t95 -65.5t177.5 -47.5q177 -32 288.5 -78.5t171 -130t59.5 -219.5q0 -140 -64 -237.5t-183 -147.5t-282 -50z" />
    <glyph glyph-name="Scircumflex" unicode="&#x15c;" horiz-adv-x="1313" 
d="M762 1767l226 -221h-182l-149 135l-153 -135h-180l225 221h213zM664 -25q-171 0 -292.5 55.5t-188.5 159t-76 247.5h223q5 -79 43 -140t111.5 -96.5t181.5 -35.5q94 0 162 26t105 76.5t37 122.5q0 73 -35.5 120t-105.5 75t-185 48q-167 28 -273 73.5t-161 124t-55 202.5
q0 133 58.5 230t171 150t270.5 53q159 0 273.5 -53t177.5 -149.5t73 -226.5h-222q-5 70 -42.5 124.5t-105 84.5t-160.5 30q-87 0 -150 -27t-95.5 -77.5t-32.5 -117.5q0 -63 30.5 -103t95 -65.5t177.5 -47.5q177 -32 288.5 -78.5t171 -130t59.5 -219.5q0 -140 -64 -237.5
t-183 -147.5t-282 -50z" />
    <glyph glyph-name="uni0218" unicode="&#x218;" horiz-adv-x="1313" 
d="M559 -357q53 7 78 18t39 33q-6 -2 -15 -2q-32 0 -57.5 13.5t-40 37.5t-14.5 53q0 28 14 51t39.5 36t58.5 13q55 0 88 -34t33 -97q0 -75 -52.5 -129.5t-170.5 -63.5v71zM664 -25q-171 0 -292.5 55.5t-188.5 159t-76 247.5h223q5 -79 43 -140t111.5 -96.5t181.5 -35.5
q94 0 162 26t105 76.5t37 122.5q0 73 -35.5 120t-105.5 75t-185 48q-167 28 -273 73.5t-161 124t-55 202.5q0 133 58.5 230t171 150t270.5 53q159 0 273.5 -53t177.5 -149.5t73 -226.5h-222q-5 70 -42.5 124.5t-105 84.5t-160.5 30q-87 0 -150 -27t-95.5 -77.5t-32.5 -117.5
q0 -63 30.5 -103t95 -65.5t177.5 -47.5q177 -32 288.5 -78.5t171 -130t59.5 -219.5q0 -140 -64 -237.5t-183 -147.5t-282 -50z" />
    <glyph glyph-name="uni1E9E" unicode="&#x1e9e;" horiz-adv-x="1448" 
d="M827 -20q-47 0 -99.5 4.5t-119.5 15.5v188q58 -12 107 -17t87 -5q108 0 182 31.5t112 91t37 144.5q0 87 -46 142.5t-135.5 87t-232.5 50.5v102l297 419q-46 21 -110 33t-137 12q-198 0 -297.5 -106t-99.5 -308v-865h-208v887q0 183 69 312.5t204.5 198t333.5 68.5
q122 0 239.5 -28.5t233.5 -92.5v-89l-291 -412q121 -31 207 -84t135 -136t49 -200q0 -131 -62.5 -231.5t-178.5 -156.5t-276 -56z" />
    <glyph glyph-name="T" unicode="T" horiz-adv-x="1269" 
d="M530 0v1257h-443v185h1095v-185h-444v-1257h-208z" />
    <glyph glyph-name="Tbar" unicode="&#x166;" horiz-adv-x="1269" 
d="M530 0v606h-262v152h262v499h-443v185h1095v-185h-444v-499h262v-152h-262v-606h-208z" />
    <glyph glyph-name="Tcaron" unicode="&#x164;" horiz-adv-x="1269" 
d="M634 1632l146 134h185l-229 -220h-203l-231 220h186zM530 0v1257h-443v185h1095v-185h-444v-1257h-208z" />
    <glyph glyph-name="uni0162" unicode="&#x162;" horiz-adv-x="1269" 
d="M609 -396q-26 0 -59.5 4t-63.5 12v96q27 -7 56 -11t52 -4q45 0 66.5 16t21.5 45q0 30 -21 44.5t-67 14.5h-27t-34 -1v62l61 147l101 -20l-42 -104q80 -4 120 -42.5t40 -98.5q0 -70 -50 -115t-154 -45zM530 0v1257h-443v185h1095v-185h-444v-1257h-208z" />
    <glyph glyph-name="uni021A" unicode="&#x21a;" horiz-adv-x="1269" 
d="M528 -357q52 7 77.5 18t38.5 33q-6 -2 -15 -2q-31 0 -57 13.5t-40.5 37.5t-14.5 53q0 28 14 51t40 36t58 13q56 0 88.5 -34t32.5 -97q0 -75 -52 -129.5t-170 -63.5v71zM530 0v1257h-443v185h1095v-185h-444v-1257h-208z" />
    <glyph glyph-name="U" unicode="U" horiz-adv-x="1446" 
d="M724 -24q-181 0 -305.5 64t-187.5 184t-63 286v932h217v-920q0 -178 85.5 -267t253.5 -89q167 0 252.5 89t85.5 267v920h217v-932q0 -167 -62.5 -286.5t-187.5 -183.5t-305 -64z" />
    <glyph glyph-name="Uacute" unicode="&#xda;" horiz-adv-x="1446" 
d="M643 1546l132 220h232l-199 -220h-165zM724 -24q-181 0 -305.5 64t-187.5 184t-63 286v932h217v-920q0 -178 85.5 -267t253.5 -89q167 0 252.5 89t85.5 267v920h217v-932q0 -167 -62.5 -286.5t-187.5 -183.5t-305 -64z" />
    <glyph glyph-name="Ubreve" unicode="&#x16c;" horiz-adv-x="1446" 
d="M723 1541q-82 0 -145 28t-100 79.5t-43 122.5h138q9 -54 48.5 -82.5t101.5 -28.5q64 0 103.5 28.5t47.5 82.5h139q-7 -71 -44.5 -122.5t-100 -79.5t-145.5 -28zM724 -24q-181 0 -305.5 64t-187.5 184t-63 286v932h217v-920q0 -178 85.5 -267t253.5 -89q167 0 252.5 89
t85.5 267v920h217v-932q0 -167 -62.5 -286.5t-187.5 -183.5t-305 -64z" />
    <glyph glyph-name="Ucircumflex" unicode="&#xdb;" horiz-adv-x="1446" 
d="M830 1767l225 -221h-181l-149 135l-153 -135h-180l225 221h213zM724 -24q-181 0 -305.5 64t-187.5 184t-63 286v932h217v-920q0 -178 85.5 -267t253.5 -89q167 0 252.5 89t85.5 267v920h217v-932q0 -167 -62.5 -286.5t-187.5 -183.5t-305 -64z" />
    <glyph glyph-name="Udieresis" unicode="&#xdc;" horiz-adv-x="1446" 
d="M544 1553q-30 0 -55 13.5t-39.5 37.5t-14.5 53t14.5 53t39.5 37.5t55 13.5q31 0 56 -13.5t39.5 -37t14.5 -53.5q0 -29 -14.5 -53t-40 -37.5t-55.5 -13.5zM903 1553q-30 0 -55 13.5t-39.5 37.5t-14.5 53t14.5 53t39.5 37.5t55 13.5q31 0 55.5 -13.5t39 -37t14.5 -53.5
q0 -29 -14.5 -53t-39.5 -37.5t-55 -13.5zM724 -24q-181 0 -305.5 64t-187.5 184t-63 286v932h217v-920q0 -178 85.5 -267t253.5 -89q167 0 252.5 89t85.5 267v920h217v-932q0 -167 -62.5 -286.5t-187.5 -183.5t-305 -64z" />
    <glyph glyph-name="Ugrave" unicode="&#xd9;" horiz-adv-x="1446" 
d="M807 1546h-168l-200 220h226zM724 -24q-181 0 -305.5 64t-187.5 184t-63 286v932h217v-920q0 -178 85.5 -267t253.5 -89q167 0 252.5 89t85.5 267v920h217v-932q0 -167 -62.5 -286.5t-187.5 -183.5t-305 -64z" />
    <glyph glyph-name="Uhungarumlaut" unicode="&#x170;" horiz-adv-x="1446" 
d="M507 1546l142 218h199l-200 -218h-141zM814 1546l140 218h200l-200 -218h-140zM724 -24q-181 0 -305.5 64t-187.5 184t-63 286v932h217v-920q0 -178 85.5 -267t253.5 -89q167 0 252.5 89t85.5 267v920h217v-932q0 -167 -62.5 -286.5t-187.5 -183.5t-305 -64z" />
    <glyph glyph-name="Umacron" unicode="&#x16a;" horiz-adv-x="1446" 
d="M410 1592v131h627v-131h-627zM724 -24q-181 0 -305.5 64t-187.5 184t-63 286v932h217v-920q0 -178 85.5 -267t253.5 -89q167 0 252.5 89t85.5 267v920h217v-932q0 -167 -62.5 -286.5t-187.5 -183.5t-305 -64z" />
    <glyph glyph-name="Uogonek" unicode="&#x172;" horiz-adv-x="1446" 
d="M586 -230q0 82 56 146t144 108l136 -24q-86 -41 -129 -92t-43 -109q0 -54 39 -81.5t107 -24.5v-107q-84 -10 -155 9t-113 64t-42 111zM724 -24q-181 0 -305.5 64t-187.5 184t-63 286v932h217v-920q0 -178 85.5 -267t253.5 -89q167 0 252.5 89t85.5 267v920h217v-932
q0 -167 -62.5 -286.5t-187.5 -183.5t-305 -64z" />
    <glyph glyph-name="Uring" unicode="&#x16e;" horiz-adv-x="1446" 
d="M724 1514q-48 0 -86.5 20.5t-60 57.5t-21.5 83t21.5 83t60 57.5t86.5 20.5t86 -20.5t59.5 -57.5t21.5 -83t-21.5 -83t-59.5 -57.5t-86 -20.5zM724 1598q34 0 55.5 21.5t21.5 55.5t-21.5 55.5t-55.5 21.5t-55.5 -21.5t-21.5 -55.5t21.5 -55.5t55.5 -21.5zM724 -24
q-181 0 -305.5 64t-187.5 184t-63 286v932h217v-920q0 -178 85.5 -267t253.5 -89q167 0 252.5 89t85.5 267v920h217v-932q0 -167 -62.5 -286.5t-187.5 -183.5t-305 -64z" />
    <glyph glyph-name="Utilde" unicode="&#x168;" horiz-adv-x="1446" 
d="M1046 1768q0 -111 -52 -168t-141 -57q-48 0 -80.5 17t-72.5 52q-31 28 -53.5 41.5t-51.5 13.5q-42 0 -65 -30t-24 -93h-107q1 112 53 169t144 57q50 0 84 -19t73 -53q32 -27 52.5 -40t47.5 -13q41 0 63 31t23 92h107zM724 -24q-181 0 -305.5 64t-187.5 184t-63 286v932
h217v-920q0 -178 85.5 -267t253.5 -89q167 0 252.5 89t85.5 267v920h217v-932q0 -167 -62.5 -286.5t-187.5 -183.5t-305 -64z" />
    <glyph glyph-name="V" unicode="V" horiz-adv-x="1487" 
d="M610 0l-529 1442h232l376 -1070q26 -74 50 -170h10q25 96 51 170l374 1070h233l-530 -1442h-267z" />
    <glyph glyph-name="W" unicode="W" horiz-adv-x="2014" 
d="M484 0l-399 1442h207l274 -1004q10 -39 18 -78t13 -70h9q5 31 14 70.5t20 77.5l282 1004h170l282 -1004q11 -40 19.5 -78.5t13.5 -68.5h11q4 30 12 69.5t18 77.5l274 1004h206l-398 -1442h-207l-279 1002q-19 69 -31 139h-10q-5 -29 -13 -65.5t-19 -73.5l-281 -1002h-206
z" />
    <glyph glyph-name="Wacute" unicode="&#x1e82;" horiz-adv-x="2014" 
d="M927 1546l132 220h232l-200 -220h-164zM484 0l-399 1442h207l274 -1004q10 -39 18 -78t13 -70h9q5 31 14 70.5t20 77.5l282 1004h170l282 -1004q11 -40 19.5 -78.5t13.5 -68.5h11q4 30 12 69.5t18 77.5l274 1004h206l-398 -1442h-207l-279 1002q-19 69 -31 139h-10
q-5 -29 -13 -65.5t-19 -73.5l-281 -1002h-206z" />
    <glyph glyph-name="Wcircumflex" unicode="&#x174;" horiz-adv-x="2014" 
d="M1114 1767l225 -221h-181l-149 135l-153 -135h-180l225 221h213zM484 0l-399 1442h207l274 -1004q10 -39 18 -78t13 -70h9q5 31 14 70.5t20 77.5l282 1004h170l282 -1004q11 -40 19.5 -78.5t13.5 -68.5h11q4 30 12 69.5t18 77.5l274 1004h206l-398 -1442h-207l-279 1002
q-19 69 -31 139h-10q-5 -29 -13 -65.5t-19 -73.5l-281 -1002h-206z" />
    <glyph glyph-name="Wdieresis" unicode="&#x1e84;" horiz-adv-x="2014" 
d="M828 1553q-30 0 -55 13.5t-39.5 37.5t-14.5 53t14.5 53t39.5 37.5t55 13.5q31 0 56 -13.5t39.5 -37t14.5 -53.5q0 -29 -14.5 -53t-40 -37.5t-55.5 -13.5zM1187 1553q-30 0 -55 13.5t-40 37.5t-15 53t15 53t40 37.5t55 13.5q31 0 55.5 -13.5t38.5 -37t14 -53.5
q0 -29 -14 -53t-39 -37.5t-55 -13.5zM484 0l-399 1442h207l274 -1004q10 -39 18 -78t13 -70h9q5 31 14 70.5t20 77.5l282 1004h170l282 -1004q11 -40 19.5 -78.5t13.5 -68.5h11q4 30 12 69.5t18 77.5l274 1004h206l-398 -1442h-207l-279 1002q-19 69 -31 139h-10
q-5 -29 -13 -65.5t-19 -73.5l-281 -1002h-206z" />
    <glyph glyph-name="Wgrave" unicode="&#x1e80;" horiz-adv-x="2014" 
d="M1091 1546h-168l-200 220h226zM484 0l-399 1442h207l274 -1004q10 -39 18 -78t13 -70h9q5 31 14 70.5t20 77.5l282 1004h170l282 -1004q11 -40 19.5 -78.5t13.5 -68.5h11q4 30 12 69.5t18 77.5l274 1004h206l-398 -1442h-207l-279 1002q-19 69 -31 139h-10
q-5 -29 -13 -65.5t-19 -73.5l-281 -1002h-206z" />
    <glyph glyph-name="X" unicode="X" horiz-adv-x="1459" 
d="M87 0l499 723l-504 719h247l361 -522q16 -25 34 -54h9q17 29 34 54l356 522h238l-492 -719l511 -723h-247l-368 530q-9 13 -18 26.5t-16 24.5h-9q-6 -11 -15 -24.5t-18 -26.5l-365 -530h-237z" />
    <glyph glyph-name="uni1E8A" unicode="&#x1e8a;" horiz-adv-x="1459" 
d="M87 0l499 723l-504 719h247l361 -522q16 -25 34 -54h9q17 29 34 54l356 522h238l-492 -719l511 -723h-247l-368 530q-9 13 -18 26.5t-16 24.5h-9q-6 -11 -15 -24.5t-18 -26.5l-365 -530h-237zM728 1549q-36 0 -65.5 16t-46.5 44t-17 62q0 36 17 64t46.5 44t65.5 16
q38 0 67.5 -16t45.5 -44t16 -64q0 -34 -16 -62t-46 -44t-67 -16z" />
    <glyph glyph-name="Y" unicode="Y" horiz-adv-x="1435" 
d="M615 0v565l-539 877h228l374 -620q10 -18 19.5 -36.5t16.5 -32.5h10q16 36 34 68l374 621h227l-536 -875v-567h-208z" />
    <glyph glyph-name="Yacute" unicode="&#xdd;" horiz-adv-x="1435" 
d="M638 1546l132 220h232l-199 -220h-165zM615 0v565l-539 877h228l374 -620q10 -18 19.5 -36.5t16.5 -32.5h10q16 36 34 68l374 621h227l-536 -875v-567h-208z" />
    <glyph glyph-name="Ycircumflex" unicode="&#x176;" horiz-adv-x="1435" 
d="M826 1767l225 -221h-181l-150 135l-152 -135h-180l225 221h213zM615 0v565l-539 877h228l374 -620q10 -18 19.5 -36.5t16.5 -32.5h10q16 36 34 68l374 621h227l-536 -875v-567h-208z" />
    <glyph glyph-name="Ydieresis" unicode="&#x178;" horiz-adv-x="1435" 
d="M540 1553q-30 0 -55 13.5t-39.5 37.5t-14.5 53t14.5 53t39.5 37.5t55 13.5q31 0 55.5 -13.5t39 -37t14.5 -53.5q0 -29 -14.5 -53t-39.5 -37.5t-55 -13.5zM899 1553q-30 0 -55.5 13.5t-40 37.5t-14.5 53t14.5 53t40 37.5t55.5 13.5q31 0 55.5 -13.5t38.5 -37t14 -53.5
q0 -29 -14 -53t-39 -37.5t-55 -13.5zM615 0v565l-539 877h228l374 -620q10 -18 19.5 -36.5t16.5 -32.5h10q16 36 34 68l374 621h227l-536 -875v-567h-208z" />
    <glyph glyph-name="Ygrave" unicode="&#x1ef2;" horiz-adv-x="1435" 
d="M802 1546h-168l-199 220h226zM615 0v565l-539 877h228l374 -620q10 -18 19.5 -36.5t16.5 -32.5h10q16 36 34 68l374 621h227l-536 -875v-567h-208z" />
    <glyph glyph-name="Z" unicode="Z" horiz-adv-x="1269" 
d="M106 0v185l693 924q28 39 56.5 75t53.5 65v8h-795v185h1041v-185l-692 -924q-27 -38 -56 -74t-52 -66v-8h808v-185h-1057z" />
    <glyph glyph-name="Zacute" unicode="&#x179;" horiz-adv-x="1269" 
d="M554 1546l132 220h232l-199 -220h-165zM106 0v185l693 924q28 39 56.5 75t53.5 65v8h-795v185h1041v-185l-692 -924q-27 -38 -56 -74t-52 -66v-8h808v-185h-1057z" />
    <glyph glyph-name="Zcaron" unicode="&#x17d;" horiz-adv-x="1269" 
d="M635 1632l146 134h185l-229 -220h-204l-231 220h186zM106 0v185l693 924q28 39 56.5 75t53.5 65v8h-795v185h1041v-185l-692 -924q-27 -38 -56 -74t-52 -66v-8h808v-185h-1057z" />
    <glyph glyph-name="Zdotaccent" unicode="&#x17b;" horiz-adv-x="1269" 
d="M106 0v185l693 924q28 39 56.5 75t53.5 65v8h-795v185h1041v-185l-692 -924q-27 -38 -56 -74t-52 -66v-8h808v-185h-1057zM634 1549q-37 0 -66 16t-46 44t-17 62q0 36 17 64t46 44t66 16t66.5 -16t46 -44t16.5 -64q0 -34 -16.5 -62t-46.5 -44t-66 -16z" />
    <glyph glyph-name="Q" unicode="Q" horiz-adv-x="1641" 
d="M1497 -38q-18 -5 -56 -5q-88 0 -148.5 25t-100 66.5t-77.5 103.5l-21 38q-45 81 -76.5 126t-78.5 74.5t-113 29.5h-53v171q27 6 69 6q105 0 177 -41t115.5 -100t97.5 -155l24 -43q35 -62 79.5 -93.5t116.5 -31.5h45v-171zM821 -23q-205 0 -364.5 91t-248.5 259t-89 391
q0 222 89 391.5t248.5 262.5t364.5 93t364 -92.5t248 -262t89 -392.5q0 -224 -89 -392t-247.5 -258.5t-364.5 -90.5zM819 172q143 0 252 66.5t168.5 190t59.5 289.5q0 168 -59 292.5t-168 192t-253 67.5q-142 0 -251 -67.5t-168.5 -192t-59.5 -292.5t60.5 -291t169 -189
t249.5 -66z" />
    <glyph glyph-name="K" unicode="K" horiz-adv-x="1349" 
d="M188 -1v1443h217v-659l568 659h261l-601 -690l639 -752h-270l-597 710v-711h-217z" />
    <glyph glyph-name="uni0136" unicode="&#x136;" horiz-adv-x="1349" 
d="M590 -357q53 7 78 18t39 33q-6 -2 -15 -2q-32 0 -57.5 13.5t-40 37.5t-14.5 53q0 28 14 51t39.5 36t58.5 13q55 0 88 -34t33 -97q0 -75 -52.5 -129.5t-170.5 -63.5v71zM188 -1v1443h217v-659l568 659h261l-601 -690l639 -752h-270l-597 710v-711h-217z" />
    <glyph glyph-name="R" unicode="R" horiz-adv-x="1380" 
d="M188 0v1442h603q141 0 242 -49t153.5 -139.5t52.5 -210.5q0 -90 -32.5 -161.5t-92.5 -118t-143 -63.5v-7q119 -24 177 -110t61 -241q0 -13 0.5 -25.5t1.5 -25.5q3 -113 13 -172t29 -100v-19h-217q-17 40 -26 94.5t-14 144.5q-1 19 -1.5 39t-1.5 42q-3 104 -31.5 163.5
t-85.5 84t-150 24.5h-320v-592h-218zM758 777q83 0 142.5 28.5t90.5 83.5t31 131q0 78 -32.5 131.5t-91.5 79.5t-140 26h-352v-480h352z" />
    <glyph glyph-name="Racute" unicode="&#x154;" horiz-adv-x="1380" 
d="M625 1546l132 220h232l-199 -220h-165zM188 0v1442h603q141 0 242 -49t153.5 -139.5t52.5 -210.5q0 -90 -32.5 -161.5t-92.5 -118t-143 -63.5v-7q119 -24 177 -110t61 -241q0 -13 0.5 -25.5t1.5 -25.5q3 -113 13 -172t29 -100v-19h-217q-17 40 -26 94.5t-14 144.5
q-1 19 -1.5 39t-1.5 42q-3 104 -31.5 163.5t-85.5 84t-150 24.5h-320v-592h-218zM758 777q83 0 142.5 28.5t90.5 83.5t31 131q0 78 -32.5 131.5t-91.5 79.5t-140 26h-352v-480h352z" />
    <glyph glyph-name="Rcaron" unicode="&#x158;" horiz-adv-x="1380" 
d="M706 1632l146 134h185l-229 -220h-204l-231 220h187zM188 0v1442h603q141 0 242 -49t153.5 -139.5t52.5 -210.5q0 -90 -32.5 -161.5t-92.5 -118t-143 -63.5v-7q119 -24 177 -110t61 -241q0 -13 0.5 -25.5t1.5 -25.5q3 -113 13 -172t29 -100v-19h-217q-17 40 -26 94.5
t-14 144.5q-1 19 -1.5 39t-1.5 42q-3 104 -31.5 163.5t-85.5 84t-150 24.5h-320v-592h-218zM758 777q83 0 142.5 28.5t90.5 83.5t31 131q0 78 -32.5 131.5t-91.5 79.5t-140 26h-352v-480h352z" />
    <glyph glyph-name="uni0156" unicode="&#x156;" horiz-adv-x="1380" 
d="M599 -357q53 7 78 18t39 33q-6 -2 -15 -2q-32 0 -57.5 13.5t-40 37.5t-14.5 53q0 28 14 51t39.5 36t58.5 13q55 0 88 -34t33 -97q0 -75 -52.5 -129.5t-170.5 -63.5v71zM188 0v1442h603q141 0 242 -49t153.5 -139.5t52.5 -210.5q0 -90 -32.5 -161.5t-92.5 -118t-143 -63.5
v-7q119 -24 177 -110t61 -241q0 -13 0.5 -25.5t1.5 -25.5q3 -113 13 -172t29 -100v-19h-217q-17 40 -26 94.5t-14 144.5q-1 19 -1.5 39t-1.5 42q-3 104 -31.5 163.5t-85.5 84t-150 24.5h-320v-592h-218zM758 777q83 0 142.5 28.5t90.5 83.5t31 131q0 78 -32.5 131.5
t-91.5 79.5t-140 26h-352v-480h352z" />
    <glyph glyph-name="G" unicode="G" horiz-adv-x="1627" 
d="M801 -23q-205 0 -358.5 93.5t-237.5 262.5t-84 386q0 216 86 385.5t246 265t373 95.5q169 0 302.5 -59.5t219.5 -171.5t117 -266h-212q-24 97 -81.5 167t-144.5 107t-196 37q-153 0 -263 -73t-168 -201t-58 -289q0 -163 58.5 -288t168 -195t260.5 -70q131 0 228 45.5
t154.5 138.5t68.5 229h-449v165h648v-741h-156v263h-9q-62 -135 -196 -210.5t-317 -75.5z" />
    <glyph glyph-name="Gbreve" unicode="&#x11e;" horiz-adv-x="1572" 
d="M801 1541q-82 0 -145 28t-100.5 79.5t-42.5 122.5h138q9 -54 48.5 -82.5t101.5 -28.5q64 0 103.5 28.5t47.5 82.5h139q-7 -71 -44.5 -122.5t-100 -79.5t-145.5 -28zM776 -23q-200 0 -348 93.5t-228 262t-80 386.5q0 217 82 386.5t236 264.5t363 95q165 0 291.5 -58.5
t207 -169.5t110.5 -264h-212q-23 96 -75 164.5t-132 105t-185 36.5q-148 0 -252.5 -73t-158 -200.5t-53.5 -289.5q0 -164 54 -288.5t158 -194.5t250 -70q189 0 296.5 103.5t124.5 309.5h-419v165h618v-741h-156v258h-7q-59 -134 -184.5 -207.5t-300.5 -73.5z" />
    <glyph glyph-name="Gcircumflex" unicode="&#x11c;" horiz-adv-x="1572" 
d="M908 1767l225 -221h-181l-149 135l-153 -135h-180l225 221h213zM776 -23q-200 0 -348 93.5t-228 262t-80 386.5q0 217 82 386.5t236 264.5t363 95q165 0 291.5 -58.5t207 -169.5t110.5 -264h-212q-23 96 -75 164.5t-132 105t-185 36.5q-148 0 -252.5 -73t-158 -200.5
t-53.5 -289.5q0 -164 54 -288.5t158 -194.5t250 -70q189 0 296.5 103.5t124.5 309.5h-419v165h618v-741h-156v258h-7q-59 -134 -184.5 -207.5t-300.5 -73.5z" />
    <glyph glyph-name="uni0122" unicode="&#x122;" horiz-adv-x="1572" 
d="M695 -357q53 7 78 18t39 33q-6 -2 -15 -2q-32 0 -57.5 13.5t-40 37.5t-14.5 53q0 28 14 51t39.5 36t58.5 13q55 0 88 -34t33 -97q0 -75 -52.5 -129.5t-170.5 -63.5v71zM776 -23q-200 0 -348 93.5t-228 262t-80 386.5q0 217 82 386.5t236 264.5t363 95q165 0 291.5 -58.5
t207 -169.5t110.5 -264h-212q-23 96 -75 164.5t-132 105t-185 36.5q-148 0 -252.5 -73t-158 -200.5t-53.5 -289.5q0 -164 54 -288.5t158 -194.5t250 -70q189 0 296.5 103.5t124.5 309.5h-419v165h618v-741h-156v258h-7q-59 -134 -184.5 -207.5t-300.5 -73.5z" />
    <glyph glyph-name="Gdotaccent" unicode="&#x120;" horiz-adv-x="1572" 
d="M776 -23q-200 0 -348 93.5t-228 262t-80 386.5q0 217 82 386.5t236 264.5t363 95q165 0 291.5 -58.5t207 -169.5t110.5 -264h-212q-23 96 -75 164.5t-132 105t-185 36.5q-148 0 -252.5 -73t-158 -200.5t-53.5 -289.5q0 -164 54 -288.5t158 -194.5t250 -70
q189 0 296.5 103.5t124.5 309.5h-419v165h618v-741h-156v258h-7q-59 -134 -184.5 -207.5t-300.5 -73.5zM801 1549q-37 0 -66.5 16t-46 44t-16.5 62q0 36 16.5 64t46 44t66.5 16t66.5 -16t46 -44t16.5 -64q0 -34 -16.5 -62t-46.5 -44t-66 -16z" />
    <glyph glyph-name="J" unicode="J" horiz-adv-x="1201" 
d="M298 415q0 -126 69 -190t199 -64q127 0 195 64t68 189v1028h200v-1028q0 -138 -55.5 -236.5t-160 -150t-252.5 -51.5q-147 0 -251 51.5t-158.5 150t-54.5 237.5v62h201v-62z" />
    <glyph glyph-name="Jcircumflex" unicode="&#x134;" horiz-adv-x="1201" 
d="M1038 1767l226 -221h-182l-149 135l-153 -135h-180l225 221h213zM298 415q0 -126 69 -190t199 -64q127 0 195 64t68 189v1028h200v-1028q0 -138 -55.5 -236.5t-160 -150t-252.5 -51.5q-147 0 -251 51.5t-158.5 150t-54.5 237.5v62h201v-62z" />
    <glyph glyph-name="uni01CE" unicode="&#x1ce;" horiz-adv-x="1142" 
d="M667 1230h-204l-225 260h177l151 -162l148 162h178zM424 -20q-103 0 -178 37t-115.5 106t-40.5 161q0 274 362 329l241 36q41 6 64.5 18t33 31.5t9.5 49.5q0 69 -30 117.5t-83 73.5t-123 25q-71 0 -123.5 -24t-82.5 -67.5t-35 -103.5h-200q9 107 65 184.5t153 119
t227 41.5q125 0 223.5 -42t154.5 -125.5t56 -202.5v-744h-202v217h-4q-50 -113 -145.5 -175t-226.5 -62zM496 132q97 0 165.5 48.5t103.5 128t35 174.5v78q-32 -27 -111 -38l-191 -27q-95 -14 -151.5 -57t-56.5 -129q0 -53 25 -93.5t71.5 -62.5t109.5 -22z" />
    <glyph glyph-name="ae" unicode="&#xe6;" horiz-adv-x="1852" 
d="M448 -19q-109 0 -190 36.5t-124.5 103t-43.5 153.5q0 100 50 165t127 98t170 47l231 35q39 6 61 17.5t31.5 31t9.5 48.5q0 58 -27.5 100t-78.5 64.5t-121 22.5q-66 0 -115.5 -22.5t-78 -65t-33.5 -99.5h-201q9 110 63.5 190.5t148.5 124t216 43.5q83 0 153 -18.5
t122.5 -52.5t85.5 -82q67 74 164.5 113.5t209.5 39.5q145 0 253.5 -64.5t167 -182.5t58.5 -274q0 -19 -1 -42t-4 -48h-781q7 -110 50.5 -179t110.5 -98t151 -29q102 0 170.5 45t95.5 123h200q-21 -104 -84 -182.5t-161 -122t-223 -43.5q-143 0 -253.5 58t-174.5 160
q-63 -105 -168.5 -159.5t-236.5 -54.5zM472 142q95 0 162 44.5t101.5 119.5t34.5 162v54q-3 -2 -5.5 -4t-5.5 -3q-17 -11 -38 -17.5t-57 -11.5l-206 -31q-76 -11 -122.5 -47t-46.5 -108q0 -46 22 -82t63.5 -56t97.5 -20zM1554 626q-5 86 -38.5 151.5t-95 100.5t-145.5 35
q-77 0 -141.5 -30t-107 -94.5t-56.5 -162.5h584z" />
    <glyph glyph-name="aeacute" unicode="&#x1fd;" horiz-adv-x="1852" 
d="M841 1193l141 295h216l-199 -295h-158zM448 -19q-109 0 -190 36.5t-124.5 103t-43.5 153.5q0 100 50 165t127 98t170 47l231 35q39 6 61 17.5t31.5 31t9.5 48.5q0 58 -27.5 100t-78.5 64.5t-121 22.5q-66 0 -115.5 -22.5t-78 -65t-33.5 -99.5h-201q9 110 63.5 190.5
t148.5 124t216 43.5q83 0 153 -18.5t122.5 -52.5t85.5 -82q67 74 164.5 113.5t209.5 39.5q145 0 253.5 -64.5t167 -182.5t58.5 -274q0 -19 -1 -42t-4 -48h-781q7 -110 50.5 -179t110.5 -98t151 -29q102 0 170.5 45t95.5 123h200q-21 -104 -84 -182.5t-161 -122t-223 -43.5
q-143 0 -253.5 58t-174.5 160q-63 -105 -168.5 -159.5t-236.5 -54.5zM472 142q95 0 162 44.5t101.5 119.5t34.5 162v54q-3 -2 -5.5 -4t-5.5 -3q-17 -11 -38 -17.5t-57 -11.5l-206 -31q-76 -11 -122.5 -47t-46.5 -108q0 -46 22 -82t63.5 -56t97.5 -20zM1554 626
q-5 86 -38.5 151.5t-95 100.5t-145.5 35q-77 0 -141.5 -30t-107 -94.5t-56.5 -162.5h584z" />
    <glyph glyph-name="b" unicode="b" horiz-adv-x="1270" 
d="M723 -23q-73 0 -139.5 21t-120.5 63t-91 103h-7v-164h-208v1485h208v-599h7q34 58 86 100t119 65t145 23q132 0 234 -67.5t158.5 -192.5t56.5 -290q0 -171 -58 -294.5t-160 -188t-230 -64.5zM660 159q87 0 155 44t106.5 126.5t38.5 195.5q0 112 -37.5 194.5t-106 126.5
t-156.5 44q-90 0 -157.5 -46t-104.5 -129t-37 -191q0 -110 37.5 -193t104.5 -127.5t157 -44.5z" />
    <glyph glyph-name="c" unicode="c" horiz-adv-x="1170" 
d="M610 -24q-145 0 -262.5 63.5t-185 187t-67.5 295.5q0 171 66.5 296t183 190.5t263.5 65.5q134 0 236 -56t162 -152t74 -214h-201q-12 71 -46 128t-91 89.5t-133 32.5q-93 0 -162 -46t-106.5 -131t-37.5 -200q0 -116 37.5 -201t107 -130t162.5 -45q73 0 129.5 31
t91.5 84.5t48 121.5h201q-17 -118 -76.5 -210.5t-160 -146t-233.5 -53.5z" />
    <glyph glyph-name="cacute" unicode="&#x107;" horiz-adv-x="1157" 
d="M530 1189l141 295h216l-199 -295h-158zM604 -24q-144 0 -260 63.5t-182.5 187t-66.5 295.5q0 171 65.5 295.5t180.5 190.5t261 66q132 0 232.5 -55t160.5 -151t74 -216h-198q-12 71 -45.5 128.5t-89.5 90.5t-132 33q-92 0 -160 -47t-104.5 -132t-36.5 -199
q0 -117 36.5 -202t104.5 -131t160 -46q73 0 128.5 31t90 85t48.5 123h198q-17 -118 -75.5 -210.5t-158 -146t-231.5 -53.5z" />
    <glyph glyph-name="ccaron" unicode="&#x10d;" horiz-adv-x="1157" 
d="M710 1190h-204l-225 261h177l150 -163l149 163h178zM604 -24q-144 0 -260 63.5t-182.5 187t-66.5 295.5q0 171 65.5 295.5t180.5 190.5t261 66q132 0 232.5 -55t160.5 -151t74 -216h-198q-12 71 -45.5 128.5t-89.5 90.5t-132 33q-92 0 -160 -47t-104.5 -132t-36.5 -199
q0 -117 36.5 -202t104.5 -131t160 -46q73 0 128.5 31t90 85t48.5 123h198q-17 -118 -75.5 -210.5t-158 -146t-231.5 -53.5z" />
    <glyph glyph-name="ccedilla" unicode="&#xe7;" horiz-adv-x="1157" 
d="M584 -396q-27 0 -60.5 4t-62.5 12v96q27 -7 55.5 -11t51.5 -4q45 0 67 16t22 45q0 30 -21.5 44.5t-66.5 14.5h-27.5t-33.5 -1v62l60 147l102 -20l-43 -104q80 -4 120.5 -42.5t40.5 -98.5q0 -70 -50.5 -115t-153.5 -45zM604 -24q-144 0 -260 63.5t-182.5 187t-66.5 295.5
q0 171 65.5 295.5t180.5 190.5t261 66q132 0 232.5 -55t160.5 -151t74 -216h-198q-12 71 -45.5 128.5t-89.5 90.5t-132 33q-92 0 -160 -47t-104.5 -132t-36.5 -199q0 -117 36.5 -202t104.5 -131t160 -46q73 0 128.5 31t90 85t48.5 123h198q-17 -118 -75.5 -210.5t-158 -146
t-231.5 -53.5z" />
    <glyph glyph-name="ccircumflex" unicode="&#x109;" horiz-adv-x="1157" 
d="M711 1450l225 -261h-178l-149 163l-150 -163h-177l225 261h204zM604 -24q-144 0 -260 63.5t-182.5 187t-66.5 295.5q0 171 65.5 295.5t180.5 190.5t261 66q132 0 232.5 -55t160.5 -151t74 -216h-198q-12 71 -45.5 128.5t-89.5 90.5t-132 33q-92 0 -160 -47t-104.5 -132
t-36.5 -199q0 -117 36.5 -202t104.5 -131t160 -46q73 0 128.5 31t90 85t48.5 123h198q-17 -118 -75.5 -210.5t-158 -146t-231.5 -53.5z" />
    <glyph glyph-name="cdotaccent" unicode="&#x10b;" horiz-adv-x="1157" 
d="M609 1204q-37 0 -66 17t-46 46.5t-17 65.5q0 37 17 67t46 46t66 16t66.5 -16t46 -45.5t16.5 -67.5q0 -36 -16.5 -65.5t-46.5 -46.5t-66 -17zM604 -24q-144 0 -260 63.5t-182.5 187t-66.5 295.5q0 171 65.5 295.5t180.5 190.5t261 66q132 0 232.5 -55t160.5 -151t74 -216
h-198q-12 71 -45.5 128.5t-89.5 90.5t-132 33q-92 0 -160 -47t-104.5 -132t-36.5 -199q0 -117 36.5 -202t104.5 -131t160 -46q73 0 128.5 31t90 85t48.5 123h198q-17 -118 -75.5 -210.5t-158 -146t-231.5 -53.5z" />
    <glyph glyph-name="d" unicode="d" horiz-adv-x="1270" 
d="M547 -23q-128 0 -230 64.5t-160 188t-58 294.5q0 165 56.5 290t158.5 192.5t234 67.5q78 0 145 -23t119 -65t86 -100h8v599h207v-1485h-207v164h-8q-37 -61 -91 -103t-120.5 -63t-139.5 -21zM611 159q89 0 156.5 44.5t104.5 127.5t37 193q0 108 -36.5 191t-104.5 129
t-158 46q-88 0 -156.5 -44.5t-106 -126.5t-37.5 -194q0 -113 38.5 -195.5t106.5 -126.5t156 -44z" />
    <glyph glyph-name="eth" unicode="&#xf0;" horiz-adv-x="1215" 
d="M356 1550q244 -91 410.5 -228.5t254 -330t87.5 -441.5q0 -185 -62.5 -313.5t-177 -194t-265.5 -65.5q-152 0 -267 64t-178.5 183.5t-63.5 281.5q0 155 56 272.5t160.5 181t243.5 63.5q97 0 179.5 -37.5t135.5 -108.5h7q-52 192 -200 326t-380 224zM603 153q91 0 157 40
t102.5 119t36.5 192q0 111 -36 190.5t-102 120t-158 40.5q-91 0 -158 -40.5t-103.5 -119.5t-36.5 -191t36.5 -191t104 -119.5t157.5 -40.5zM346 1119l-48 75l607 349l47 -74z" />
    <glyph glyph-name="dcaron" unicode="&#x10f;" horiz-adv-x="1270" 
d="M1270 1123l45 361h192l-104 -361h-133zM547 -23q-128 0 -230 64.5t-160 188t-58 294.5q0 165 56.5 290t158.5 192.5t234 67.5q78 0 145 -23t119 -65t86 -100h8v599h207v-1485h-207v164h-8q-37 -61 -91 -103t-120.5 -63t-139.5 -21zM611 159q89 0 156.5 44.5t104.5 127.5
t37 193q0 108 -36.5 191t-104.5 129t-158 46q-88 0 -156.5 -44.5t-106 -126.5t-37.5 -194q0 -113 38.5 -195.5t106.5 -126.5t156 -44z" />
    <glyph glyph-name="dcroat" unicode="&#x111;" horiz-adv-x="1290" 
d="M637 1209v129h610v-129h-610zM547 -23q-128 0 -230 64.5t-160 188t-58 294.5q0 165 56.5 290t158.5 192.5t234 67.5q78 0 145 -23t119 -65t86 -100h8v599h207v-1485h-207v164h-8q-37 -61 -91 -103t-120.5 -63t-139.5 -21zM611 159q89 0 156.5 44.5t104.5 127.5t37 193
q0 108 -36.5 191t-104.5 129t-158 46q-88 0 -156.5 -44.5t-106 -126.5t-37.5 -194q0 -113 38.5 -195.5t106.5 -126.5t156 -44z" />
    <glyph glyph-name="e" unicode="e" horiz-adv-x="1166" 
d="M599 -23q-157 0 -271 69.5t-174 194.5t-60 285q0 166 63 290t177 191t263 67q146 0 253 -65.5t164 -183t57 -268.5q0 -21 -1 -45t-4 -48h-771q9 -101 48.5 -171.5t106 -105t155.5 -34.5q100 0 166.5 35.5t91.5 99.5h203q-20 -94 -83.5 -164.5t-162 -108.5t-221.5 -38z
M866 626q-4 87 -37 152t-93.5 100t-141.5 35q-77 0 -139.5 -30t-103.5 -94.5t-54 -162.5h569z" />
    <glyph glyph-name="eacute" unicode="&#xe9;" horiz-adv-x="1166" 
d="M515 1189l142 295h215l-199 -295h-158zM599 -23q-157 0 -271 69.5t-174 194.5t-60 285q0 166 63 290t177 191t263 67q146 0 253 -65.5t164 -183t57 -268.5q0 -21 -1 -45t-4 -48h-771q9 -101 48.5 -171.5t106 -105t155.5 -34.5q100 0 166.5 35.5t91.5 99.5h203
q-20 -94 -83.5 -164.5t-162 -108.5t-221.5 -38zM866 626q-4 87 -37 152t-93.5 100t-141.5 35q-77 0 -139.5 -30t-103.5 -94.5t-54 -162.5h569z" />
    <glyph glyph-name="ebreve" unicode="&#x115;" horiz-adv-x="1166" 
d="M595 1187q-86 0 -151 34t-100 94.5t-37 139.5h138q2 -64 42 -104.5t108 -40.5q69 0 110 40.5t42 104.5h138q-2 -79 -37.5 -139.5t-100.5 -94.5t-152 -34zM599 -23q-157 0 -271 69.5t-174 194.5t-60 285q0 166 63 290t177 191t263 67q146 0 253 -65.5t164 -183t57 -268.5
q0 -21 -1 -45t-4 -48h-771q9 -101 48.5 -171.5t106 -105t155.5 -34.5q100 0 166.5 35.5t91.5 99.5h203q-20 -94 -83.5 -164.5t-162 -108.5t-221.5 -38zM866 626q-4 87 -37 152t-93.5 100t-141.5 35q-77 0 -139.5 -30t-103.5 -94.5t-54 -162.5h569z" />
    <glyph glyph-name="ecaron" unicode="&#x11b;" horiz-adv-x="1166" 
d="M695 1190h-204l-225 261h177l150 -163l149 163h178zM599 -23q-157 0 -271 69.5t-174 194.5t-60 285q0 166 63 290t177 191t263 67q146 0 253 -65.5t164 -183t57 -268.5q0 -21 -1 -45t-4 -48h-771q9 -101 48.5 -171.5t106 -105t155.5 -34.5q100 0 166.5 35.5t91.5 99.5
h203q-20 -94 -83.5 -164.5t-162 -108.5t-221.5 -38zM866 626q-4 87 -37 152t-93.5 100t-141.5 35q-77 0 -139.5 -30t-103.5 -94.5t-54 -162.5h569z" />
    <glyph glyph-name="ecircumflex" unicode="&#xea;" horiz-adv-x="1166" 
d="M696 1450l225 -261h-178l-149 163l-150 -163h-177l225 261h204zM599 -23q-157 0 -271 69.5t-174 194.5t-60 285q0 166 63 290t177 191t263 67q146 0 253 -65.5t164 -183t57 -268.5q0 -21 -1 -45t-4 -48h-771q9 -101 48.5 -171.5t106 -105t155.5 -34.5q100 0 166.5 35.5
t91.5 99.5h203q-20 -94 -83.5 -164.5t-162 -108.5t-221.5 -38zM866 626q-4 87 -37 152t-93.5 100t-141.5 35q-77 0 -139.5 -30t-103.5 -94.5t-54 -162.5h569z" />
    <glyph glyph-name="edieresis" unicode="&#xeb;" horiz-adv-x="1166" 
d="M416 1216q-30 0 -55 14.5t-40 39t-15 54.5q0 31 15 56t40 39.5t55 14.5q31 0 55.5 -14.5t39 -39.5t14.5 -56q0 -30 -14.5 -54.5t-39.5 -39t-55 -14.5zM774 1216q-30 0 -55 14.5t-39.5 39t-14.5 54.5q0 31 14.5 56t39.5 39.5t55 14.5q31 0 56 -14.5t39 -39.5t14 -56
q0 -30 -14 -54.5t-39 -39t-56 -14.5zM599 -23q-157 0 -271 69.5t-174 194.5t-60 285q0 166 63 290t177 191t263 67q146 0 253 -65.5t164 -183t57 -268.5q0 -21 -1 -45t-4 -48h-771q9 -101 48.5 -171.5t106 -105t155.5 -34.5q100 0 166.5 35.5t91.5 99.5h203
q-20 -94 -83.5 -164.5t-162 -108.5t-221.5 -38zM866 626q-4 87 -37 152t-93.5 100t-141.5 35q-77 0 -139.5 -30t-103.5 -94.5t-54 -162.5h569z" />
    <glyph glyph-name="edotaccent" unicode="&#x117;" horiz-adv-x="1166" 
d="M594 1204q-36 0 -65.5 17t-46.5 46.5t-17 65.5q0 37 17 67t46.5 46t65.5 16q38 0 67 -16t45.5 -45.5t16.5 -67.5q0 -36 -16.5 -65.5t-46 -46.5t-66.5 -17zM599 -23q-157 0 -271 69.5t-174 194.5t-60 285q0 166 63 290t177 191t263 67q146 0 253 -65.5t164 -183t57 -268.5
q0 -21 -1 -45t-4 -48h-771q9 -101 48.5 -171.5t106 -105t155.5 -34.5q100 0 166.5 35.5t91.5 99.5h203q-20 -94 -83.5 -164.5t-162 -108.5t-221.5 -38zM866 626q-4 87 -37 152t-93.5 100t-141.5 35q-77 0 -139.5 -30t-103.5 -94.5t-54 -162.5h569z" />
    <glyph glyph-name="egrave" unicode="&#xe8;" horiz-adv-x="1166" 
d="M669 1189h-158l-199 295h217zM599 -23q-157 0 -271 69.5t-174 194.5t-60 285q0 166 63 290t177 191t263 67q146 0 253 -65.5t164 -183t57 -268.5q0 -21 -1 -45t-4 -48h-771q9 -101 48.5 -171.5t106 -105t155.5 -34.5q100 0 166.5 35.5t91.5 99.5h203
q-20 -94 -83.5 -164.5t-162 -108.5t-221.5 -38zM866 626q-4 87 -37 152t-93.5 100t-141.5 35q-77 0 -139.5 -30t-103.5 -94.5t-54 -162.5h569z" />
    <glyph glyph-name="emacron" unicode="&#x113;" horiz-adv-x="1166" 
d="M280 1259v131h628v-131h-628zM599 -23q-157 0 -271 69.5t-174 194.5t-60 285q0 166 63 290t177 191t263 67q146 0 253 -65.5t164 -183t57 -268.5q0 -21 -1 -45t-4 -48h-771q9 -101 48.5 -171.5t106 -105t155.5 -34.5q100 0 166.5 35.5t91.5 99.5h203
q-20 -94 -83.5 -164.5t-162 -108.5t-221.5 -38zM866 626q-4 87 -37 152t-93.5 100t-141.5 35q-77 0 -139.5 -30t-103.5 -94.5t-54 -162.5h569z" />
    <glyph glyph-name="eogonek" unicode="&#x119;" horiz-adv-x="1166" 
d="M427 -230q0 82 55.5 146t144.5 108l136 -24q-86 -41 -129.5 -92t-43.5 -109q0 -54 39.5 -81.5t107.5 -24.5v-107q-84 -10 -155 9t-113 64t-42 111zM599 -23q-157 0 -271 69.5t-174 194.5t-60 285q0 166 63 290t177 191t263 67q146 0 253 -65.5t164 -183t57 -268.5
q0 -21 -1 -45t-4 -48h-771q9 -101 48.5 -171.5t106 -105t155.5 -34.5q100 0 166.5 35.5t91.5 99.5h203q-20 -94 -83.5 -164.5t-162 -108.5t-221.5 -38zM866 626q-4 87 -37 152t-93.5 100t-141.5 35q-77 0 -139.5 -30t-103.5 -94.5t-54 -162.5h569z" />
    <glyph glyph-name="f" unicode="f" horiz-adv-x="760" 
d="M583 1496q27 0 56.5 -3t58.5 -9h2v-167q-35 8 -76 8q-86 0 -124 -41.5t-38 -112.5v-121h239v-176h-239v-874h-207v874h-196v176h196v122q0 95 35 168t108 114.5t185 41.5z" />
    <glyph glyph-name="hbar" unicode="&#x127;" horiz-adv-x="1230" 
d="M51 1186v129h609v-129h-609zM177 0v1485h208v-598h7q44 88 128.5 137.5t197.5 49.5q118 0 202.5 -49t129.5 -143t45 -228v-654h-208v628q0 126 -61 195t-171 69q-83 0 -144 -37.5t-93.5 -102.5t-32.5 -145v-607h-208z" />
    <glyph glyph-name="hcircumflex" unicode="&#x125;" horiz-adv-x="1210" 
d="M262 1749l-112 -168h-142l165 261h175l165 -261h-142zM157 0v1485h208v-598h7q44 88 128.5 137.5t197.5 49.5q118 0 202.5 -49t129.5 -143t45 -228v-654h-208v628q0 126 -61 195t-171 69q-83 0 -144 -37.5t-93.5 -102.5t-32.5 -145v-607h-208z" />
    <glyph glyph-name="i" unicode="i" horiz-adv-x="520" 
d="M260 1204q-36 0 -65.5 17t-46.5 46t-17 66t17 66t46.5 46t65.5 17q38 0 67 -17t45.5 -46t16.5 -66t-16.5 -66t-45.5 -46t-67 -17zM157 0v1050h208v-1050h-208z" />
    <glyph glyph-name="dotlessi" unicode="&#x131;" horiz-adv-x="517" 
d="M157 0v1050h203v-1050h-203z" />
    <glyph glyph-name="iacute" unicode="&#xed;" horiz-adv-x="517" 
d="M179 1189l130 294h215l-187 -294h-158zM157 0v1050h203v-1050h-203z" />
    <glyph glyph-name="ibreve" unicode="&#x12d;" horiz-adv-x="517" 
d="M257 1187q-72 0 -126.5 30.5t-85 89.5t-30.5 142h120q0 -70 33 -106.5t89 -36.5q57 0 90.5 36.5t33.5 106.5h120q0 -83 -30.5 -142t-86 -89.5t-127.5 -30.5zM157 0v1050h203v-1050h-203z" />
    <glyph glyph-name="icircumflex" unicode="&#xee;" horiz-adv-x="517" 
d="M259 1357l-111 -168h-143l165 261h176l165 -261h-143zM157 0v1050h203v-1050h-203z" />
    <glyph glyph-name="idieresis" unicode="&#xef;" horiz-adv-x="517" 
d="M110 1207q-32 0 -59 15.5t-42.5 42.5t-15.5 59q0 33 15.5 59.5t42.5 42t59 15.5q33 0 59.5 -15.5t42 -42t15.5 -59.5q0 -32 -15.5 -59t-42 -42.5t-59.5 -15.5zM410 1207q-32 0 -58.5 15.5t-42 42.5t-15.5 59q0 33 15.5 59.5t42 42t58.5 15.5q33 0 59.5 -15.5t42 -42
t15.5 -59.5q0 -32 -15.5 -59t-42 -42.5t-59.5 -15.5zM157 0v1050h203v-1050h-203z" />
    <glyph glyph-name="i.locl" horiz-adv-x="521" 
d="M260 1204q-36 0 -65.5 16.5t-46.5 46t-17 65.5q0 38 17 67t46.5 46t65.5 17q37 0 66 -17t46 -46t17 -67q0 -36 -17 -65.5t-46 -46t-66 -16.5zM157 0v1019h200v-1019h-200z" />
    <glyph glyph-name="igrave" unicode="&#xec;" horiz-adv-x="517" 
d="M178 1189l-175 294h215l118 -294h-158zM157 0v1050h203v-1050h-203z" />
    <glyph glyph-name="ij" unicode="&#x133;" horiz-adv-x="1066" 
d="M260 1204q-36 0 -65.5 17t-46.5 46t-17 66t17 66t46.5 46t65.5 17q38 0 67 -17t45.5 -46t16.5 -66t-16.5 -66t-45.5 -46t-67 -17zM157 0v1050h208v-1050h-208zM810 1204q-37 0 -66.5 17t-46 46t-16.5 66t16.5 66t46 46t66.5 17t66 -17t46 -46t17 -66t-17 -66t-46 -46
t-66 -17zM602 -400q-50 0 -74 4v177q27 -5 65 -5q56 0 84.5 29.5t28.5 87.5v1157h208v-1149q0 -100 -35 -167t-104 -100.5t-173 -33.5z" />
    <glyph glyph-name="imacron" unicode="&#x12b;" horiz-adv-x="517" 
d="M65 1258v131h386v-131h-386zM157 0v1050h203v-1050h-203z" />
    <glyph glyph-name="iogonek" unicode="&#x12f;" horiz-adv-x="517" 
d="M19 -230q0 82 56 146t144 108l136 -24q-86 -42 -129 -93t-43 -108q0 -54 39 -81.5t107 -24.5v-106q-84 -11 -155 7.5t-113 64t-42 111.5zM157 0v1050h203v-1050h-203zM258 1204q-36 0 -65.5 16.5t-46.5 46t-17 66.5t17 66t46.5 46t65.5 17q37 0 66.5 -17t46 -46t16.5 -66
t-16.5 -66.5t-46 -46t-66.5 -16.5z" />
    <glyph glyph-name="itilde" unicode="&#x129;" horiz-adv-x="517" 
d="M526 1438q-1 -117 -46 -176.5t-123 -59.5q-43 0 -70.5 16.5t-57.5 46.5q-22 23 -37 33.5t-36 10.5q-30 0 -46.5 -26.5t-17.5 -78.5h-101q0 117 44.5 176.5t123.5 59.5q44 0 71.5 -16.5t57.5 -46.5q21 -23 36.5 -33.5t36.5 -10.5q29 0 45.5 26.5t17.5 78.5h102zM157 0
v1050h203v-1050h-203z" />
    <glyph glyph-name="j" unicode="j" horiz-adv-x="520" 
d="M259 1204q-37 0 -66.5 17t-46 46t-16.5 66t16.5 66t46 46t66.5 17t66 -17t46 -46t17 -66t-17 -66t-46 -46t-66 -17zM51 -400q-50 0 -74 4v177q27 -5 65 -5q56 0 84.5 29.5t28.5 87.5v1157h208v-1149q0 -100 -35 -167t-104 -100.5t-173 -33.5z" />
    <glyph glyph-name="uni0237" unicode="&#x237;" horiz-adv-x="512" 
d="M49 -400q-48 0 -73 4v171q25 -4 64 -4q57 0 86 29.5t29 87.5v1162h201v-1155q0 -98 -34.5 -163.5t-102.5 -98.5t-170 -33z" />
    <glyph glyph-name="jcircumflex" unicode="&#x135;" horiz-adv-x="520" 
d="M260 1358l-112 -168h-143l165 261h176l165 -261h-143zM51 -400q-50 0 -74 4v177q27 -5 65 -5q56 0 84.5 29.5t28.5 87.5v1157h208v-1149q0 -100 -35 -167t-104 -100.5t-173 -33.5z" />
    <glyph glyph-name="l" unicode="l" horiz-adv-x="520" 
d="M365 0h-208v1485h208v-1485z" />
    <glyph glyph-name="lacute" unicode="&#x13a;" horiz-adv-x="517" 
d="M177 1545l133 221h232l-200 -221h-165zM360 0h-203v1485h203v-1485z" />
    <glyph glyph-name="lcaron" unicode="&#x13e;" horiz-adv-x="517" 
d="M468 1123l45 361h191l-103 -361h-133zM360 0h-203v1485h203v-1485z" />
    <glyph glyph-name="uni013C" unicode="&#x13c;" horiz-adv-x="517" 
d="M151 -357q53 6 78.5 17t38.5 34q-6 -2 -15 -2q-32 0 -57.5 14t-39.5 37.5t-14 52.5q0 28 14 51t39.5 36t58.5 13q55 0 88 -33.5t33 -97.5q0 -75 -52.5 -129t-171.5 -64v71zM360 0h-203v1485h203v-1485z" />
    <glyph glyph-name="ldot" unicode="&#x140;" horiz-adv-x="880" 
d="M365 0h-208v1485h208v-1485zM682 605q-39 0 -70.5 18t-49.5 49t-18 71q0 39 18 70t49.5 49t70.5 18t70 -18t49 -49t18 -70q0 -40 -18 -71t-49 -49t-70 -18z" />
    <glyph glyph-name="lslash" unicode="&#x142;" horiz-adv-x="634" 
d="M214 0v625l-150 -71v148l150 71v712h207v-613l149 71v-149l-149 -71v-723h-207z" />
    <glyph glyph-name="nacute" unicode="&#x144;" horiz-adv-x="1210" 
d="M545 1188l142 294h215l-199 -294h-158zM157 0v1051h208v-164h7q44 88 129 137.5t198 49.5q118 0 202.5 -49t129 -143t44.5 -228v-654h-208v628q0 126 -61 195t-171 69q-83 0 -144 -37.5t-93.5 -102.5t-32.5 -145v-607h-208z" />
    <glyph glyph-name="ncaron" unicode="&#x148;" horiz-adv-x="1210" 
d="M725 1189h-204l-225 261h177l150 -163l149 163h178zM157 0v1051h208v-164h7q44 88 129 137.5t198 49.5q118 0 202.5 -49t129 -143t44.5 -228v-654h-208v628q0 126 -61 195t-171 69q-83 0 -144 -37.5t-93.5 -102.5t-32.5 -145v-607h-208z" />
    <glyph glyph-name="uni0146" unicode="&#x146;" horiz-adv-x="1210" 
d="M517 -357q53 7 78 18t39 33q-6 -2 -15 -2q-32 0 -57.5 13.5t-40 37.5t-14.5 53q0 28 14 51t39.5 36t58.5 13q55 0 88 -34t33 -97q0 -75 -52.5 -129.5t-170.5 -63.5v71zM157 0v1051h208v-164h7q44 88 129 137.5t198 49.5q118 0 202.5 -49t129 -143t44.5 -228v-654h-208
v628q0 126 -61 195t-171 69q-83 0 -144 -37.5t-93.5 -102.5t-32.5 -145v-607h-208z" />
    <glyph glyph-name="eng" unicode="&#x14b;" horiz-adv-x="1210" 
d="M705 -389v156h68q44 0 69 29.5t25 88.5v743q0 126 -61 195t-171 69q-83 0 -144 -37.5t-93.5 -102.5t-32.5 -145v-607h-208v1051h208v-164h7q45 88 129 137.5t198 49.5q118 0 202.5 -49t129 -143t44.5 -228v-764q0 -93 -34.5 -155.5t-99.5 -93t-158 -30.5h-78z" />
    <glyph glyph-name="ntilde" unicode="&#xf1;" horiz-adv-x="1210" 
d="M953 1443q0 -122 -52 -185t-141 -63q-49 0 -81.5 18t-72.5 53q-30 27 -52.5 41t-51.5 14q-42 0 -65 -30.5t-24 -93.5h-107q1 123 54 185.5t144 62.5q49 0 82.5 -18.5t73.5 -53.5q31 -28 52 -40.5t48 -12.5q41 0 63 30.5t23 92.5h107zM157 0v1051h208v-164h7
q44 88 129 137.5t198 49.5q118 0 202.5 -49t129 -143t44.5 -228v-654h-208v628q0 126 -61 195t-171 69q-83 0 -144 -37.5t-93.5 -102.5t-32.5 -145v-607h-208z" />
    <glyph glyph-name="o" unicode="o" horiz-adv-x="1222" 
d="M611 -23q-148 0 -266 67.5t-184.5 192.5t-66.5 287q0 164 65.5 288.5t184 193t268.5 68.5t267.5 -68t183 -192.5t65.5 -289.5q0 -164 -66.5 -288t-184 -191.5t-266.5 -67.5zM611 150q89 0 158.5 44.5t109 129t39.5 200.5q0 117 -39 201.5t-108.5 129.5t-159.5 45
q-89 0 -159 -45t-109.5 -129.5t-39.5 -201.5q0 -116 40 -200t110 -129t158 -45z" />
    <glyph glyph-name="oacute" unicode="&#xf3;" horiz-adv-x="1222" 
d="M532 1189l142 294h216l-200 -294h-158zM611 -23q-148 0 -266 67.5t-184.5 192.5t-66.5 287q0 164 65.5 288.5t184 193t268.5 68.5t267.5 -68t183 -192.5t65.5 -289.5q0 -164 -66.5 -288t-184 -191.5t-266.5 -67.5zM611 150q89 0 158.5 44.5t109 129t39.5 200.5
q0 117 -39 201.5t-108.5 129.5t-159.5 45q-89 0 -159 -45t-109.5 -129.5t-39.5 -201.5q0 -116 40 -200t110 -129t158 -45z" />
    <glyph glyph-name="obreve" unicode="&#x14f;" horiz-adv-x="1222" 
d="M612 1187q-86 0 -150.5 34t-100 94.5t-37.5 139.5h139q2 -65 41.5 -105t107.5 -40q70 0 110.5 40t41.5 105h138q-1 -79 -37 -139.5t-100.5 -94.5t-152.5 -34zM611 -23q-148 0 -266 67.5t-184.5 192.5t-66.5 287q0 164 65.5 288.5t184 193t268.5 68.5t267.5 -68
t183 -192.5t65.5 -289.5q0 -164 -66.5 -288t-184 -191.5t-266.5 -67.5zM611 150q89 0 158.5 44.5t109 129t39.5 200.5q0 117 -39 201.5t-108.5 129.5t-159.5 45q-89 0 -159 -45t-109.5 -129.5t-39.5 -201.5q0 -116 40 -200t110 -129t158 -45z" />
    <glyph glyph-name="ocircumflex" unicode="&#xf4;" horiz-adv-x="1222" 
d="M713 1450l225 -261h-178l-149 163l-150 -163h-177l226 261h203zM611 -23q-148 0 -266 67.5t-184.5 192.5t-66.5 287q0 164 65.5 288.5t184 193t268.5 68.5t267.5 -68t183 -192.5t65.5 -289.5q0 -164 -66.5 -288t-184 -191.5t-266.5 -67.5zM611 150q89 0 158.5 44.5
t109 129t39.5 200.5q0 117 -39 201.5t-108.5 129.5t-159.5 45q-89 0 -159 -45t-109.5 -129.5t-39.5 -201.5q0 -116 40 -200t110 -129t158 -45z" />
    <glyph glyph-name="odieresis" unicode="&#xf6;" horiz-adv-x="1222" 
d="M433 1215q-30 0 -55 14.5t-39.5 39.5t-14.5 55q0 31 14.5 56t39.5 39t55 14q31 0 56 -14t39.5 -39t14.5 -56q0 -30 -14.5 -55t-40 -39.5t-55.5 -14.5zM792 1215q-30 0 -55.5 14.5t-40 39.5t-14.5 55q0 31 14.5 56t40 39t55.5 14q31 0 55.5 -14t38.5 -39t14 -56
q0 -30 -14 -55t-39 -39.5t-55 -14.5zM611 -23q-148 0 -266 67.5t-184.5 192.5t-66.5 287q0 164 65.5 288.5t184 193t268.5 68.5t267.5 -68t183 -192.5t65.5 -289.5q0 -164 -66.5 -288t-184 -191.5t-266.5 -67.5zM611 150q89 0 158.5 44.5t109 129t39.5 200.5
q0 117 -39 201.5t-108.5 129.5t-159.5 45q-89 0 -159 -45t-109.5 -129.5t-39.5 -201.5q0 -116 40 -200t110 -129t158 -45z" />
    <glyph glyph-name="ograve" unicode="&#xf2;" horiz-adv-x="1222" 
d="M687 1189h-158l-200 294h217zM611 -23q-148 0 -266 67.5t-184.5 192.5t-66.5 287q0 164 65.5 288.5t184 193t268.5 68.5t267.5 -68t183 -192.5t65.5 -289.5q0 -164 -66.5 -288t-184 -191.5t-266.5 -67.5zM611 150q89 0 158.5 44.5t109 129t39.5 200.5q0 117 -39 201.5
t-108.5 129.5t-159.5 45q-89 0 -159 -45t-109.5 -129.5t-39.5 -201.5q0 -116 40 -200t110 -129t158 -45z" />
    <glyph glyph-name="ohungarumlaut" unicode="&#x151;" horiz-adv-x="1222" 
d="M376 1189l142 294h199l-200 -294h-141zM683 1189l141 294h199l-200 -294h-140zM611 -23q-148 0 -266 67.5t-184.5 192.5t-66.5 287q0 164 65.5 288.5t184 193t268.5 68.5t267.5 -68t183 -192.5t65.5 -289.5q0 -164 -66.5 -288t-184 -191.5t-266.5 -67.5zM611 150
q89 0 158.5 44.5t109 129t39.5 200.5q0 117 -39 201.5t-108.5 129.5t-159.5 45q-89 0 -159 -45t-109.5 -129.5t-39.5 -201.5q0 -116 40 -200t110 -129t158 -45z" />
    <glyph glyph-name="omacron" unicode="&#x14d;" horiz-adv-x="1222" 
d="M298 1259v131h627v-131h-627zM611 -23q-148 0 -266 67.5t-184.5 192.5t-66.5 287q0 164 65.5 288.5t184 193t268.5 68.5t267.5 -68t183 -192.5t65.5 -289.5q0 -164 -66.5 -288t-184 -191.5t-266.5 -67.5zM611 150q89 0 158.5 44.5t109 129t39.5 200.5q0 117 -39 201.5
t-108.5 129.5t-159.5 45q-89 0 -159 -45t-109.5 -129.5t-39.5 -201.5q0 -116 40 -200t110 -129t158 -45z" />
    <glyph glyph-name="oslash" unicode="&#xf8;" horiz-adv-x="1222" 
d="M207 -36l-97 80l906 1029l97 -81zM611 -23q-148 0 -266 67.5t-184.5 192.5t-66.5 287q0 164 65.5 288.5t184 193t268.5 68.5t267.5 -68t183 -192.5t65.5 -289.5q0 -164 -66.5 -288t-184 -191.5t-266.5 -67.5zM611 150q89 0 158.5 44.5t109 129t39.5 200.5
q0 117 -39 201.5t-108.5 129.5t-159.5 45q-89 0 -159 -45t-109.5 -129.5t-39.5 -201.5q0 -116 40 -200t110 -129t158 -45z" />
    <glyph glyph-name="oslashacute" unicode="&#x1ff;" horiz-adv-x="1222" 
d="M532 1189l142 294h216l-200 -294h-158zM611 -23q-148 0 -266 67.5t-184.5 192.5t-66.5 287q0 164 65.5 288.5t184 193t268.5 68.5t267.5 -68t183 -192.5t65.5 -289.5q0 -164 -66.5 -288t-184 -191.5t-266.5 -67.5zM611 150q89 0 158.5 44.5t109 129t39.5 200.5
q0 117 -39 201.5t-108.5 129.5t-159.5 45q-89 0 -159 -45t-109.5 -129.5t-39.5 -201.5q0 -116 40 -200t110 -129t158 -45zM207 -36l-97 80l906 1029l97 -81z" />
    <glyph glyph-name="otilde" unicode="&#xf5;" horiz-adv-x="1222" 
d="M940 1444q0 -122 -52 -185t-140 -63q-50 0 -82.5 18t-71.5 53q-31 27 -53.5 41t-51.5 14q-42 0 -65 -31t-24 -93h-106q1 123 53.5 185.5t143.5 62.5q49 0 82.5 -18.5t73.5 -53.5q31 -28 52.5 -40.5t48.5 -12.5q41 0 62.5 30.5t22.5 92.5h107zM611 -23q-148 0 -266 67.5
t-184.5 192.5t-66.5 287q0 164 65.5 288.5t184 193t268.5 68.5t267.5 -68t183 -192.5t65.5 -289.5q0 -164 -66.5 -288t-184 -191.5t-266.5 -67.5zM611 150q89 0 158.5 44.5t109 129t39.5 200.5q0 117 -39 201.5t-108.5 129.5t-159.5 45q-89 0 -159 -45t-109.5 -129.5
t-39.5 -201.5q0 -116 40 -200t110 -129t158 -45z" />
    <glyph glyph-name="oe" unicode="&#x153;" horiz-adv-x="2005" 
d="M612 -23q-147 0 -265.5 67.5t-185 192.5t-66.5 287q0 164 65.5 288.5t183.5 193t269 68.5q87 0 165.5 -24.5t142.5 -70t109 -108.5q41 65 103.5 110t140 69t162.5 24q145 0 252 -64.5t164.5 -182.5t57.5 -274q0 -19 -1 -42t-3 -48h-774q8 -101 48.5 -170.5t107 -102.5
t153.5 -33q101 0 165.5 34t90.5 95h200q-20 -93 -81.5 -163t-157.5 -108t-218 -38q-92 0 -170 25t-138.5 70.5t-102.5 109.5q-44 -64 -108 -110t-143 -70.5t-166 -24.5zM612 154q89 0 158.5 44t109.5 127.5t40 198.5q0 116 -39.5 200.5t-109 128.5t-159.5 44q-89 0 -159 -44
t-109.5 -128.5t-39.5 -200.5q0 -115 40 -198.5t110 -127.5t158 -44zM1707 626q-4 87 -37 152t-93.5 100t-143.5 35q-76 0 -139.5 -30t-105.5 -94t-54 -163h573z" />
    <glyph glyph-name="p" unicode="p" horiz-adv-x="1270" 
d="M723 -23q-73 0 -139.5 21t-120.5 63t-91 103h-7v-553h-208v1439h208v-164h7q34 58 86 100t119 65t145 23q132 0 234 -67.5t158.5 -192.5t56.5 -290q0 -171 -58 -294.5t-160 -188t-230 -64.5zM660 159q87 0 155 44t106.5 126.5t38.5 195.5q0 112 -37.5 194.5t-106 126.5
t-156.5 44q-90 0 -157.5 -46t-104.5 -129t-37 -191q0 -110 37.5 -193t104.5 -127.5t157 -44.5z" />
    <glyph glyph-name="thorn" unicode="&#xfe;" horiz-adv-x="1315" 
d="M749 -23q-83 0 -156 22.5t-129.5 65.5t-90.5 103h-8v-557h-208v1874h208v-606h8q35 60 90.5 104t128 67.5t157.5 23.5q137 0 243 -67.5t165.5 -192t59.5 -291.5q0 -169 -61 -292.5t-167.5 -188.5t-239.5 -65zM683 159q96 0 169.5 45t114 128t40.5 193q0 109 -40.5 192
t-113.5 128.5t-169 45.5t-168 -45t-112 -128.5t-40 -193.5t40 -193t112.5 -127.5t166.5 -44.5z" />
    <glyph glyph-name="q" unicode="q" horiz-adv-x="1270" 
d="M906 -389v553h-8q-37 -61 -91 -103t-120.5 -63t-139.5 -21q-128 0 -230 64.5t-160 188t-58 294.5q0 165 56.5 290t158.5 192.5t234 67.5q78 0 145 -23t119 -65t86 -100h8v164h207v-1439h-207zM611 159q89 0 156.5 44.5t104.5 127.5t37 193q0 108 -36.5 191t-104.5 129
t-158 46q-88 0 -156.5 -44.5t-106 -126.5t-37.5 -194q0 -113 38.5 -195.5t106.5 -126.5t156 -44z" />
    <glyph glyph-name="r" unicode="r" horiz-adv-x="793" 
d="M157 0v1050h208v-197h8q42 101 119.5 152t185.5 51q39 0 54 -3v-197q-12 2 -26 3t-28 1q-94 0 -165 -39t-109.5 -110t-38.5 -166v-545h-208z" />
    <glyph glyph-name="racute" unicode="&#x155;" horiz-adv-x="793" 
d="M365 1189l142 294h216l-200 -294h-158zM157 0v1050h208v-197h8q42 101 119.5 152t185.5 51q39 0 54 -3v-197q-12 2 -26 3t-28 1q-94 0 -165 -39t-109.5 -110t-38.5 -166v-545h-208z" />
    <glyph glyph-name="rcaron" unicode="&#x159;" horiz-adv-x="793" 
d="M545 1190h-203l-226 261h178l150 -163l148 163h179zM157 0v1050h208v-197h8q42 101 119.5 152t185.5 51q39 0 54 -3v-197q-12 2 -26 3t-28 1q-94 0 -165 -39t-109.5 -110t-38.5 -166v-545h-208z" />
    <glyph glyph-name="uni0157" unicode="&#x157;" horiz-adv-x="793" 
d="M154 -357q53 7 78 18t39 33q-6 -2 -15 -2q-32 0 -57.5 13.5t-40 37.5t-14.5 53q0 28 14 51t39.5 36t58.5 13q55 0 88 -34t33 -97q0 -75 -52.5 -129.5t-170.5 -63.5v71zM157 0v1050h208v-197h8q42 101 119.5 152t185.5 51q39 0 54 -3v-197q-12 2 -26 3t-28 1
q-94 0 -165 -39t-109.5 -110t-38.5 -166v-545h-208z" />
    <glyph glyph-name="s" unicode="s" horiz-adv-x="1070" 
d="M538 -24q-206 0 -323 91t-128 259h206q7 -84 70 -133t176 -49q105 0 161.5 38t56.5 101q0 50 -23 79.5t-77 48t-157 37.5q-138 25 -218 61.5t-117 94t-37 143.5q0 96 48 170t141.5 115.5t221.5 41.5q127 0 220 -37t144.5 -108.5t57.5 -170.5h-203q-7 70 -63 109t-156 39
q-64 0 -110 -16.5t-69.5 -46.5t-23.5 -70q0 -46 21.5 -71.5t73.5 -42.5t151 -35q143 -26 226 -62.5t122.5 -95t39.5 -150.5q0 -102 -49.5 -178.5t-146.5 -119t-236 -42.5z" />
    <glyph glyph-name="sacute" unicode="&#x15b;" horiz-adv-x="1070" 
d="M459 1189l142 295h216l-200 -295h-158zM538 -24q-206 0 -323 91t-128 259h206q7 -84 70 -133t176 -49q105 0 161.5 38t56.5 101q0 50 -23 79.5t-77 48t-157 37.5q-138 25 -218 61.5t-117 94t-37 143.5q0 96 48 170t141.5 115.5t221.5 41.5q127 0 220 -37t144.5 -108.5
t57.5 -170.5h-203q-7 70 -63 109t-156 39q-64 0 -110 -16.5t-69.5 -46.5t-23.5 -70q0 -46 21.5 -71.5t73.5 -42.5t151 -35q143 -26 226 -62.5t122.5 -95t39.5 -150.5q0 -102 -49.5 -178.5t-146.5 -119t-236 -42.5z" />
    <glyph glyph-name="scaron" unicode="&#x161;" horiz-adv-x="1070" 
d="M639 1190h-203l-226 261h178l149 -163l149 163h179zM538 -24q-206 0 -323 91t-128 259h206q7 -84 70 -133t176 -49q105 0 161.5 38t56.5 101q0 50 -23 79.5t-77 48t-157 37.5q-138 25 -218 61.5t-117 94t-37 143.5q0 96 48 170t141.5 115.5t221.5 41.5q127 0 220 -37
t144.5 -108.5t57.5 -170.5h-203q-7 70 -63 109t-156 39q-64 0 -110 -16.5t-69.5 -46.5t-23.5 -70q0 -46 21.5 -71.5t73.5 -42.5t151 -35q143 -26 226 -62.5t122.5 -95t39.5 -150.5q0 -102 -49.5 -178.5t-146.5 -119t-236 -42.5z" />
    <glyph glyph-name="scedilla" unicode="&#x15f;" horiz-adv-x="1070" 
d="M513 -396q-26 0 -59.5 4t-62.5 12v96q26 -7 55 -11t52 -4q45 0 66.5 16t21.5 45q0 30 -21 44.5t-66 14.5h-27.5t-34.5 -1v62l61 147l101 -20l-42 -104q80 -4 120.5 -42.5t40.5 -98.5q0 -70 -50.5 -115t-154.5 -45zM538 -24q-206 0 -323 91t-128 259h206q7 -84 70 -133
t176 -49q105 0 161.5 38t56.5 101q0 50 -23 79.5t-77 48t-157 37.5q-138 25 -218 61.5t-117 94t-37 143.5q0 96 48 170t141.5 115.5t221.5 41.5q127 0 220 -37t144.5 -108.5t57.5 -170.5h-203q-7 70 -63 109t-156 39q-64 0 -110 -16.5t-69.5 -46.5t-23.5 -70
q0 -46 21.5 -71.5t73.5 -42.5t151 -35q143 -26 226 -62.5t122.5 -95t39.5 -150.5q0 -102 -49.5 -178.5t-146.5 -119t-236 -42.5z" />
    <glyph glyph-name="scircumflex" unicode="&#x15d;" horiz-adv-x="1070" 
d="M640 1450l225 -261h-178l-149 163l-150 -163h-177l226 261h203zM538 -24q-206 0 -323 91t-128 259h206q7 -84 70 -133t176 -49q105 0 161.5 38t56.5 101q0 50 -23 79.5t-77 48t-157 37.5q-138 25 -218 61.5t-117 94t-37 143.5q0 96 48 170t141.5 115.5t221.5 41.5
q127 0 220 -37t144.5 -108.5t57.5 -170.5h-203q-7 70 -63 109t-156 39q-64 0 -110 -16.5t-69.5 -46.5t-23.5 -70q0 -46 21.5 -71.5t73.5 -42.5t151 -35q143 -26 226 -62.5t122.5 -95t39.5 -150.5q0 -102 -49.5 -178.5t-146.5 -119t-236 -42.5z" />
    <glyph glyph-name="uni0219" unicode="&#x219;" horiz-adv-x="1070" 
d="M432 -357q53 7 78 18t39 33q-6 -2 -15 -2q-32 0 -57.5 13.5t-40 37.5t-14.5 53q0 28 14 51t39.5 36t58.5 13q55 0 88 -34t33 -97q0 -75 -52.5 -129.5t-170.5 -63.5v71zM538 -24q-206 0 -323 91t-128 259h206q7 -84 70 -133t176 -49q105 0 161.5 38t56.5 101
q0 50 -23 79.5t-77 48t-157 37.5q-138 25 -218 61.5t-117 94t-37 143.5q0 96 48 170t141.5 115.5t221.5 41.5q127 0 220 -37t144.5 -108.5t57.5 -170.5h-203q-7 70 -63 109t-156 39q-64 0 -110 -16.5t-69.5 -46.5t-23.5 -70q0 -46 21.5 -71.5t73.5 -42.5t151 -35
q143 -26 226 -62.5t122.5 -95t39.5 -150.5q0 -102 -49.5 -178.5t-146.5 -119t-236 -42.5z" />
    <glyph glyph-name="germandbls" unicode="&#xdf;" horiz-adv-x="1245" 
d="M715 -23q-45 0 -87 6t-82 17v179q67 -21 136 -21q90 0 150.5 34.5t90.5 92t30 129.5q0 93 -43.5 162t-115.5 105t-156 36h-94v172h85q64 0 116.5 27.5t83 79t30.5 119.5q0 65 -31 112.5t-86.5 72.5t-127.5 25q-80 0 -136 -33.5t-84.5 -93t-28.5 -137.5v-1061h-208v1053
q0 137 57 236t161.5 151t241.5 52q131 0 229.5 -47t152 -129.5t53.5 -186.5q0 -105 -48.5 -184.5t-130.5 -124.5q83 -32 148 -90t102.5 -142.5t37.5 -190.5q0 -125 -55.5 -220.5t-156.5 -147.5t-234 -52z" />
    <glyph glyph-name="longs" unicode="&#x17f;" horiz-adv-x="619" 
d="M583 1496q27 0 56.5 -3t58.5 -9h2v-167q-35 8 -76 8q-86 0 -124 -41.5t-38 -112.5v-1171h-207v874h-196v176h196v122q0 95 35 168t108 114.5t185 41.5z" />
    <glyph glyph-name="t" unicode="t" horiz-adv-x="771" 
d="M548 -13q-113 0 -180.5 37.5t-97 103.5t-29.5 157v589h-182v176h182v277h207v-277h241v-176h-241v-579q0 -60 36.5 -93.5t119.5 -33.5q37 0 83 7v-168q-67 -20 -139 -20z" />
    <glyph glyph-name="tbar" unicode="&#x167;" horiz-adv-x="771" 
d="M548 -13q-113 0 -180.5 37.5t-97 103.5t-29.5 157v207h-182v131h182v251h-182v176h182v267h207v-267h241v-176h-241v-251h241v-131h-241v-197q0 -60 36.5 -93.5t119.5 -33.5q37 0 83 7v-168q-67 -20 -139 -20z" />
    <glyph glyph-name="tcaron" unicode="&#x165;" horiz-adv-x="771" 
d="M578 1161l46 361h191l-104 -361h-133zM548 -13q-113 0 -180.5 37.5t-97 103.5t-29.5 157v589h-182v176h182v277h207v-277h241v-176h-241v-579q0 -60 36.5 -93.5t119.5 -33.5q37 0 83 7v-168q-67 -20 -139 -20z" />
    <glyph glyph-name="uni0163" unicode="&#x163;" horiz-adv-x="771" 
d="M453 -396q-26 0 -59.5 4t-63.5 12v96q27 -7 56 -11t52 -4q45 0 66.5 16t21.5 45q0 30 -21 44.5t-67 14.5h-27t-34 -1v62l61 147l101 -20l-42 -104q80 -4 120 -42.5t40 -98.5q0 -70 -50 -115t-154 -45zM548 -13q-113 0 -180.5 37.5t-97 103.5t-29.5 157v589h-182v176h182
v277h207v-277h241v-176h-241v-579q0 -60 36.5 -93.5t119.5 -33.5q37 0 83 7v-168q-67 -20 -139 -20z" />
    <glyph glyph-name="uni021B" unicode="&#x21b;" horiz-adv-x="771" 
d="M372 -357q52 7 77.5 18t38.5 33q-6 -2 -15 -2q-31 0 -57 13.5t-40.5 37.5t-14.5 53q0 28 14 51t40 36t58 13q56 0 88.5 -34t32.5 -97q0 -75 -52 -129.5t-170 -63.5v71zM548 -13q-113 0 -180.5 37.5t-97 103.5t-29.5 157v589h-182v176h182v277h207v-277h241v-176h-241
v-579q0 -60 36.5 -93.5t119.5 -33.5q37 0 83 7v-168q-67 -20 -139 -20z" />
    <glyph glyph-name="uacute" unicode="&#xfa;" horiz-adv-x="1210" 
d="M512 1189l142 294h215l-199 -294h-158zM511 -24q-118 0 -202.5 49.5t-129 143t-44.5 227.5v654h208v-627q0 -127 61 -195.5t171 -68.5q83 0 144 37.5t94 102.5t33 145v606h207v-1050h-207v163h-8q-44 -88 -129 -137.5t-198 -49.5z" />
    <glyph glyph-name="ubreve" unicode="&#x16d;" horiz-adv-x="1210" 
d="M592 1187q-86 0 -151 34t-100 94.5t-37 139.5h139q1 -65 41 -105t108 -40q69 0 110 40t42 105h138q-2 -79 -37.5 -139.5t-100.5 -94.5t-152 -34zM511 -24q-118 0 -202.5 49.5t-129 143t-44.5 227.5v654h208v-627q0 -127 61 -195.5t171 -68.5q83 0 144 37.5t94 102.5
t33 145v606h207v-1050h-207v163h-8q-44 -88 -129 -137.5t-198 -49.5z" />
    <glyph glyph-name="ucircumflex" unicode="&#xfb;" horiz-adv-x="1210" 
d="M693 1450l225 -261h-178l-149 163l-150 -163h-177l225 261h204zM511 -24q-118 0 -202.5 49.5t-129 143t-44.5 227.5v654h208v-627q0 -127 61 -195.5t171 -68.5q83 0 144 37.5t94 102.5t33 145v606h207v-1050h-207v163h-8q-44 -88 -129 -137.5t-198 -49.5z" />
    <glyph glyph-name="udieresis" unicode="&#xfc;" horiz-adv-x="1210" 
d="M413 1215q-30 0 -55 14.5t-40 39.5t-15 55q0 31 15 56t40 39t55 14q31 0 55.5 -14t39 -39t14.5 -56q0 -30 -14.5 -55t-39.5 -39.5t-55 -14.5zM772 1215q-30 0 -55.5 14.5t-40 39.5t-14.5 55q0 31 14.5 56t40 39t55.5 14q31 0 55.5 -14t38.5 -39t14 -56q0 -30 -14 -55
t-39 -39.5t-55 -14.5zM511 -24q-118 0 -202.5 49.5t-129 143t-44.5 227.5v654h208v-627q0 -127 61 -195.5t171 -68.5q83 0 144 37.5t94 102.5t33 145v606h207v-1050h-207v163h-8q-44 -88 -129 -137.5t-198 -49.5z" />
    <glyph glyph-name="ugrave" unicode="&#xf9;" horiz-adv-x="1210" 
d="M666 1189h-158l-199 294h217zM511 -24q-118 0 -202.5 49.5t-129 143t-44.5 227.5v654h208v-627q0 -127 61 -195.5t171 -68.5q83 0 144 37.5t94 102.5t33 145v606h207v-1050h-207v163h-8q-44 -88 -129 -137.5t-198 -49.5z" />
    <glyph glyph-name="uhungarumlaut" unicode="&#x171;" horiz-adv-x="1210" 
d="M356 1189l141 294h199l-199 -294h-141zM663 1189l140 294h199l-199 -294h-140zM511 -24q-118 0 -202.5 49.5t-129 143t-44.5 227.5v654h208v-627q0 -127 61 -195.5t171 -68.5q83 0 144 37.5t94 102.5t33 145v606h207v-1050h-207v163h-8q-44 -88 -129 -137.5t-198 -49.5z
" />
    <glyph glyph-name="umacron" unicode="&#x16b;" horiz-adv-x="1210" 
d="M277 1259v131h628v-131h-628zM511 -24q-118 0 -202.5 49.5t-129 143t-44.5 227.5v654h208v-627q0 -127 61 -195.5t171 -68.5q83 0 144 37.5t94 102.5t33 145v606h207v-1050h-207v163h-8q-44 -88 -129 -137.5t-198 -49.5z" />
    <glyph glyph-name="uogonek" unicode="&#x173;" horiz-adv-x="1210" 
d="M719 -230q0 82 56 146t144 108l136 -24q-86 -41 -129 -92t-43 -109q0 -54 39 -81.5t108 -24.5v-107q-84 -10 -155.5 9t-113.5 64t-42 111zM511 -24q-118 0 -202.5 49.5t-129 143t-44.5 227.5v654h208v-627q0 -127 61 -195.5t171 -68.5q83 0 144 37.5t94 102.5t33 145v606
h207v-1050h-207v163h-8q-44 -88 -129 -137.5t-198 -49.5z" />
    <glyph glyph-name="uring" unicode="&#x16f;" horiz-adv-x="1210" 
d="M591 1187q-53 0 -95.5 23.5t-67 65.5t-24.5 95t24.5 95.5t67 66t95.5 23.5t96 -23.5t67 -66t24 -95.5t-24 -95t-67 -65.5t-96 -23.5zM591 1275q42 0 69 27t27 69t-27 69t-69 27t-69 -27t-27 -69t27 -69t69 -27zM511 -24q-118 0 -202.5 49.5t-129 143t-44.5 227.5v654h208
v-627q0 -127 61 -195.5t171 -68.5q83 0 144 37.5t94 102.5t33 145v606h207v-1050h-207v163h-8q-44 -88 -129 -137.5t-198 -49.5z" />
    <glyph glyph-name="utilde" unicode="&#x169;" horiz-adv-x="1210" 
d="M920 1444q0 -122 -52 -185t-141 -63q-49 0 -81.5 18t-71.5 53q-31 27 -53.5 41t-51.5 14q-42 0 -65 -31t-24 -93h-107q1 123 54 185.5t144 62.5q49 0 82.5 -18.5t73.5 -53.5q31 -28 52 -40.5t48 -12.5q41 0 63 30.5t23 92.5h107zM511 -24q-118 0 -202.5 49.5t-129 143
t-44.5 227.5v654h208v-627q0 -127 61 -195.5t171 -68.5q83 0 144 37.5t94 102.5t33 145v606h207v-1050h-207v163h-8q-44 -88 -129 -137.5t-198 -49.5z" />
    <glyph glyph-name="v" unicode="v" horiz-adv-x="1117" 
d="M461 0l-407 1050h213l227 -634q19 -54 35.5 -108t27.5 -98h8q12 44 28 98t35 108l222 634h213l-400 -1050h-202z" />
    <glyph glyph-name="w" unicode="w" horiz-adv-x="1654" 
d="M401 0l-343 1050h206l198 -635q12 -40 22.5 -85t17.5 -82h8q8 37 18.5 80t23.5 87l192 635h166l195 -634q24 -80 41 -168h9q7 37 17 80.5t23 87.5l195 634h206l-340 -1050h-195l-187 598q-24 78 -42 161h-10q-16 -83 -40 -161l-186 -598h-195z" />
    <glyph glyph-name="wacute" unicode="&#x1e83;" horiz-adv-x="1654" 
d="M748 1189l141 294h216l-199 -294h-158zM401 0l-343 1050h206l198 -635q12 -40 22.5 -85t17.5 -82h8q8 37 18.5 80t23.5 87l192 635h166l195 -634q24 -80 41 -168h9q7 37 17 80.5t23 87.5l195 634h206l-340 -1050h-195l-187 598q-24 78 -42 161h-10q-16 -83 -40 -161
l-186 -598h-195z" />
    <glyph glyph-name="wcircumflex" unicode="&#x175;" horiz-adv-x="1654" 
d="M928 1450l226 -261h-178l-149 163l-150 -163h-177l225 261h203zM401 0l-343 1050h206l198 -635q12 -40 22.5 -85t17.5 -82h8q8 37 18.5 80t23.5 87l192 635h166l195 -634q24 -80 41 -168h9q7 37 17 80.5t23 87.5l195 634h206l-340 -1050h-195l-187 598q-24 78 -42 161
h-10q-16 -83 -40 -161l-186 -598h-195z" />
    <glyph glyph-name="wdieresis" unicode="&#x1e85;" horiz-adv-x="1654" 
d="M649 1215q-30 0 -55.5 14.5t-40 39.5t-14.5 55q0 31 14.5 56t40 39t55.5 14q31 0 55.5 -14t39 -39t14.5 -56q0 -30 -14.5 -55t-39.5 -39.5t-55 -14.5zM1007 1215q-30 0 -55 14.5t-39.5 39.5t-14.5 55q0 31 14.5 56t39.5 39t55 14q31 0 56 -14t39 -39t14 -56
q0 -30 -14 -55t-39.5 -39.5t-55.5 -14.5zM401 0l-343 1050h206l198 -635q12 -40 22.5 -85t17.5 -82h8q8 37 18.5 80t23.5 87l192 635h166l195 -634q24 -80 41 -168h9q7 37 17 80.5t23 87.5l195 634h206l-340 -1050h-195l-187 598q-24 78 -42 161h-10q-16 -83 -40 -161
l-186 -598h-195z" />
    <glyph glyph-name="wgrave" unicode="&#x1e81;" horiz-adv-x="1654" 
d="M902 1189h-158l-199 294h216zM401 0l-343 1050h206l198 -635q12 -40 22.5 -85t17.5 -82h8q8 37 18.5 80t23.5 87l192 635h166l195 -634q24 -80 41 -168h9q7 37 17 80.5t23 87.5l195 634h206l-340 -1050h-195l-187 598q-24 78 -42 161h-10q-16 -83 -40 -161l-186 -598
h-195z" />
    <glyph glyph-name="x" unicode="x" horiz-adv-x="1137" 
d="M56 0l377 523l-378 527h236l237 -347q10 -14 19 -30t16 -29h10q7 13 16 29t19 30l238 347h235l-378 -527l379 -523h-233l-243 349q-17 27 -33 54h-10q-16 -26 -33 -54l-241 -349h-233z" />
    <glyph glyph-name="uni1E8B" unicode="&#x1e8b;" horiz-adv-x="1137" 
d="M568 1204q-36 0 -65.5 17t-46.5 46t-17 66t17 66.5t46.5 46t65.5 16.5q38 0 67 -16.5t45.5 -45.5t16.5 -67q0 -37 -16.5 -66t-46 -46t-66.5 -17zM56 0l377 523l-378 527h236l237 -347q10 -14 19 -30t16 -29h10q7 13 16 29t19 30l238 347h235l-378 -527l379 -523h-233
l-243 349q-17 27 -33 54h-10q-16 -26 -33 -54l-241 -349h-233z" />
    <glyph glyph-name="z" unicode="z" horiz-adv-x="1014" 
d="M90 0v172l513 607q20 24 41 46.5t37 39.5v8h-588v177h828v-177l-512 -601q-20 -24 -40.5 -46.5t-39.5 -40.5v-8h594v-177h-833z" />
    <glyph glyph-name="zacute" unicode="&#x17a;" horiz-adv-x="1018" 
d="M430 1189l141 294h216l-199 -294h-158zM90 0v172l517 607q20 24 41 46.5t37 39.5v8h-592v177h832v-177l-515 -601q-20 -24 -41 -46.5t-40 -40.5v-8h598v-177h-837z" />
    <glyph glyph-name="zcaron" unicode="&#x17e;" horiz-adv-x="1018" 
d="M610 1190h-204l-225 261h177l150 -163l149 163h178zM90 0v172l517 607q20 24 41 46.5t37 39.5v8h-592v177h832v-177l-515 -601q-20 -24 -41 -46.5t-40 -40.5v-8h598v-177h-837z" />
    <glyph glyph-name="zdotaccent" unicode="&#x17c;" horiz-adv-x="1018" 
d="M509 1204q-37 0 -66 17t-46 46t-17 66t17 66.5t46 46t66 16.5q38 0 67 -16.5t45.5 -45.5t16.5 -67q0 -37 -16.5 -66t-46 -46t-66.5 -17zM90 0v172l517 607q20 24 41 46.5t37 39.5v8h-592v177h832v-177l-515 -601q-20 -24 -41 -46.5t-40 -40.5v-8h598v-177h-837z" />
    <glyph glyph-name="h" unicode="h" horiz-adv-x="1210" 
d="M157 0v1485h208v-617h7q48 98 137 152t210 54q112 0 192 -47t122 -137t42 -218v-672h-207v642q0 119 -57 184.5t-162 65.5q-83 0 -146 -44t-98 -117.5t-40 -165.5v-565h-208z" />
    <glyph glyph-name="m" unicode="m" horiz-adv-x="1822" 
d="M157 0v1051h208v-144h7q46 78 128.5 122.5t192.5 44.5t186.5 -47t112.5 -134h6q54 84 141 132.5t204 48.5q108 0 185.5 -43t117.5 -127t40 -204v-700h-207v673q0 102 -50 160.5t-144 58.5q-80 0 -140 -43t-90 -115.5t-30 -161.5v-572h-207v673q0 102 -50 160.5t-144 58.5
q-81 0 -140.5 -43t-89 -115.5t-29.5 -161.5v-572h-208z" />
    <glyph glyph-name="n" unicode="n" horiz-adv-x="1211" 
d="M157 0v1051h208v-183h7q48 97 137.5 151.5t210.5 54.5q112 0 192 -47t122 -137t42 -218v-672h-207v642q0 119 -57.5 184.5t-161.5 65.5q-88 0 -153 -48.5t-98.5 -130t-33.5 -179.5v-534h-208z" />
    <glyph glyph-name="u" unicode="u" horiz-adv-x="1211" 
d="M1054 1051v-1051h-208v183h-7q-48 -97 -137.5 -151.5t-210.5 -54.5q-112 0 -192 47t-122 137t-42 218v672h207v-642q0 -119 57.5 -184.5t161.5 -65.5q88 0 153 48.5t98.5 130t33.5 179.5v534h208z" />
    <glyph glyph-name="y" unicode="y" horiz-adv-x="1218" 
d="M584 -412q-121 0 -218 30.5t-157.5 91.5t-73.5 150h212q16 -50 84 -76.5t160 -26.5q90 0 149 34.5t86.5 88.5t27.5 119v215h-8q-45 -89 -130 -138t-200 -49q-120 0 -206 49t-131.5 143t-45.5 228v603h207v-577q0 -127 62.5 -195.5t175.5 -68.5q85 0 147.5 38t95.5 102.5
t33 144.5v556h207v-1028q0 -131 -57 -229.5t-164.5 -151.5t-255.5 -53z" />
    <glyph glyph-name="yacute" unicode="&#xfd;" horiz-adv-x="1223" 
d="M518 1189l141 294h216l-199 -294h-158zM586 -412q-121 0 -218.5 30.5t-158.5 91.5t-74 150h212q16 -50 85 -76.5t161 -26.5q91 0 151 34.5t87.5 88.5t27.5 119v215h-8q-46 -89 -131.5 -138t-202.5 -49q-120 0 -206.5 49t-132 143t-45.5 228v603h207v-577
q0 -127 63 -195.5t177 -68.5q85 0 148.5 38t97 102.5t33.5 144.5v556h207v-1028q0 -131 -57.5 -229.5t-165.5 -151.5t-257 -53z" />
    <glyph glyph-name="ycircumflex" unicode="&#x177;" horiz-adv-x="1223" 
d="M699 1450l225 -261h-178l-149 163l-150 -163h-177l225 261h204zM586 -412q-121 0 -218.5 30.5t-158.5 91.5t-74 150h212q16 -50 85 -76.5t161 -26.5q91 0 151 34.5t87.5 88.5t27.5 119v215h-8q-46 -89 -131.5 -138t-202.5 -49q-120 0 -206.5 49t-132 143t-45.5 228v603
h207v-577q0 -127 63 -195.5t177 -68.5q85 0 148.5 38t97 102.5t33.5 144.5v556h207v-1028q0 -131 -57.5 -229.5t-165.5 -151.5t-257 -53z" />
    <glyph glyph-name="ydieresis" unicode="&#xff;" horiz-adv-x="1223" 
d="M419 1215q-30 0 -55.5 14.5t-40 39.5t-14.5 55q0 31 14.5 56t40 39t55.5 14q31 0 55.5 -14t39 -39t14.5 -56q0 -30 -14.5 -55t-39.5 -39.5t-55 -14.5zM777 1215q-30 0 -55 14.5t-39.5 39.5t-14.5 55q0 31 14.5 56t39.5 39t55 14q31 0 56 -14t39 -39t14 -56q0 -30 -14 -55
t-39.5 -39.5t-55.5 -14.5zM586 -412q-121 0 -218.5 30.5t-158.5 91.5t-74 150h212q16 -50 85 -76.5t161 -26.5q91 0 151 34.5t87.5 88.5t27.5 119v215h-8q-46 -89 -131.5 -138t-202.5 -49q-120 0 -206.5 49t-132 143t-45.5 228v603h207v-577q0 -127 63 -195.5t177 -68.5
q85 0 148.5 38t97 102.5t33.5 144.5v556h207v-1028q0 -131 -57.5 -229.5t-165.5 -151.5t-257 -53z" />
    <glyph glyph-name="ygrave" unicode="&#x1ef3;" horiz-adv-x="1223" 
d="M672 1189h-158l-199 294h217zM586 -412q-121 0 -218.5 30.5t-158.5 91.5t-74 150h212q16 -50 85 -76.5t161 -26.5q91 0 151 34.5t87.5 88.5t27.5 119v215h-8q-46 -89 -131.5 -138t-202.5 -49q-120 0 -206.5 49t-132 143t-45.5 228v603h207v-577q0 -127 63 -195.5
t177 -68.5q85 0 148.5 38t97 102.5t33.5 144.5v556h207v-1028q0 -131 -57.5 -229.5t-165.5 -151.5t-257 -53z" />
    <glyph glyph-name="a" unicode="a" horiz-adv-x="1103" 
d="M423 -19q-101 0 -177 38t-116 108.5t-40 163.5q0 135 85.5 209.5t243.5 98.5l249 37q38 5 59.5 13.5t32 25t10.5 43.5q0 54 -27 95.5t-78.5 63.5t-122.5 22q-66 0 -116 -18.5t-78.5 -53.5t-33.5 -83h-201q9 101 63.5 175.5t148.5 114.5t218 40q134 0 230.5 -44
t147.5 -124.5t51 -188.5v-481q0 -35 14.5 -54t49.5 -19q7 0 39 4v-162l-1 -0.5t-2 -0.5q-18 -5 -44 -9.5t-56 -4.5q-101 0 -151.5 53.5t-50.5 149.5v12l12 -28h-19q-46 -93 -133 -144.5t-207 -51.5zM480 146q93 0 158.5 44t98.5 118t33 160v49q-16 -11 -39 -18.5t-59 -13.5
l-227 -34q-67 -10 -108.5 -46t-41.5 -103q0 -48 22.5 -83t64.5 -54t98 -19z" />
    <glyph glyph-name="aacute" unicode="&#xe1;" horiz-adv-x="1103" 
d="M466 1189l141 295h216l-199 -295h-158zM423 -19q-101 0 -177 38t-116 108.5t-40 163.5q0 135 85.5 209.5t243.5 98.5l249 37q38 5 59.5 13.5t32 25t10.5 43.5q0 54 -27 95.5t-78.5 63.5t-122.5 22q-66 0 -116 -18.5t-78.5 -53.5t-33.5 -83h-201q9 101 63.5 175.5
t148.5 114.5t218 40q134 0 230.5 -44t147.5 -124.5t51 -188.5v-481q0 -35 14.5 -54t49.5 -19q7 0 39 4v-162l-1 -0.5t-2 -0.5q-18 -5 -44 -9.5t-56 -4.5q-101 0 -151.5 53.5t-50.5 149.5v12l12 -28h-19q-46 -93 -133 -144.5t-207 -51.5zM480 146q93 0 158.5 44t98.5 118
t33 160v49q-16 -11 -39 -18.5t-59 -13.5l-227 -34q-67 -10 -108.5 -46t-41.5 -103q0 -48 22.5 -83t64.5 -54t98 -19z" />
    <glyph glyph-name="abreve" unicode="&#x103;" horiz-adv-x="1103" 
d="M545 1187q-86 0 -150.5 34t-100 94.5t-37.5 139.5h139q2 -64 41.5 -104.5t107.5 -40.5q70 0 110.5 40.5t41.5 104.5h139q-2 -79 -38 -139.5t-100.5 -94.5t-152.5 -34zM423 -19q-101 0 -177 38t-116 108.5t-40 163.5q0 135 85.5 209.5t243.5 98.5l249 37q38 5 59.5 13.5
t32 25t10.5 43.5q0 54 -27 95.5t-78.5 63.5t-122.5 22q-66 0 -116 -18.5t-78.5 -53.5t-33.5 -83h-201q9 101 63.5 175.5t148.5 114.5t218 40q134 0 230.5 -44t147.5 -124.5t51 -188.5v-481q0 -35 14.5 -54t49.5 -19q7 0 39 4v-162l-1 -0.5t-2 -0.5q-18 -5 -44 -9.5t-56 -4.5
q-101 0 -151.5 53.5t-50.5 149.5v12l12 -28h-19q-46 -93 -133 -144.5t-207 -51.5zM480 146q93 0 158.5 44t98.5 118t33 160v49q-16 -11 -39 -18.5t-59 -13.5l-227 -34q-67 -10 -108.5 -46t-41.5 -103q0 -48 22.5 -83t64.5 -54t98 -19z" />
    <glyph glyph-name="acircumflex" unicode="&#xe2;" horiz-adv-x="1103" 
d="M646 1450l226 -261h-179l-148 163l-150 -163h-178l226 261h203zM423 -19q-101 0 -177 38t-116 108.5t-40 163.5q0 135 85.5 209.5t243.5 98.5l249 37q38 5 59.5 13.5t32 25t10.5 43.5q0 54 -27 95.5t-78.5 63.5t-122.5 22q-66 0 -116 -18.5t-78.5 -53.5t-33.5 -83h-201
q9 101 63.5 175.5t148.5 114.5t218 40q134 0 230.5 -44t147.5 -124.5t51 -188.5v-481q0 -35 14.5 -54t49.5 -19q7 0 39 4v-162l-1 -0.5t-2 -0.5q-18 -5 -44 -9.5t-56 -4.5q-101 0 -151.5 53.5t-50.5 149.5v12l12 -28h-19q-46 -93 -133 -144.5t-207 -51.5zM480 146
q93 0 158.5 44t98.5 118t33 160v49q-16 -11 -39 -18.5t-59 -13.5l-227 -34q-67 -10 -108.5 -46t-41.5 -103q0 -48 22.5 -83t64.5 -54t98 -19z" />
    <glyph glyph-name="adieresis" unicode="&#xe4;" horiz-adv-x="1103" 
d="M366 1216q-30 0 -55 14.5t-39.5 39t-14.5 54.5q0 31 14.5 56t39.5 39.5t55 14.5q31 0 56 -14.5t39.5 -39.5t14.5 -56q0 -30 -14.5 -54.5t-40 -39t-55.5 -14.5zM725 1216q-30 0 -55 14.5t-40 39t-15 54.5q0 31 15 56t40 39.5t55 14.5q31 0 55.5 -14.5t38.5 -39.5t14 -56
q0 -30 -14 -54.5t-39 -39t-55 -14.5zM423 -19q-101 0 -177 38t-116 108.5t-40 163.5q0 135 85.5 209.5t243.5 98.5l249 37q38 5 59.5 13.5t32 25t10.5 43.5q0 54 -27 95.5t-78.5 63.5t-122.5 22q-66 0 -116 -18.5t-78.5 -53.5t-33.5 -83h-201q9 101 63.5 175.5t148.5 114.5
t218 40q134 0 230.5 -44t147.5 -124.5t51 -188.5v-481q0 -35 14.5 -54t49.5 -19q7 0 39 4v-162l-1 -0.5t-2 -0.5q-18 -5 -44 -9.5t-56 -4.5q-101 0 -151.5 53.5t-50.5 149.5v12l12 -28h-19q-46 -93 -133 -144.5t-207 -51.5zM480 146q93 0 158.5 44t98.5 118t33 160v49
q-16 -11 -39 -18.5t-59 -13.5l-227 -34q-67 -10 -108.5 -46t-41.5 -103q0 -48 22.5 -83t64.5 -54t98 -19z" />
    <glyph glyph-name="agrave" unicode="&#xe0;" horiz-adv-x="1103" 
d="M620 1189h-158l-200 295h217zM423 -19q-101 0 -177 38t-116 108.5t-40 163.5q0 135 85.5 209.5t243.5 98.5l249 37q38 5 59.5 13.5t32 25t10.5 43.5q0 54 -27 95.5t-78.5 63.5t-122.5 22q-66 0 -116 -18.5t-78.5 -53.5t-33.5 -83h-201q9 101 63.5 175.5t148.5 114.5
t218 40q134 0 230.5 -44t147.5 -124.5t51 -188.5v-481q0 -35 14.5 -54t49.5 -19q7 0 39 4v-162l-1 -0.5t-2 -0.5q-18 -5 -44 -9.5t-56 -4.5q-101 0 -151.5 53.5t-50.5 149.5v12l12 -28h-19q-46 -93 -133 -144.5t-207 -51.5zM480 146q93 0 158.5 44t98.5 118t33 160v49
q-16 -11 -39 -18.5t-59 -13.5l-227 -34q-67 -10 -108.5 -46t-41.5 -103q0 -48 22.5 -83t64.5 -54t98 -19z" />
    <glyph glyph-name="amacron" unicode="&#x101;" horiz-adv-x="1103" 
d="M231 1259v131h627v-131h-627zM423 -19q-101 0 -177 38t-116 108.5t-40 163.5q0 135 85.5 209.5t243.5 98.5l249 37q38 5 59.5 13.5t32 25t10.5 43.5q0 54 -27 95.5t-78.5 63.5t-122.5 22q-66 0 -116 -18.5t-78.5 -53.5t-33.5 -83h-201q9 101 63.5 175.5t148.5 114.5
t218 40q134 0 230.5 -44t147.5 -124.5t51 -188.5v-481q0 -35 14.5 -54t49.5 -19q7 0 39 4v-162l-1 -0.5t-2 -0.5q-18 -5 -44 -9.5t-56 -4.5q-101 0 -151.5 53.5t-50.5 149.5v12l12 -28h-19q-46 -93 -133 -144.5t-207 -51.5zM480 146q93 0 158.5 44t98.5 118t33 160v49
q-16 -11 -39 -18.5t-59 -13.5l-227 -34q-67 -10 -108.5 -46t-41.5 -103q0 -48 22.5 -83t64.5 -54t98 -19z" />
    <glyph glyph-name="aogonek" unicode="&#x105;" horiz-adv-x="1103" 
d="M722 -230q0 82 55.5 146t144.5 108l136 -24q-86 -41 -129.5 -92t-43.5 -109q0 -54 39.5 -81.5t107.5 -24.5v-107q-84 -10 -155 9t-113 64t-42 111zM423 -19q-101 0 -177 38t-116 108.5t-40 163.5q0 135 85.5 209.5t243.5 98.5l249 37q38 5 59.5 13.5t32 25t10.5 43.5
q0 54 -27 95.5t-78.5 63.5t-122.5 22q-66 0 -116 -18.5t-78.5 -53.5t-33.5 -83h-201q9 101 63.5 175.5t148.5 114.5t218 40q134 0 230.5 -44t147.5 -124.5t51 -188.5v-481q0 -35 14.5 -54t49.5 -19q7 0 39 4v-162l-1 -0.5t-2 -0.5q-18 -5 -44 -9.5t-56 -4.5
q-101 0 -151.5 53.5t-50.5 149.5v12l12 -28h-19q-46 -93 -133 -144.5t-207 -51.5zM480 146q93 0 158.5 44t98.5 118t33 160v49q-16 -11 -39 -18.5t-59 -13.5l-227 -34q-67 -10 -108.5 -46t-41.5 -103q0 -48 22.5 -83t64.5 -54t98 -19z" />
    <glyph glyph-name="aring" unicode="&#xe5;" horiz-adv-x="1103" 
d="M545 1187q-54 0 -96.5 24t-66.5 65.5t-24 94.5q0 54 24 96t66.5 65.5t96.5 23.5q53 0 95.5 -23.5t66.5 -65.5t24 -96q0 -53 -24 -94.5t-66.5 -65.5t-95.5 -24zM545 1275q42 0 69 27t27 69q0 43 -27 70t-69 27q-43 0 -70 -27t-27 -70q0 -42 27 -69t70 -27zM423 -19
q-101 0 -177 38t-116 108.5t-40 163.5q0 135 85.5 209.5t243.5 98.5l249 37q38 5 59.5 13.5t32 25t10.5 43.5q0 54 -27 95.5t-78.5 63.5t-122.5 22q-66 0 -116 -18.5t-78.5 -53.5t-33.5 -83h-201q9 101 63.5 175.5t148.5 114.5t218 40q134 0 230.5 -44t147.5 -124.5
t51 -188.5v-481q0 -35 14.5 -54t49.5 -19q7 0 39 4v-162l-1 -0.5t-2 -0.5q-18 -5 -44 -9.5t-56 -4.5q-101 0 -151.5 53.5t-50.5 149.5v12l12 -28h-19q-46 -93 -133 -144.5t-207 -51.5zM480 146q93 0 158.5 44t98.5 118t33 160v49q-16 -11 -39 -18.5t-59 -13.5l-227 -34
q-67 -10 -108.5 -46t-41.5 -103q0 -48 22.5 -83t64.5 -54t98 -19z" />
    <glyph glyph-name="atilde" unicode="&#xe3;" horiz-adv-x="1103" 
d="M873 1444q0 -122 -51.5 -184.5t-140.5 -62.5q-49 0 -81.5 18t-72.5 53q-31 27 -53.5 40.5t-51.5 13.5q-42 0 -65 -30.5t-24 -92.5h-106q1 122 53.5 184.5t143.5 62.5q49 0 83 -18.5t73 -53.5q31 -28 52.5 -40.5t48.5 -12.5q41 0 63 30.5t22 92.5h107zM423 -19
q-101 0 -177 38t-116 108.5t-40 163.5q0 135 85.5 209.5t243.5 98.5l249 37q38 5 59.5 13.5t32 25t10.5 43.5q0 54 -27 95.5t-78.5 63.5t-122.5 22q-66 0 -116 -18.5t-78.5 -53.5t-33.5 -83h-201q9 101 63.5 175.5t148.5 114.5t218 40q134 0 230.5 -44t147.5 -124.5
t51 -188.5v-481q0 -35 14.5 -54t49.5 -19q7 0 39 4v-162l-1 -0.5t-2 -0.5q-18 -5 -44 -9.5t-56 -4.5q-101 0 -151.5 53.5t-50.5 149.5v12l12 -28h-19q-46 -93 -133 -144.5t-207 -51.5zM480 146q93 0 158.5 44t98.5 118t33 160v49q-16 -11 -39 -18.5t-59 -13.5l-227 -34
q-67 -10 -108.5 -46t-41.5 -103q0 -48 22.5 -83t64.5 -54t98 -19z" />
    <glyph glyph-name="k" unicode="k" horiz-adv-x="1126" 
d="M157 0v1485h204v-919l439 484h244l-460 -497l493 -553h-247l-469 523v-523h-204z" />
    <glyph glyph-name="uni0137" unicode="&#x137;" horiz-adv-x="1126" 
d="M477 -357q53 7 78 18t39 33q-6 -2 -15 -2q-32 0 -57.5 13.5t-40 37.5t-14.5 53q0 28 14 51t39.5 36t58.5 13q55 0 88 -34t33 -97q0 -75 -52.5 -129.5t-170.5 -63.5v71zM157 0v1485h204v-919l439 484h244l-460 -497l493 -553h-247l-469 523v-523h-204z" />
    <glyph glyph-name="kgreenlandic" unicode="&#x138;" horiz-adv-x="1126" 
d="M157 0v1050h204v-484l439 484h244l-460 -497l493 -553h-247l-469 523v-523h-204z" />
    <glyph glyph-name="g" unicode="g" horiz-adv-x="1105" 
d="M1065 1040h-31h-29q-62 0 -103.5 -11t-71.5 -31v-42l-119 61q31 102 99.5 162t176.5 60q43 0 78 -5v-194zM542 -408q-156 0 -265 33t-165 91.5t-56 136.5q0 52 21.5 92.5t56 67.5t73.5 42v13q-54 26 -82 69.5t-28 101.5q0 65 35 114t110 89v11q-55 46 -85 112.5
t-30 148.5q0 109 52 191t146 125.5t218 43.5q125 0 219 -44t146 -125.5t52 -190.5q0 -110 -51 -190t-144.5 -122.5t-219.5 -42.5q-52 0 -99 8t-89 23q-41 -19 -60.5 -43t-19.5 -54q0 -41 31.5 -68t94.5 -27h299q181 0 270 -72t89 -198q0 -99 -54.5 -174.5t-170.5 -118.5
t-294 -43zM555 -256q151 0 228 40.5t77 116.5q0 64 -45 95.5t-129 31.5h-268q-34 0 -67 2q-42 -14 -70.5 -50.5t-28.5 -86.5q0 -73 80.5 -111t222.5 -38zM544 511q61 0 108 24.5t73 70t26 107.5t-25.5 109.5t-72.5 74t-109 26.5q-63 0 -110 -26.5t-72.5 -73.5t-25.5 -108
t25.5 -107t73 -71.5t109.5 -25.5z" />
    <glyph glyph-name="gbreve" unicode="&#x11f;" horiz-adv-x="1105" 
d="M545 1188q-86 0 -151 34t-100 94.5t-37 138.5h138q2 -64 42 -104.5t108 -40.5q69 0 110 40.5t41 104.5h139q-2 -78 -37.5 -138.5t-100.5 -94.5t-152 -34zM542 -408q-156 0 -265 33t-165 91.5t-56 136.5q0 52 21.5 92.5t56 67.5t73.5 42v13q-54 26 -82 69.5t-28 101.5
q0 65 35 114t110 89v11q-55 46 -85 112.5t-30 148.5q0 109 52 191t146 125.5t218 43.5q125 0 219 -44t146 -125.5t52 -190.5q0 -110 -51 -190t-144.5 -122.5t-219.5 -42.5q-52 0 -99 8t-89 23q-41 -19 -60.5 -43t-19.5 -54q0 -41 31.5 -68t94.5 -27h299q181 0 270 -72
t89 -198q0 -99 -54.5 -174.5t-170.5 -118.5t-294 -43zM555 -256q151 0 228 40.5t77 116.5q0 64 -45 95.5t-129 31.5h-268q-34 0 -67 2q-42 -14 -70.5 -50.5t-28.5 -86.5q0 -73 80.5 -111t222.5 -38zM544 511q61 0 108 24.5t73 70t26 107.5t-25.5 109.5t-72.5 74t-109 26.5
q-63 0 -110 -26.5t-72.5 -73.5t-25.5 -108t25.5 -107t73 -71.5t109.5 -25.5zM1065 1040h-31h-29q-62 0 -103.5 -11t-71.5 -31v-42l-119 61q31 102 99.5 162t176.5 60q43 0 78 -5v-194z" />
    <glyph glyph-name="gcircumflex" unicode="&#x11d;" horiz-adv-x="1105" 
d="M261 1244l194 234h178l195 -234h-147l-167 188h62l-169 -188h-146zM542 -408q-156 0 -265 33t-165 91.5t-56 136.5q0 52 21.5 92.5t56 67.5t73.5 42v13q-54 26 -82 69.5t-28 101.5q0 65 35 114t110 89v11q-55 46 -85 112.5t-30 148.5q0 109 52 191t146 125.5t218 43.5
q125 0 219 -44t146 -125.5t52 -190.5q0 -110 -51 -190t-144.5 -122.5t-219.5 -42.5q-52 0 -99 8t-89 23q-41 -19 -60.5 -43t-19.5 -54q0 -41 31.5 -68t94.5 -27h299q181 0 270 -72t89 -198q0 -99 -54.5 -174.5t-170.5 -118.5t-294 -43zM555 -256q151 0 228 40.5t77 116.5
q0 64 -45 95.5t-129 31.5h-268q-34 0 -67 2q-42 -14 -70.5 -50.5t-28.5 -86.5q0 -73 80.5 -111t222.5 -38zM544 511q61 0 108 24.5t73 70t26 107.5t-25.5 109.5t-72.5 74t-109 26.5q-63 0 -110 -26.5t-72.5 -73.5t-25.5 -108t25.5 -107t73 -71.5t109.5 -25.5zM1065 1040h-31
h-29q-62 0 -103.5 -11t-71.5 -31v-42l-119 61q31 102 99.5 162t176.5 60q43 0 78 -5v-194z" />
    <glyph glyph-name="uni0123" unicode="&#x123;" horiz-adv-x="1105" 
d="M651 1433q-53 -7 -78 -18t-39 -33q6 2 15 2q32 0 57.5 -13.5t40 -37.5t14.5 -53q0 -28 -14 -51t-39.5 -36t-58.5 -13q-55 0 -88 34t-33 97q0 75 52.5 129.5t170.5 63.5v-71zM542 -408q-156 0 -265 33t-165 91.5t-56 136.5q0 52 21.5 92.5t56 67.5t73.5 42v13
q-54 26 -82 69.5t-28 101.5q0 65 35 114t110 89v11q-55 46 -85 112.5t-30 148.5q0 109 52 191t146 125.5t218 43.5q125 0 219 -44t146 -125.5t52 -190.5q0 -110 -51 -190t-144.5 -122.5t-219.5 -42.5q-52 0 -99 8t-89 23q-41 -19 -60.5 -43t-19.5 -54q0 -41 31.5 -68
t94.5 -27h299q181 0 270 -72t89 -198q0 -99 -54.5 -174.5t-170.5 -118.5t-294 -43zM555 -256q151 0 228 40.5t77 116.5q0 64 -45 95.5t-129 31.5h-268q-34 0 -67 2q-42 -14 -70.5 -50.5t-28.5 -86.5q0 -73 80.5 -111t222.5 -38zM544 511q61 0 108 24.5t73 70t26 107.5
t-25.5 109.5t-72.5 74t-109 26.5q-63 0 -110 -26.5t-72.5 -73.5t-25.5 -108t25.5 -107t73 -71.5t109.5 -25.5zM1065 1040h-31h-29q-62 0 -103.5 -11t-71.5 -31v-42l-119 61q31 102 99.5 162t176.5 60q43 0 78 -5v-194z" />
    <glyph glyph-name="gdotaccent" unicode="&#x121;" horiz-adv-x="1105" 
d="M544 1205q-37 0 -66 16.5t-46 46t-17 66.5q0 36 17 66t46 46.5t66 16.5t66.5 -16.5t46 -46t16.5 -66.5t-16.5 -66.5t-46 -46t-66.5 -16.5zM542 -408q-156 0 -265 33t-165 91.5t-56 136.5q0 52 21.5 92.5t56 67.5t73.5 42v13q-54 26 -82 69.5t-28 101.5q0 65 35 114
t110 89v11q-55 46 -85 112.5t-30 148.5q0 109 52 191t146 125.5t218 43.5q125 0 219 -44t146 -125.5t52 -190.5q0 -110 -51 -190t-144.5 -122.5t-219.5 -42.5q-52 0 -99 8t-89 23q-41 -19 -60.5 -43t-19.5 -54q0 -41 31.5 -68t94.5 -27h299q181 0 270 -72t89 -198
q0 -99 -54.5 -174.5t-170.5 -118.5t-294 -43zM555 -256q151 0 228 40.5t77 116.5q0 64 -45 95.5t-129 31.5h-268q-34 0 -67 2q-42 -14 -70.5 -50.5t-28.5 -86.5q0 -73 80.5 -111t222.5 -38zM544 511q61 0 108 24.5t73 70t26 107.5t-25.5 109.5t-72.5 74t-109 26.5
q-63 0 -110 -26.5t-72.5 -73.5t-25.5 -108t25.5 -107t73 -71.5t109.5 -25.5zM1065 1040h-31h-29q-62 0 -103.5 -11t-71.5 -31v-42l-119 61q31 102 99.5 162t176.5 60q43 0 78 -5v-194z" />
    <glyph glyph-name="uniFB01" unicode="&#xfb01;" horiz-adv-x="1269" 
d="M583 1496q27 0 56.5 -3t58.5 -9h2v-167q-35 8 -76 8q-86 0 -124 -41.5t-38 -112.5v-121h239v-176h-239v-874h-207v874h-196v176h196v122q0 95 35 168t108 114.5t185 41.5zM1008 1204q-36 0 -65.5 17t-46.5 46t-17 66t17 66t46.5 46t65.5 17q38 0 67 -17t45.5 -46
t16.5 -66t-16.5 -66t-45.5 -46t-67 -17zM905 0v1050h208v-1050h-208z" />
    <glyph glyph-name="uniFB02" unicode="&#xfb02;" horiz-adv-x="1269" 
d="M583 1496q27 0 56.5 -3t58.5 -9h2v-167q-35 8 -76 8q-86 0 -124 -41.5t-38 -112.5v-121h239v-176h-239v-874h-207v874h-196v176h196v122q0 95 35 168t108 114.5t185 41.5zM1113 0h-208v1485h208v-1485z" />
    <glyph glyph-name="ordfeminine" unicode="&#xaa;" horiz-adv-x="677" 
d="M248 788q-91 0 -145.5 49t-54.5 133q1 96 64 142t154 60l141 22q35 5 48.5 15.5t13.5 31.5q0 53 -37.5 83.5t-97.5 30.5q-61 0 -97 -30.5t-41 -83.5h-126q8 102 79 161t188 59q74 0 133 -25t93 -75t34 -120v-440h-128v106h-2q-30 -57 -86.5 -88t-132.5 -31zM284 897
q58 0 99.5 26.5t63.5 69.5t22 94v29q-14 -9 -27.5 -13.5t-37.5 -7.5l-126 -18q-45 -7 -74.5 -28.5t-29.5 -62.5q0 -40 30.5 -64.5t79.5 -24.5z" />
    <glyph glyph-name="ordmasculine" unicode="&#xba;" horiz-adv-x="722" 
d="M362 786q-92 0 -162 41t-108.5 116.5t-38.5 178.5t38.5 179.5t108.5 118t162 41.5q93 0 162 -41t107 -118t38 -180q0 -102 -39 -178t-108.5 -117t-159.5 -41zM362 897q53 0 92 25.5t60.5 76t21.5 123.5t-21 124t-60 77.5t-93 26.5q-55 0 -94.5 -26.5t-60.5 -77.5
t-21 -124q0 -72 21.5 -123t61 -76.5t93.5 -25.5z" />
    <glyph glyph-name="uni0394" unicode="&#x394;" horiz-adv-x="1548" 
d="M129 0l511 1442h267l512 -1442h-1290zM398 167h752l-322 920q-5 15 -9.5 29.5t-9.5 28.5q-22 77 -32 110h-7q-5 -19 -11 -39.5t-13 -41.5q-9 -30 -26 -86z" />
    <glyph glyph-name="uni03A9" unicode="&#x3a9;" horiz-adv-x="1688" 
d="M1557 779q0 -200 -94.5 -356t-263.5 -246h354v-177h-598v215q123 35 213.5 112t138.5 187t48 242q0 145 -64.5 267t-181 193.5t-264.5 71.5q-149 0 -265 -71.5t-180.5 -193.5t-64.5 -267q0 -133 47 -242.5t136.5 -186.5t213.5 -112v-215h-597v177h353
q-167 90 -261.5 246.5t-94.5 357.5q0 188 88.5 344t250.5 248t372 92q209 0 371.5 -92.5t252.5 -249.5t90 -344z" />
    <glyph glyph-name="uni03BC" unicode="&#x3bc;" horiz-adv-x="1266" 
d="M154 -389v1479h208v-652q0 -136 63 -210t180 -74q88 0 152.5 40.5t98.5 110t34 157.5v628h208v-1090h-208v203h-4q-50 -106 -142 -166.5t-215 -60.5q-77 0 -138 29.5t-101 89.5l72 82v-566h-208z" />
    <glyph glyph-name="pi" unicode="&#x3c0;" horiz-adv-x="1275" 
d="M59 1090h1135v-171h-206l1 -639q0 -66 32 -100t99 -34q31 0 73 7v-146q-32 -10 -62 -15t-58 -5q-151 0 -214.5 77t-63.5 214l-2 641h-336v-919h-197v919h-201v171z" />
    <glyph glyph-name="zero" unicode="0" horiz-adv-x="1358" 
d="M681 -23q-175 0 -298 84t-187 244t-64 386v57q0 228 64 388.5t187 244.5t298 84t297.5 -83.5t185 -245t62.5 -388.5v-57q0 -227 -62.5 -387t-185 -243.5t-297.5 -83.5zM682 159q109 0 183 58.5t111 174t37 285.5v85q0 170 -37 286.5t-111 175.5t-183 59t-183.5 -58.5
t-113 -175t-38.5 -287.5v-85q0 -169 39 -284.5t113 -174.5t183 -59z" />
    <glyph glyph-name="four" unicode="4" horiz-adv-x="1278" 
d="M776 0v336h-685v148l704 958h181v-926h212v-180h-212v-336h-200zM321 516h455v613z" />
    <glyph glyph-name="five" unicode="5" horiz-adv-x="1270" 
d="M630 -23q-146 0 -260 55.5t-180 151.5t-75 215h208q11 -70 51.5 -124.5t107.5 -85.5t152 -31q95 0 164.5 38.5t107 109.5t37.5 164q0 91 -38 159.5t-107 105.5t-160 37q-71 0 -127.5 -21.5t-92.5 -52.5t-65 -65h-193l78 809h844v-181h-665l-43 -430h13q55 55 130.5 85
t180.5 30q128 0 231 -56.5t163 -163t60 -250.5q0 -146 -64.5 -259.5t-182.5 -176.5t-275 -63z" />
    <glyph glyph-name="six" unicode="6" horiz-adv-x="1314" 
d="M683 -23q-165 0 -289.5 80t-195 243t-70.5 404t67.5 412.5t192.5 260.5t296 89q131 0 231.5 -49.5t165 -138t87.5 -208.5h-213q-23 96 -89 155.5t-184 59.5q-113 0 -189.5 -66t-115.5 -187t-41 -286h10q29 61 82 109.5t128 77.5t164 29q140 0 249 -62t169 -172t60 -247
q0 -145 -67 -259.5t-184.5 -179.5t-263.5 -65zM683 158q91 0 162 41.5t110.5 113t39.5 160.5t-38.5 160.5t-109 112t-164.5 40.5q-91 0 -162 -40.5t-110 -112t-39 -159.5q0 -84 36 -156.5t107 -116t168 -43.5z" />
    <glyph glyph-name="eight" unicode="8" horiz-adv-x="1306" 
d="M655 -23q-157 0 -279.5 52.5t-192 149.5t-69.5 225q0 95 38.5 168.5t106.5 122t155 71.5v8q-117 38 -183 121t-66 195q0 111 63 196.5t174.5 132t250.5 46.5q138 0 249.5 -45.5t175.5 -131t64 -197.5q0 -114 -66.5 -197t-183.5 -119v-9q87 -23 154.5 -71t106.5 -122.5
t39 -169.5q0 -128 -68 -224.5t-190 -149t-279 -52.5zM654 159q94 0 166.5 32.5t113 91t40.5 134.5t-40.5 134t-113 90.5t-166.5 32.5t-167.5 -32.5t-114 -90.5t-40.5 -134t41 -134.5t114 -91t167 -32.5zM652 844q85 0 150.5 28.5t102 80.5t36.5 118t-36.5 117.5t-102 80
t-150.5 28.5q-84 0 -149 -28.5t-101.5 -80t-36.5 -117.5q0 -67 36.5 -119t102 -80t148.5 -28z" />
    <glyph glyph-name="nine" unicode="9" horiz-adv-x="1314" 
d="M631 -24q-131 0 -232 49.5t-165 138t-88 208.5h213q23 -96 89 -155.5t185 -59.5q113 0 189 66t115 187t41 286h-10q-28 -61 -81 -109.5t-128.5 -77.5t-164.5 -29q-139 0 -248 62t-169.5 172t-60.5 247q0 145 67.5 259.5t185 179.5t263.5 65q164 0 289 -80t195.5 -243
t70.5 -404t-68 -412.5t-193 -260.5t-295 -89zM632 656q91 0 162 40.5t110 112t39 159.5q0 84 -36 156.5t-107 116t-168 43.5q-92 0 -163 -41.5t-110 -113t-39 -160.5t38.5 -160.5t108.5 -112t165 -40.5z" />
    <glyph glyph-name="uni24FF" unicode="&#x24ff;" horiz-adv-x="1702" 
d="M851 -24q204 0 375 99.5t270 270.5t99 376q0 204 -99 375t-270 270t-375 99t-375 -99t-270 -270t-99 -375q0 -205 99 -376t270 -270.5t375 -99.5zM853 331q-144 0 -221.5 97.5t-77.5 273.5v33q0 178 77.5 276t221.5 98q143 0 220 -97.5t77 -276.5v-33q0 -177 -76.5 -274
t-220.5 -97zM854 460q71 0 105.5 60t34.5 172v55q0 113 -35.5 173t-105.5 60q-72 0 -107.5 -60.5t-35.5 -172.5v-55q0 -112 35.5 -172t108.5 -60z" />
    <glyph glyph-name="uni2779" unicode="&#x2779;" horiz-adv-x="1702" 
d="M851 -24q204 0 375 99.5t270 270.5t99 376q0 204 -99 375t-270 270t-375 99t-375 -99t-270 -270t-99 -375q0 -205 99 -376t270 -270.5t375 -99.5zM858 343v159h-349v100l364 494h136v-483h101v-111h-101v-159h-151zM644 613h214v280z" />
    <glyph glyph-name="uni277A" unicode="&#x277a;" horiz-adv-x="1702" 
d="M851 -24q204 0 375 99.5t270 270.5t99 376q0 204 -99 375t-270 270t-375 99t-375 -99t-270 -270t-99 -375q0 -205 99 -376t270 -270.5t375 -99.5zM850 331q-81 0 -144.5 29.5t-99.5 80.5t-40 115h148v-1.5t1 -1.5q8 -43 45 -71t91 -28q62 0 99 37.5t37 100.5
q0 40 -16.5 71t-47 47t-71.5 16q-44 0 -76 -19t-51 -47h-137l41 436h471v-123h-344l-19 -184h3q27 20 65 32.5t85 12.5q69 0 125 -28.5t88.5 -83t32.5 -128.5q0 -76 -35.5 -136t-100 -93.5t-150.5 -33.5z" />
    <glyph glyph-name="uni277B" unicode="&#x277b;" horiz-adv-x="1702" 
d="M851 -24q204 0 375 99.5t270 270.5t99 376q0 204 -99 375t-270 270t-375 99t-375 -99t-270 -270t-99 -375q0 -205 99 -376t270 -270.5t375 -99.5zM856 331q-90 0 -159.5 43t-109 129.5t-39.5 211.5q0 124 38.5 213t107 135.5t161.5 46.5q104 0 176.5 -54.5t92.5 -158.5
h-154q-9 42 -38 66.5t-78 24.5q-45 0 -79.5 -23.5t-55 -78t-20.5 -146.5h3q26 44 71.5 72.5t115.5 28.5q72 0 129 -31t89 -86t32 -126q0 -77 -37.5 -138t-102 -95t-143.5 -34zM855 452q41 0 72 19t47.5 50.5t16.5 71.5q0 41 -16 72.5t-47 50t-73 18.5t-72.5 -18.5t-47 -50.5
t-16.5 -72q0 -39 16 -71t46.5 -51t73.5 -19z" />
    <glyph glyph-name="uni277D" unicode="&#x277d;" horiz-adv-x="1702" 
d="M851 -24q204 0 375 99.5t270 270.5t99 376q0 204 -99 375t-270 270t-375 99t-375 -99t-270 -270t-99 -375q0 -205 99 -376t270 -270.5t375 -99.5zM852 331q-86 0 -154 27t-107 79t-39 122q0 71 40.5 117.5t107.5 66.5v4q-57 21 -89 62t-32 98q0 61 35.5 107t97.5 70.5
t138 24.5q75 0 137 -24t98.5 -69.5t36.5 -107.5q0 -57 -32 -98.5t-89 -62.5v-3q65 -20 106.5 -66.5t41.5 -118.5q0 -70 -38 -122t-105.5 -79t-153.5 -27zM851 452q40 0 70 14.5t47 40.5t17 61q0 34 -17 60t-47 40t-70 14q-41 0 -71 -14t-47 -40t-17 -60q0 -35 17 -61.5
t47.5 -40.5t70.5 -14zM850 790q36 0 64 13t43 36.5t15 54.5t-15 54.5t-43 37t-64 13.5t-63.5 -13.5t-42.5 -37t-15 -54.5t15 -55t43 -36.5t63 -12.5z" />
    <glyph glyph-name="uni277E" unicode="&#x277e;" horiz-adv-x="1702" 
d="M851 -24q204 0 375 99.5t270 270.5t99 376q0 204 -99 375t-270 270t-375 99t-375 -99t-270 -270t-99 -375q0 -205 99 -376t270 -270.5t375 -99.5zM847 1110q90 0 159 -43.5t108.5 -130t39.5 -211.5q0 -124 -38 -213t-106.5 -135t-161.5 -46q-104 0 -177 54t-92 158h153
q10 -42 39 -66.5t78 -24.5q45 0 79.5 23.5t55 78.5t20.5 146h-3q-27 -44 -72.5 -72t-114.5 -28q-73 0 -129.5 30.5t-88.5 85.5t-32 127q0 76 37 137t101.5 95.5t144.5 34.5zM848 988q-41 0 -72 -18.5t-47.5 -50.5t-16.5 -72t16 -71.5t47 -50t73 -18.5q41 0 72 18.5
t47.5 50.5t16.5 71q0 40 -16 71.5t-46.5 50.5t-73.5 19z" />
    <glyph glyph-name="uni2776" unicode="&#x2776;" horiz-adv-x="1702" 
d="M851 -24q204 0 375 99.5t270 270.5t99 376q0 204 -99 375t-270 270t-375 99t-375 -99t-270 -270t-99 -375q0 -205 99 -376t270 -270.5t375 -99.5zM816 343v569h-5q-39 -31 -87.5 -50t-103.5 -23v126q68 9 124.5 44.5t92.5 86.5h130v-753h-151z" />
    <glyph glyph-name="uni277C" unicode="&#x277c;" horiz-adv-x="1702" 
d="M851 -24q204 0 375 99.5t270 270.5t99 376q0 204 -99 375t-270 270t-375 99t-375 -99t-270 -270t-99 -375q0 -205 99 -376t270 -270.5t375 -99.5zM567 967v129h566v-115q-12 -17 -24 -34.5t-24 -35.5q-56 -85 -98.5 -167t-74.5 -181t-52 -220h-144q19 116 49 212
t68.5 176.5t90.5 164.5q20 31 44 68v3h-401z" />
    <glyph glyph-name="uni2777" unicode="&#x2777;" horiz-adv-x="1702" 
d="M851 -24q204 0 375 99.5t270 270.5t99 376q0 204 -99 375t-270 270t-375 99t-375 -99t-270 -270t-99 -375q0 -205 99 -376t270 -270.5t375 -99.5zM576 401q0 74 32 126t76.5 83.5t118.5 71.5q60 32 93.5 54.5t56.5 55t23 75.5q0 54 -34.5 86t-91.5 32q-60 0 -93 -36
t-35 -94h-152q0 69 31 127t95 93t159 35q80 0 141 -30.5t94 -84.5t33 -124q0 -71 -31 -121t-76 -82t-114 -70q-44 -24 -69.5 -40.5t-47 -37t-30.5 -43.5v-3h376v-131h-555v58z" />
    <glyph glyph-name="uni2778" unicode="&#x2778;" horiz-adv-x="1702" 
d="M851 -24q204 0 375 99.5t270 270.5t99 376q0 204 -99 375t-270 270t-375 99t-375 -99t-270 -270t-99 -375q0 -205 99 -376t270 -270.5t375 -99.5zM853 331q-83 0 -146 26t-100 71.5t-46 105.5q-1 9 -1.5 17.5t-0.5 17.5h146q5 -54 44 -87t100 -33q41 0 72 15.5t48 43.5
t17 65q0 55 -37.5 87t-108.5 32q-32 0 -53 -8l-67 88l220 198h-360v126h534v-126l-206 -181q78 -4 130.5 -35t77.5 -80t25 -106q0 -69 -34.5 -123t-99.5 -84t-154 -30z" />
    <glyph glyph-name="uni24EA" unicode="&#x24ea;" horiz-adv-x="1704" 
d="M852 -24q-205 0 -375.5 99.5t-270 270.5t-99.5 376q0 204 99.5 375t270 270t375.5 99t375.5 -99t270 -270t99.5 -375q0 -205 -99.5 -376t-270 -270.5t-375.5 -99.5zM852 85q174 0 320 85t230.5 231.5t84.5 320.5t-84.5 319.5t-230.5 230.5t-320 85t-320 -85
t-230.5 -230.5t-84.5 -319.5t84.5 -320.5t230.5 -231.5t320 -85zM854 331q-144 0 -221.5 97.5t-77.5 273.5v33q0 178 77.5 276t221.5 98q143 0 220 -97.5t77 -276.5v-33q0 -177 -76.5 -274t-220.5 -97zM855 460q71 0 105.5 60t34.5 172v55q0 113 -35.5 173t-105.5 60
q-72 0 -107.5 -60.5t-35.5 -172.5v-55q0 -112 35.5 -172t108.5 -60z" />
    <glyph glyph-name="uni2463" unicode="&#x2463;" horiz-adv-x="1704" 
d="M852 -24q-205 0 -375.5 99.5t-270 270.5t-99.5 376q0 204 99.5 375t270 270t375.5 99t375.5 -99t270 -270t99.5 -375q0 -205 -99.5 -376t-270 -270.5t-375.5 -99.5zM645 613h214v280zM859 343v159h-349v100l364 494h136v-483h101v-111h-101v-159h-151zM852 85
q174 0 320 85t230.5 231.5t84.5 320.5t-84.5 319.5t-230.5 230.5t-320 85t-320 -85t-230.5 -230.5t-84.5 -319.5t84.5 -320.5t230.5 -231.5t320 -85z" />
    <glyph glyph-name="uni2464" unicode="&#x2464;" horiz-adv-x="1704" 
d="M852 -24q-205 0 -375.5 99.5t-270 270.5t-99.5 376q0 204 99.5 375t270 270t375.5 99t375.5 -99t270 -270t99.5 -375q0 -205 -99.5 -376t-270 -270.5t-375.5 -99.5zM851 331q-81 0 -144.5 29.5t-99.5 80.5t-40 115h148v-1.5t1 -1.5q8 -43 45 -71t91 -28q62 0 99 37.5
t37 100.5q0 40 -16.5 71t-47 47t-71.5 16q-44 0 -76 -19t-51 -47h-137l41 436h471v-123h-344l-19 -184h3q27 20 65 32.5t85 12.5q69 0 125 -28.5t88.5 -83t32.5 -128.5q0 -76 -35.5 -136t-100 -93.5t-150.5 -33.5zM852 85q174 0 320 85t230.5 231.5t84.5 320.5t-84.5 319.5
t-230.5 230.5t-320 85t-320 -85t-230.5 -230.5t-84.5 -319.5t84.5 -320.5t230.5 -231.5t320 -85z" />
    <glyph glyph-name="uni2465" unicode="&#x2465;" horiz-adv-x="1704" 
d="M852 -24q-205 0 -375.5 99.5t-270 270.5t-99.5 376q0 204 99.5 375t270 270t375.5 99t375.5 -99t270 -270t99.5 -375q0 -205 -99.5 -376t-270 -270.5t-375.5 -99.5zM863 452q41 0 72 19t47.5 50.5t16.5 71.5q0 41 -16 72.5t-47 50t-73 18.5t-72.5 -18.5t-47 -50.5
t-16.5 -72q0 -39 16 -71t46.5 -51t73.5 -19zM864 331q-90 0 -159.5 43t-109 129.5t-39.5 211.5q0 124 38.5 213t107 135.5t161.5 46.5q104 0 176.5 -54.5t92.5 -158.5h-154q-9 42 -38 66.5t-78 24.5q-45 0 -79.5 -23.5t-55 -78t-20.5 -146.5h3q26 44 71.5 72.5t115.5 28.5
q72 0 129 -31t89 -86t32 -126q0 -77 -37.5 -138t-102 -95t-143.5 -34zM852 85q174 0 320 85t230.5 231.5t84.5 320.5t-84.5 319.5t-230.5 230.5t-320 85t-320 -85t-230.5 -230.5t-84.5 -319.5t84.5 -320.5t230.5 -231.5t320 -85z" />
    <glyph glyph-name="uni2467" unicode="&#x2467;" horiz-adv-x="1704" 
d="M852 -24q-205 0 -375.5 99.5t-270 270.5t-99.5 376q0 204 99.5 375t270 270t375.5 99t375.5 -99t270 -270t99.5 -375q0 -205 -99.5 -376t-270 -270.5t-375.5 -99.5zM852 452q40 0 70 14.5t47 40.5t17 61q0 34 -17 60t-47 40t-70 14q-41 0 -71 -14t-47 -40t-17 -60
q0 -35 17 -61.5t47.5 -40.5t70.5 -14zM852 85q174 0 320 85t230.5 231.5t84.5 320.5t-84.5 319.5t-230.5 230.5t-320 85t-320 -85t-230.5 -230.5t-84.5 -319.5t84.5 -320.5t230.5 -231.5t320 -85zM853 331q-86 0 -154 27t-107 79t-39 122q0 71 40.5 117.5t107.5 66.5v4
q-57 21 -89 62t-32 98q0 61 35.5 107t97.5 70.5t138 24.5q75 0 137 -24t98.5 -69.5t36.5 -107.5q0 -57 -32 -98.5t-89 -62.5v-3q65 -20 106.5 -66.5t41.5 -118.5q0 -70 -38 -122t-105.5 -79t-153.5 -27zM851 790q36 0 64 13t43 36.5t15 54.5t-15 54.5t-43 37t-64 13.5
t-63.5 -13.5t-42.5 -37t-15 -54.5t15 -55t43 -36.5t63 -12.5z" />
    <glyph glyph-name="uni2468" unicode="&#x2468;" horiz-adv-x="1704" 
d="M852 -24q-205 0 -375.5 99.5t-270 270.5t-99.5 376q0 204 99.5 375t270 270t375.5 99t375.5 -99t270 -270t99.5 -375q0 -205 -99.5 -376t-270 -270.5t-375.5 -99.5zM852 85q174 0 320 85t230.5 231.5t84.5 320.5t-84.5 319.5t-230.5 230.5t-320 85t-320 -85
t-230.5 -230.5t-84.5 -319.5t84.5 -320.5t230.5 -231.5t320 -85zM849 331q-104 0 -177 54t-92 158h153q10 -42 39 -66.5t78 -24.5q45 0 79.5 23.5t55 78.5t20.5 146h-3q-27 -44 -72.5 -72t-114.5 -28q-73 0 -129.5 30.5t-88.5 85.5t-32 127q0 76 37 137t101.5 95.5
t144.5 34.5q90 0 159 -43.5t108.5 -130t39.5 -211.5q0 -124 -38 -213t-106.5 -135t-161.5 -46zM849 707q41 0 72 18.5t47.5 50.5t16.5 71q0 40 -16 71.5t-46.5 50.5t-73.5 19q-41 0 -72 -18.5t-47.5 -50.5t-16.5 -72t16 -71.5t47 -50t73 -18.5z" />
    <glyph glyph-name="one" unicode="1" horiz-adv-x="859" 
d="M462 0v1174h-11q-68 -68 -157.5 -108.5t-200.5 -52.5v186q87 13 161.5 47.5t132.5 85t102 110.5h182v-1442h-209z" />
    <glyph glyph-name="uni2460" unicode="&#x2460;" horiz-adv-x="1704" 
d="M852 -24q-205 0 -375.5 99.5t-270 270.5t-99.5 376q0 204 99.5 375t270 270t375.5 99t375.5 -99t270 -270t99.5 -375q0 -205 -99.5 -376t-270 -270.5t-375.5 -99.5zM817 343v569h-5q-39 -31 -87.5 -50t-103.5 -23v126q68 9 124.5 44.5t92.5 86.5h130v-753h-151zM852 85
q174 0 320 85t230.5 231.5t84.5 320.5t-84.5 319.5t-230.5 230.5t-320 85t-320 -85t-230.5 -230.5t-84.5 -319.5t84.5 -320.5t230.5 -231.5t320 -85z" />
    <glyph glyph-name="seven" unicode="7" horiz-adv-x="1242" 
d="M87 1261v181h1062v-162q-21 -28 -41.5 -56.5t-40.5 -56.5q-120 -174 -211 -349t-157 -377t-106 -441h-200q37 234 101 436.5t151.5 377t200.5 338.5q18 25 36 50.5t37 50.5v8h-832z" />
    <glyph glyph-name="uni2466" unicode="&#x2466;" horiz-adv-x="1704" 
d="M852 -24q-205 0 -375.5 99.5t-270 270.5t-99.5 376q0 204 99.5 375t270 270t375.5 99t375.5 -99t270 -270t99.5 -375q0 -205 -99.5 -376t-270 -270.5t-375.5 -99.5zM852 85q174 0 320 85t230.5 231.5t84.5 320.5t-84.5 319.5t-230.5 230.5t-320 85t-320 -85
t-230.5 -230.5t-84.5 -319.5t84.5 -320.5t230.5 -231.5t320 -85zM717 343q19 116 49 212t68.5 176.5t90.5 164.5q20 31 44 68v3h-401v129h566v-115q-12 -17 -24 -34.5t-24 -35.5q-56 -85 -98.5 -167t-74.5 -181t-52 -220h-144z" />
    <glyph glyph-name="two" unicode="2" horiz-adv-x="1245" 
d="M123 88q0 142 60 240.5t145 159t227 135.5q120 63 189.5 109t117 115.5t47.5 165.5q0 81 -35 142t-99.5 95t-151.5 34q-90 0 -157 -36.5t-102.5 -103.5t-36.5 -157h-211q0 135 59 244t175 172.5t280 63.5q148 0 257.5 -58.5t168 -161t58.5 -229.5q0 -137 -59.5 -232.5
t-144 -155.5t-224.5 -136q-102 -54 -163 -93t-108.5 -92t-62.5 -122v-6h775v-181h-1004v88z" />
    <glyph glyph-name="uni2461" unicode="&#x2461;" horiz-adv-x="1704" 
d="M852 -24q-205 0 -375.5 99.5t-270 270.5t-99.5 376q0 204 99.5 375t270 270t375.5 99t375.5 -99t270 -270t99.5 -375q0 -205 -99.5 -376t-270 -270.5t-375.5 -99.5zM852 85q174 0 320 85t230.5 231.5t84.5 320.5t-84.5 319.5t-230.5 230.5t-320 85t-320 -85
t-230.5 -230.5t-84.5 -319.5t84.5 -320.5t230.5 -231.5t320 -85zM577 401q0 74 32 126t76.5 83.5t118.5 71.5q60 32 93.5 54.5t56.5 55t23 75.5q0 54 -34.5 86t-91.5 32q-60 0 -93 -36t-35 -94h-152q0 69 31 127t95 93t159 35q80 0 141 -30.5t94 -84.5t33 -124
q0 -71 -31 -121t-76 -82t-114 -70q-44 -24 -69.5 -40.5t-47 -37t-30.5 -43.5v-3h376v-131h-555v58z" />
    <glyph glyph-name="three" unicode="3" horiz-adv-x="1274" 
d="M635 -24q-157 0 -275 54.5t-183.5 149.5t-73.5 214q-1 9 -1 17v16h201q5 -79 46 -140.5t113.5 -95.5t167.5 -34q93 0 164.5 33.5t111.5 96t40 146.5q0 83 -39 143t-113.5 91t-179.5 31q-66 0 -104 -10l-94 132l450 441h-732v181h978v-181l-505 -480l-21 71q38 5 85 5
q159 0 269.5 -56t165.5 -153.5t55 -221.5q0 -131 -63.5 -233t-183 -159.5t-279.5 -57.5z" />
    <glyph glyph-name="uni2462" unicode="&#x2462;" horiz-adv-x="1704" 
d="M852 -24q-205 0 -375.5 99.5t-270 270.5t-99.5 376q0 204 99.5 375t270 270t375.5 99t375.5 -99t270 -270t99.5 -375q0 -205 -99.5 -376t-270 -270.5t-375.5 -99.5zM854 331q-83 0 -146 26t-100 71.5t-46 105.5q-1 9 -1.5 17.5t-0.5 17.5h146q5 -54 44 -87t100 -33
q41 0 72 15.5t48 43.5t17 65q0 55 -37.5 87t-108.5 32q-32 0 -53 -8l-67 88l220 198h-360v126h534v-126l-206 -181q78 -4 130.5 -35t77.5 -80t25 -106q0 -69 -34.5 -123t-99.5 -84t-154 -30zM852 85q174 0 320 85t230.5 231.5t84.5 320.5t-84.5 319.5t-230.5 230.5t-320 85
t-320 -85t-230.5 -230.5t-84.5 -319.5t84.5 -320.5t230.5 -231.5t320 -85z" />
    <glyph glyph-name="zero.tnum" horiz-adv-x="1315" 
d="M662 -23q-264 0 -399.5 185t-135.5 557q0 373 135.5 559.5t397.5 186.5t396 -187t134 -561q0 -372 -133 -556t-395 -184zM662 159q108 0 178 59t104.5 182.5t34.5 318.5t-35 319.5t-105.5 184.5t-178.5 60q-109 0 -179.5 -59.5t-106.5 -184.5t-36 -319t35.5 -318
t106.5 -183.5t182 -59.5z" />
    <glyph glyph-name="four.tnum" horiz-adv-x="1316" 
d="M823 0v336h-685v148l704 958h181v-926h212v-180h-212v-336h-200zM368 516h455v613z" />
    <glyph glyph-name="five.tnum" horiz-adv-x="1316" 
d="M668 -23q-146 0 -260 55.5t-180 151.5t-75 215h208q11 -70 51.5 -124.5t107.5 -85.5t152 -31q95 0 164.5 38.5t107 109.5t37.5 164q0 91 -38 159.5t-107 105.5t-160 37q-71 0 -127.5 -21.5t-92.5 -52.5t-65 -65h-193l78 809h844v-181h-665l-43 -430h13q55 55 130.5 85
t180.5 30q128 0 231 -56.5t163 -163t60 -250.5q0 -146 -64.5 -259.5t-182.5 -176.5t-275 -63z" />
    <glyph glyph-name="six.tnum" horiz-adv-x="1316" 
d="M692 -23q-165 0 -289.5 80t-195 243t-70.5 404t67.5 412.5t192.5 260.5t296 89q131 0 231.5 -49.5t165 -138t87.5 -208.5h-213q-23 96 -89 155.5t-184 59.5q-113 0 -189.5 -66t-115.5 -187t-41 -286h10q29 61 82 109.5t128 77.5t164 29q140 0 249 -62t169 -172t60 -247
q0 -145 -67 -259.5t-184.5 -179.5t-263.5 -65zM692 158q91 0 162 41.5t110.5 113t39.5 160.5t-38.5 160.5t-109 112t-164.5 40.5q-91 0 -162 -40.5t-110 -112t-39 -159.5q0 -84 36 -156.5t107 -116t168 -43.5z" />
    <glyph glyph-name="eight.tnum" horiz-adv-x="1316" 
d="M684 -23q-157 0 -279.5 52.5t-192 149.5t-69.5 225q0 95 38.5 168.5t106.5 122t155 71.5v8q-117 38 -183 121t-66 195q0 111 63 196.5t174.5 132t250.5 46.5q138 0 249.5 -45.5t175.5 -131t64 -197.5q0 -114 -66.5 -197t-183.5 -119v-9q87 -23 154.5 -71t106.5 -122.5
t39 -169.5q0 -128 -68 -224.5t-190 -149t-279 -52.5zM683 159q94 0 166.5 32.5t113 91t40.5 134.5t-40.5 134t-113 90.5t-166.5 32.5t-167.5 -32.5t-114 -90.5t-40.5 -134t41 -134.5t114 -91t167 -32.5zM681 844q85 0 150.5 28.5t102 80.5t36.5 118t-36.5 117.5t-102 80
t-150.5 28.5q-84 0 -149 -28.5t-101.5 -80t-36.5 -117.5q0 -67 36.5 -119t102 -80t148.5 -28z" />
    <glyph glyph-name="nine.tnum" horiz-adv-x="1316" 
d="M638 -25q-131 0 -232 49.5t-165 138t-88 208.5h213q23 -96 89 -155.5t185 -59.5q113 0 189 66t115 187t41 286h-10q-28 -61 -81 -109.5t-128.5 -77.5t-164.5 -29q-139 0 -248 62t-169.5 172t-60.5 247q0 145 67.5 259.5t185 179.5t263.5 65q164 0 289 -80t195.5 -243
t70.5 -404t-68 -412.5t-193 -260.5t-295 -89zM639 655q91 0 162 40.5t110 112t39 159.5q0 84 -36 156.5t-107 116t-168 43.5q-92 0 -163 -41.5t-110 -113t-39 -160.5t38.5 -160.5t108.5 -112t165 -40.5z" />
    <glyph glyph-name="one.tnum" horiz-adv-x="1316" 
d="M697 0v1172h-7q-77 -69 -173 -110.5t-216 -53.5v185q93 13 172 48.5t141 86.5t110 114h182v-1442h-209z" />
    <glyph glyph-name="seven.tnum" horiz-adv-x="1316" 
d="M140 1261v181h1062v-162q-21 -28 -41.5 -56.5t-40.5 -56.5q-120 -174 -211 -349t-157 -377t-106 -441h-200q37 234 101 436.5t151.5 377t200.5 338.5q18 25 36 50.5t37 50.5v8h-832z" />
    <glyph glyph-name="two.tnum" horiz-adv-x="1316" 
d="M166 88q0 142 60 240.5t145 159t227 135.5q120 63 189.5 109t117 115.5t47.5 165.5q0 81 -35 142t-99.5 95t-151.5 34q-90 0 -157 -36.5t-102.5 -103.5t-36.5 -157h-211q0 135 59 244t175 172.5t280 63.5q148 0 257.5 -58.5t168 -161t58.5 -229.5q0 -137 -59.5 -232.5
t-144 -155.5t-224.5 -136q-102 -54 -163 -93t-108.5 -92t-62.5 -122v-6h775v-181h-1004v88z" />
    <glyph glyph-name="three.tnum" horiz-adv-x="1316" 
d="M670 -24q-157 0 -275 54.5t-183.5 149.5t-73.5 214q-1 9 -1 17v16h201q5 -79 46 -140.5t113.5 -95.5t167.5 -34q93 0 164.5 33.5t111.5 96t40 146.5q0 83 -39 143t-113.5 91t-179.5 31q-66 0 -104 -10l-94 132l450 441h-732v181h978v-181l-505 -480l-21 71q38 5 85 5
q159 0 269.5 -56t165.5 -153.5t55 -221.5q0 -131 -63.5 -233t-183 -159.5t-279.5 -57.5z" />
    <glyph glyph-name="uni2080" unicode="&#x2080;" horiz-adv-x="809" 
d="M414 -13q-100 0 -170.5 46.5t-107 134t-36.5 210.5v35q0 187 82 290t232 103q151 0 231.5 -102.5t80.5 -290.5v-35q0 -186 -80.5 -288.5t-231.5 -102.5zM415 122q76 0 112 63.5t36 181.5v58q0 119 -37 182.5t-112 63.5t-113 -64t-38 -182v-58q0 -117 38.5 -181t113.5 -64
z" />
    <glyph glyph-name="uni2084" unicode="&#x2084;" horiz-adv-x="755" 
d="M437 0v167h-368v106l384 520h143v-509h106v-117h-106v-167h-159zM212 284h225v294z" />
    <glyph glyph-name="uni2085" unicode="&#x2085;" horiz-adv-x="753" 
d="M383 -13q-85 0 -152 31t-105 85t-42 121h155q9 -46 48 -76.5t97 -30.5q44 0 76.5 17.5t50 50.5t17.5 77q0 42 -18 74.5t-50 49.5t-75 17q-46 0 -79.5 -19.5t-54.5 -48.5h-144l44 458h495v-130h-362l-19 -194h3q27 21 67.5 34.5t89.5 13.5q73 0 132 -30t93 -87.5
t34 -135.5q0 -80 -37 -143t-105.5 -98.5t-158.5 -35.5z" />
    <glyph glyph-name="uni2086" unicode="&#x2086;" horiz-adv-x="789" 
d="M420 -13q-94 0 -167 45.5t-114.5 136.5t-41.5 223q0 130 40 224t112.5 142.5t169.5 48.5q109 0 186 -57.5t98 -166.5h-162q-11 44 -41 70t-82 26q-48 0 -84 -24.5t-57.5 -82.5t-21.5 -155h3q27 48 75 77.5t122 29.5q76 0 136 -32.5t93.5 -90.5t33.5 -133q0 -81 -39 -145
t-107 -100t-152 -36zM419 115q44 0 76 19t50 53t18 76q0 43 -17.5 76.5t-50 52.5t-76.5 19q-43 0 -75.5 -19t-50 -53t-17.5 -76q0 -41 16.5 -74.5t49 -53.5t77.5 -20z" />
    <glyph glyph-name="uni2088" unicode="&#x2088;" horiz-adv-x="782" 
d="M402 -13q-90 0 -162 28.5t-113 83t-41 128.5q0 75 43 124t113 70v4q-60 23 -93.5 66t-33.5 103q0 64 37 112t102 74t146 26q79 0 144 -25t103 -73t38 -113q0 -60 -33 -103.5t-94 -66.5v-3q69 -21 112.5 -69.5t43.5 -125.5q0 -74 -40 -128.5t-111 -83t-161 -28.5zM401 115
q42 0 74 15t49.5 42.5t17.5 64.5q0 36 -17.5 63t-49.5 42t-74 15q-43 0 -75 -15t-49.5 -42t-17.5 -63q0 -37 17.5 -64.5t50 -42.5t74.5 -15zM400 471q38 0 67 13.5t45 38.5t16 57q0 33 -16 57.5t-45 38.5t-67 14q-39 0 -67.5 -14t-44 -38.5t-15.5 -57.5t16 -57.5t44.5 -38
t66.5 -13.5z" />
    <glyph glyph-name="uni2089" unicode="&#x2089;" horiz-adv-x="789" 
d="M385 806q94 0 167 -45.5t114.5 -136.5t41.5 -223q0 -130 -40 -224t-112.5 -142.5t-169.5 -48.5q-109 0 -186 57.5t-98 166.5h162q11 -44 41 -70t82 -26q48 0 84 24.5t57.5 82.5t21.5 155h-3q-27 -48 -75 -77.5t-122 -29.5q-76 0 -136 32.5t-93.5 90.5t-33.5 133
q0 81 39 145t107 100t152 36zM386 678q-44 0 -76 -19t-50 -53t-18 -76q0 -43 17.5 -76.5t50 -52.5t76.5 -19q43 0 75.5 19t50 53t17.5 76q0 41 -16.5 74.5t-49 53.5t-77.5 20z" />
    <glyph glyph-name="glyph322" horiz-adv-x="826" 
d="M414 -13q-100 0 -170.5 46.5t-107 134t-36.5 210.5v35q0 187 82 290t232 103q151 0 231.5 -102.5t80.5 -290.5v-35q0 -186 -80.5 -288.5t-231.5 -102.5zM415 122q76 0 112 63.5t36 181.5v58q0 119 -37 182.5t-112 63.5t-113 -64t-38 -182v-58q0 -117 38.5 -181t113.5 -64
z" />
    <glyph glyph-name="glyph323" horiz-adv-x="557" 
d="M256 0v621l-186 -119v157l206 134h140v-793h-160z" />
    <glyph glyph-name="glyph324" horiz-adv-x="761" 
d="M92 0v121l308 275l3.5 3.5l3.5 3.5q35 31 53.5 52t31.5 47.5t13 58.5q0 36 -15 62.5t-44 41t-68 14.5q-45 0 -75.5 -18.5t-45 -50t-14.5 -71.5h-161q0 72 33 132.5t99 97.5t161 37q81 0 147 -28t104.5 -83t38.5 -133q0 -56 -22.5 -102.5t-56 -82t-86.5 -80.5l-1 -1
l-179 -159h352v-137h-580z" />
    <glyph glyph-name="glyph325" horiz-adv-x="779" 
d="M384 -13q-96 0 -165.5 33.5t-105.5 91t-36 126.5h155q1 -35 19 -64t52 -45.5t78 -16.5q46 0 78.5 15.5t49.5 43.5t17 65q0 55 -40 86t-115 31h-52v118h57q60 0 95.5 27t35.5 76q0 50 -34 79t-92 29t-92.5 -32.5t-37.5 -84.5h-154q4 75 40 129t100 83t149 29
q91 0 154 -28.5t94.5 -76.5t31.5 -109q0 -63 -33 -104.5t-97 -63.5v-3q49 -14 84 -39.5t53.5 -63t18.5 -86.5q0 -72 -37 -127.5t-106.5 -86.5t-164.5 -31z" />
    <glyph glyph-name="glyph326" horiz-adv-x="769" 
d="M437 0v167h-368v106l384 520h143v-509h106v-117h-106v-167h-159zM212 284h225v294z" />
    <glyph glyph-name="glyph327" horiz-adv-x="769" 
d="M383 -13q-85 0 -152 31t-105 85t-42 121h155q9 -46 48 -76.5t97 -30.5q44 0 76.5 17.5t50 50.5t17.5 77q0 42 -18 74.5t-50 49.5t-75 17q-46 0 -79.5 -19.5t-54.5 -48.5h-144l44 458h495v-130h-362l-19 -194h3q27 21 67.5 34.5t89.5 13.5q73 0 132 -30t93 -87.5
t34 -135.5q0 -80 -37 -143t-105.5 -98.5t-158.5 -35.5z" />
    <glyph glyph-name="glyph328" horiz-adv-x="805" 
d="M420 -13q-94 0 -167 45.5t-114.5 136.5t-41.5 223q0 130 40 224t112.5 142.5t169.5 48.5q109 0 186 -57.5t98 -166.5h-162q-11 44 -41 70t-82 26q-48 0 -84 -24.5t-57.5 -82.5t-21.5 -155h3q27 48 75 77.5t122 29.5q76 0 136 -32.5t93.5 -90.5t33.5 -133q0 -81 -39 -145
t-107 -100t-152 -36zM419 115q44 0 76 19t50 53t18 76q0 43 -17.5 76.5t-50 52.5t-76.5 19q-43 0 -75.5 -19t-50 -53t-17.5 -76q0 -41 16.5 -74.5t49 -53.5t77.5 -20z" />
    <glyph glyph-name="glyph329" horiz-adv-x="801" 
d="M402 -13q-90 0 -162 28.5t-113 83t-41 128.5q0 75 43 124t113 70v4q-60 23 -93.5 66t-33.5 103q0 64 37 112t102 74t146 26q79 0 144 -25t103 -73t38 -113q0 -60 -33 -103.5t-94 -66.5v-3q69 -21 112.5 -69.5t43.5 -125.5q0 -74 -40 -128.5t-111 -83t-161 -28.5zM401 115
q42 0 74 15t49.5 42.5t17.5 64.5q0 36 -17.5 63t-49.5 42t-74 15q-43 0 -75 -15t-49.5 -42t-17.5 -63q0 -37 17.5 -64.5t50 -42.5t74.5 -15zM400 471q38 0 67 13.5t45 38.5t16 57q0 33 -16 57.5t-45 38.5t-67 14q-39 0 -67.5 -14t-44 -38.5t-15.5 -57.5t16 -57.5t44.5 -38
t66.5 -13.5z" />
    <glyph glyph-name="glyph330" horiz-adv-x="805" 
d="M385 806q94 0 167 -45.5t114.5 -136.5t41.5 -223q0 -130 -40 -224t-112.5 -142.5t-169.5 -48.5q-109 0 -186 57.5t-98 166.5h162q11 -44 41 -70t82 -26q48 0 84 24.5t57.5 82.5t21.5 155h-3q-27 -48 -75 -77.5t-122 -29.5q-76 0 -136 32.5t-93.5 90.5t-33.5 133
q0 81 39 145t107 100t152 36zM386 678q-44 0 -76 -19t-50 -53t-18 -76q0 -43 17.5 -76.5t50 -52.5t76.5 -19q43 0 75.5 19t50 53t17.5 76q0 41 -16.5 74.5t-49 53.5t-77.5 20z" />
    <glyph glyph-name="zero.frac" horiz-adv-x="809" 
d="M414 640q-100 0 -170.5 46.5t-107 134t-36.5 210.5v35q0 187 82 290t232 103q151 0 231.5 -102.5t80.5 -290.5v-35q0 -186 -80.5 -288.5t-231.5 -102.5zM415 775q76 0 112 63.5t36 181.5v58q0 119 -37 182.5t-112 63.5t-113 -64t-38 -182v-58q0 -117 38.5 -181t113.5 -64
z" />
    <glyph glyph-name="glyph332" horiz-adv-x="528" 
d="M256 654v621l-186 -119v157l206 134h140v-793h-160z" />
    <glyph glyph-name="glyph333" horiz-adv-x="740" 
d="M92 652v121l308 275l3.5 3.5l3.5 3.5q35 31 53.5 52t31.5 47.5t13 58.5q0 36 -15 62.5t-44 41t-68 14.5q-45 0 -75.5 -18.5t-45 -50t-14.5 -71.5h-161q0 72 33 132.5t99 97.5t161 37q81 0 147 -28t104.5 -83t38.5 -133q0 -56 -22.5 -102.5t-56 -82t-86.5 -80.5l-1 -1
l-179 -159h352v-137h-580z" />
    <glyph glyph-name="glyph334" horiz-adv-x="764" 
d="M384 640q-96 0 -165.5 33.5t-105.5 91t-36 126.5h155q1 -35 19 -64t52 -45.5t78 -16.5q46 0 78.5 15.5t49.5 43.5t17 65q0 55 -40 86t-115 31h-52v118h57q60 0 95.5 27t35.5 76q0 50 -34 79t-92 29t-92.5 -32.5t-37.5 -84.5h-154q4 75 40 129t100 83t149 29
q91 0 154 -28.5t94.5 -76.5t31.5 -109q0 -63 -33 -104.5t-97 -63.5v-3q49 -14 84 -39.5t53.5 -63t18.5 -86.5q0 -72 -37 -127.5t-106.5 -86.5t-164.5 -31z" />
    <glyph glyph-name="four.frac" horiz-adv-x="755" 
d="M437 653v167h-368v106l384 520h143v-509h106v-117h-106v-167h-159zM212 937h225v294z" />
    <glyph glyph-name="five.frac" horiz-adv-x="753" 
d="M383 645q-85 0 -152 31t-105 85t-42 121h155q9 -46 48 -76.5t97 -30.5q44 0 76.5 17.5t50 50.5t17.5 77q0 42 -18 74.5t-50 49.5t-75 17q-46 0 -79.5 -19.5t-54.5 -48.5h-144l44 458h495v-130h-362l-19 -194h3q27 21 67.5 34.5t89.5 13.5q73 0 132 -30t93 -87.5
t34 -135.5q0 -80 -37 -143t-105.5 -98.5t-158.5 -35.5z" />
    <glyph glyph-name="six.frac" horiz-adv-x="789" 
d="M420 640q-94 0 -167 45.5t-114.5 136.5t-41.5 223q0 130 40 224t112.5 142.5t169.5 48.5q109 0 186 -57.5t98 -166.5h-162q-11 44 -41 70t-82 26q-48 0 -84 -24.5t-57.5 -82.5t-21.5 -155h3q27 48 75 77.5t122 29.5q76 0 136 -32.5t93.5 -90.5t33.5 -133q0 -81 -39 -145
t-107 -100t-152 -36zM419 768q44 0 76 19t50 53t18 76q0 43 -17.5 76.5t-50 52.5t-76.5 19q-43 0 -75.5 -19t-50 -53t-17.5 -76q0 -41 16.5 -74.5t49 -53.5t77.5 -20z" />
    <glyph glyph-name="eight.frac" horiz-adv-x="782" 
d="M402 640q-90 0 -162 28.5t-113 83t-41 128.5q0 75 43 124t113 70v4q-60 23 -93.5 66t-33.5 103q0 64 37 112t102 74t146 26q79 0 144 -25t103 -73t38 -113q0 -60 -33 -103.5t-94 -66.5v-3q69 -21 112.5 -69.5t43.5 -125.5q0 -74 -40 -128.5t-111 -83t-161 -28.5zM401 768
q42 0 74 15t49.5 42.5t17.5 64.5q0 36 -17.5 63t-49.5 42t-74 15q-43 0 -75 -15t-49.5 -42t-17.5 -63q0 -37 17.5 -64.5t50 -42.5t74.5 -15zM400 1124q38 0 67 13.5t45 38.5t16 57q0 33 -16 57.5t-45 38.5t-67 14q-39 0 -67.5 -14t-44 -38.5t-15.5 -57.5t16 -57.5t44.5 -38
t66.5 -13.5z" />
    <glyph glyph-name="nine.frac" horiz-adv-x="789" 
d="M385 1459q94 0 167 -45.5t114.5 -136.5t41.5 -223q0 -130 -40 -224t-112.5 -142.5t-169.5 -48.5q-109 0 -186 57.5t-98 166.5h162q11 -44 41 -70t82 -26q48 0 84 24.5t57.5 82.5t21.5 155h-3q-27 -48 -75 -77.5t-122 -29.5q-76 0 -136 32.5t-93.5 90.5t-33.5 133
q0 81 39 145t107 100t152 36zM386 1331q-44 0 -76 -19t-50 -53t-18 -76q0 -43 17.5 -76.5t50 -52.5t76.5 -19q43 0 75.5 19t50 53t17.5 76q0 41 -16.5 74.5t-49 53.5t-77.5 20z" />
    <glyph glyph-name="uni2070" unicode="&#x2070;" horiz-adv-x="809" 
d="M414 640q-100 0 -170.5 46.5t-107 134t-36.5 210.5v35q0 187 82 290t232 103q151 0 231.5 -102.5t80.5 -290.5v-35q0 -186 -80.5 -288.5t-231.5 -102.5zM415 775q76 0 112 63.5t36 181.5v58q0 119 -37 182.5t-112 63.5t-113 -64t-38 -182v-58q0 -117 38.5 -181t113.5 -64
z" />
    <glyph glyph-name="uni2074" unicode="&#x2074;" horiz-adv-x="755" 
d="M437 653v167h-368v106l384 520h143v-509h106v-117h-106v-167h-159zM212 937h225v294z" />
    <glyph glyph-name="uni2075" unicode="&#x2075;" horiz-adv-x="753" 
d="M383 645q-85 0 -152 31t-105 85t-42 121h155q9 -46 48 -76.5t97 -30.5q44 0 76.5 17.5t50 50.5t17.5 77q0 42 -18 74.5t-50 49.5t-75 17q-46 0 -79.5 -19.5t-54.5 -48.5h-144l44 458h495v-130h-362l-19 -194h3q27 21 67.5 34.5t89.5 13.5q73 0 132 -30t93 -87.5
t34 -135.5q0 -80 -37 -143t-105.5 -98.5t-158.5 -35.5z" />
    <glyph glyph-name="uni2076" unicode="&#x2076;" horiz-adv-x="789" 
d="M420 640q-94 0 -167 45.5t-114.5 136.5t-41.5 223q0 130 40 224t112.5 142.5t169.5 48.5q109 0 186 -57.5t98 -166.5h-162q-11 44 -41 70t-82 26q-48 0 -84 -24.5t-57.5 -82.5t-21.5 -155h3q27 48 75 77.5t122 29.5q76 0 136 -32.5t93.5 -90.5t33.5 -133q0 -81 -39 -145
t-107 -100t-152 -36zM419 768q44 0 76 19t50 53t18 76q0 43 -17.5 76.5t-50 52.5t-76.5 19q-43 0 -75.5 -19t-50 -53t-17.5 -76q0 -41 16.5 -74.5t49 -53.5t77.5 -20z" />
    <glyph glyph-name="uni2078" unicode="&#x2078;" horiz-adv-x="782" 
d="M402 640q-90 0 -162 28.5t-113 83t-41 128.5q0 75 43 124t113 70v4q-60 23 -93.5 66t-33.5 103q0 64 37 112t102 74t146 26q79 0 144 -25t103 -73t38 -113q0 -60 -33 -103.5t-94 -66.5v-3q69 -21 112.5 -69.5t43.5 -125.5q0 -74 -40 -128.5t-111 -83t-161 -28.5zM401 768
q42 0 74 15t49.5 42.5t17.5 64.5q0 36 -17.5 63t-49.5 42t-74 15q-43 0 -75 -15t-49.5 -42t-17.5 -63q0 -37 17.5 -64.5t50 -42.5t74.5 -15zM400 1124q38 0 67 13.5t45 38.5t16 57q0 33 -16 57.5t-45 38.5t-67 14q-39 0 -67.5 -14t-44 -38.5t-15.5 -57.5t16 -57.5t44.5 -38
t66.5 -13.5z" />
    <glyph glyph-name="uni2079" unicode="&#x2079;" horiz-adv-x="789" 
d="M385 1459q94 0 167 -45.5t114.5 -136.5t41.5 -223q0 -130 -40 -224t-112.5 -142.5t-169.5 -48.5q-109 0 -186 57.5t-98 166.5h162q11 -44 41 -70t82 -26q48 0 84 24.5t57.5 82.5t21.5 155h-3q-27 -48 -75 -77.5t-122 -29.5q-76 0 -136 32.5t-93.5 90.5t-33.5 133
q0 81 39 145t107 100t152 36zM386 1331q-44 0 -76 -19t-50 -53t-18 -76q0 -43 17.5 -76.5t50 -52.5t76.5 -19q43 0 75.5 19t50 53t17.5 76q0 41 -16.5 74.5t-49 53.5t-77.5 20z" />
    <glyph glyph-name="uni2081" unicode="&#x2081;" horiz-adv-x="548" 
d="M277 0v598h-4q-43 -32 -94 -51.5t-109 -24.5v133q72 9 132 46.5t97 91.5h136v-793h-158z" />
    <glyph glyph-name="glyph347" horiz-adv-x="577" 
d="M277 0v598h-4q-43 -32 -94 -51.5t-109 -24.5v133q72 9 132 46.5t97 91.5h136v-793h-158z" />
    <glyph glyph-name="uni00B9" unicode="&#xb9;" horiz-adv-x="548" 
d="M277 654v598h-4q-43 -32 -94 -51.5t-109 -24.5v133q72 9 132 46.5t97 91.5h136v-793h-158z" />
    <glyph glyph-name="uni2087" unicode="&#x2087;" horiz-adv-x="727" 
d="M66 657v136h596v-121q-45 -65 -51 -75q-60 -90 -104.5 -176.5t-78 -190.5t-54.5 -230h-152q20 123 51.5 224.5t73 186t96.5 173.5q15 25 45 70v3h-422z" />
    <glyph glyph-name="glyph350" horiz-adv-x="732" 
d="M66 657v136h596v-121q-45 -65 -51 -75q-60 -90 -104.5 -176.5t-78 -190.5t-54.5 -230h-152q20 123 51.5 224.5t73 186t96.5 173.5q15 25 45 70v3h-422z" />
    <glyph glyph-name="uni2077" unicode="&#x2077;" horiz-adv-x="727" 
d="M66 1310v136h596v-121q-45 -65 -51 -75q-60 -90 -104.5 -176.5t-78 -190.5t-54.5 -230h-152q20 123 51.5 224.5t73 186t96.5 173.5q15 25 45 70v3h-422z" />
    <glyph glyph-name="uni2082" unicode="&#x2082;" horiz-adv-x="747" 
d="M93 61q0 78 33.5 132.5t81 88t124.5 75.5q62 33 97.5 57t59.5 58t24 80q0 38 -16 65.5t-46 42.5t-70 15q-63 0 -98 -37t-37 -99h-160q0 73 33 134t100.5 97.5t166.5 36.5q85 0 149 -32t98.5 -89t34.5 -130q0 -74 -33 -127t-79 -86.5t-121 -74.5q-47 -27 -73 -43.5
t-48.5 -38t-33.5 -46.5v-3h397v-137h-584v61z" />
    <glyph glyph-name="glyph353" horiz-adv-x="766" 
d="M93 61q0 78 33.5 132.5t81 88t124.5 75.5q62 33 97.5 57t59.5 58t24 80q0 38 -16 65.5t-46 42.5t-70 15q-63 0 -98 -37t-37 -99h-160q0 73 33 134t100.5 97.5t166.5 36.5q85 0 149 -32t98.5 -89t34.5 -130q0 -74 -33 -127t-79 -86.5t-121 -74.5q-47 -27 -73 -43.5
t-48.5 -38t-33.5 -46.5v-3h397v-137h-584v61z" />
    <glyph glyph-name="uni00B2" unicode="&#xb2;" horiz-adv-x="747" 
d="M93 713q0 78 33.5 132.5t81 88t124.5 75.5q62 33 97.5 57t59.5 58t24 80q0 38 -16 65.5t-46 42.5t-70 15q-63 0 -98 -37t-37 -99h-160q0 73 33 134t100.5 97.5t166.5 36.5q85 0 149 -32t98.5 -89t34.5 -130q0 -74 -33 -127t-79 -86.5t-121 -74.5q-47 -27 -73 -43.5
t-48.5 -38t-33.5 -46.5v-3h397v-137h-584v61z" />
    <glyph glyph-name="uni2083" unicode="&#x2083;" horiz-adv-x="758" 
d="M385 -13q-86 0 -152 26.5t-105 74t-49 109.5q-2 10 -2.5 20.5t-0.5 20.5h154q2 -37 22 -66t53 -44.5t76 -15.5t76 15.5t50.5 45.5t17.5 69q0 59 -39.5 92t-113.5 33q-34 0 -56 -8l-71 93l231 208h-377v133h561v-133l-216 -191q82 -4 137 -36.5t81.5 -83.5t26.5 -112
q0 -73 -36.5 -129.5t-105 -88.5t-162.5 -32z" />
    <glyph glyph-name="glyph356" horiz-adv-x="773" 
d="M385 -13q-86 0 -152 26.5t-105 74t-49 109.5q-2 10 -2.5 20.5t-0.5 20.5h154q2 -37 22 -66t53 -44.5t76 -15.5t76 15.5t50.5 45.5t17.5 69q0 59 -39.5 92t-113.5 33q-34 0 -56 -8l-71 93l231 208h-377v133h561v-133l-216 -191q82 -4 137 -36.5t81.5 -83.5t26.5 -112
q0 -73 -36.5 -129.5t-105 -88.5t-162.5 -32z" />
    <glyph glyph-name="uni00B3" unicode="&#xb3;" horiz-adv-x="758" 
d="M385 640q-86 0 -152 26.5t-105 74t-49 109.5q-2 10 -2.5 20.5t-0.5 20.5h154q2 -37 22 -66t53 -44.5t76 -15.5t76 15.5t50.5 45.5t17.5 69q0 59 -39.5 92t-113.5 33q-34 0 -56 -8l-71 93l231 208h-377v133h561v-133l-216 -191q82 -4 137 -36.5t81.5 -83.5t26.5 -112
q0 -73 -36.5 -129.5t-105 -88.5t-162.5 -32z" />
    <glyph glyph-name="fraction" unicode="&#x2044;" horiz-adv-x="466" 
d="M-304 0l902 1442h171l-902 -1442h-171z" />
    <glyph glyph-name="uni215F" unicode="&#x215f;" horiz-adv-x="1008" 
d="M256 654v621l-186 -119v157l206 134h140v-793h-160zM268 0l902 1442h171l-902 -1442h-171z" />
    <glyph glyph-name="onehalf" unicode="&#xbd;" horiz-adv-x="1695" 
d="M256 654v621l-186 -119v157l206 134h140v-793h-160zM268 0l902 1442h171l-902 -1442h-171zM1047 0v121l308 275l3.5 3.5l3.5 3.5q35 31 53.5 52t31.5 47.5t13 58.5q0 36 -15 62.5t-44 41t-68 14.5q-45 0 -75.5 -18.5t-45 -50t-14.5 -71.5h-161q0 72 33 132.5t99 97.5
t161 37q81 0 147 -28t104.5 -83t38.5 -133q0 -56 -22.5 -102.5t-56 -82t-86.5 -80.5l-1 -1l-179 -159h352v-137h-580z" />
    <glyph glyph-name="onethird" unicode="&#x2153;" horiz-adv-x="1731" 
d="M256 654v621l-186 -119v157l206 134h140v-793h-160zM268 0l902 1442h171l-902 -1442h-171zM1352 -13q-96 0 -165.5 33.5t-105.5 91t-36 126.5h155q1 -35 19 -64t52 -45.5t78 -16.5q46 0 78.5 15.5t49.5 43.5t17 65q0 55 -40 86t-115 31h-52v118h57q60 0 95.5 27t35.5 76
q0 50 -34 79t-92 29t-92.5 -32.5t-37.5 -84.5h-154q4 75 40 129t100 83t149 29q91 0 154 -28.5t94.5 -76.5t31.5 -109q0 -63 -33 -104.5t-97 -63.5v-3q49 -14 84 -39.5t53.5 -63t18.5 -86.5q0 -72 -37 -127.5t-106.5 -86.5t-164.5 -31z" />
    <glyph glyph-name="twothirds" unicode="&#x2154;" horiz-adv-x="1908" 
d="M92 652v121l308 275l3.5 3.5l3.5 3.5q35 31 53.5 52t31.5 47.5t13 58.5q0 36 -15 62.5t-44 41t-68 14.5q-45 0 -75.5 -18.5t-45 -50t-14.5 -71.5h-161q0 72 33 132.5t99 97.5t161 37q81 0 147 -28t104.5 -83t38.5 -133q0 -56 -22.5 -102.5t-56 -82t-86.5 -80.5l-1 -1
l-179 -159h352v-137h-580zM445 0l902 1442h171l-902 -1442h-171zM1528 -13q-96 0 -165.5 33.5t-105.5 91t-36 126.5h155q1 -35 19 -64t52 -45.5t78 -16.5q46 0 78.5 15.5t49.5 43.5t17 65q0 55 -40 86t-115 31h-52v118h57q60 0 95.5 27t35.5 76q0 50 -34 79t-92 29
t-92.5 -32.5t-37.5 -84.5h-154q4 75 40 129t100 83t149 29q91 0 154 -28.5t94.5 -76.5t31.5 -109q0 -63 -33 -104.5t-97 -63.5v-3q49 -14 84 -39.5t53.5 -63t18.5 -86.5q0 -72 -37 -127.5t-106.5 -86.5t-164.5 -31z" />
    <glyph glyph-name="onequarter" unicode="&#xbc;" horiz-adv-x="1608" 
d="M256 654v621l-186 -119v157l206 134h140v-793h-160zM268 0l902 1442h171l-902 -1442h-171zM1289 0v167h-368v106l384 520h143v-509h106v-117h-106v-167h-159zM1064 284h225v294z" />
    <glyph glyph-name="threequarters" unicode="&#xbe;" horiz-adv-x="1808" 
d="M384 640q-96 0 -165.5 33.5t-105.5 91t-36 126.5h155q1 -35 19 -64t52 -45.5t78 -16.5q46 0 78.5 15.5t49.5 43.5t17 65q0 55 -40 86t-115 31h-52v118h57q60 0 95.5 27t35.5 76q0 50 -34 79t-92 29t-92.5 -32.5t-37.5 -84.5h-154q4 75 40 129t100 83t149 29
q91 0 154 -28.5t94.5 -76.5t31.5 -109q0 -63 -33 -104.5t-97 -63.5v-3q49 -14 84 -39.5t53.5 -63t18.5 -86.5q0 -72 -37 -127.5t-106.5 -86.5t-164.5 -31zM469 0l902 1442h171l-902 -1442h-171zM1490 0v167h-368v106l384 520h143v-509h106v-117h-106v-167h-159zM1265 284
h225v294z" />
    <glyph glyph-name="period" unicode="." horiz-adv-x="607" 
d="M304 -10q-39 0 -70.5 18t-49.5 49t-18 71q0 39 18 70t49.5 49t70.5 18t70 -18t49 -49t18 -70q0 -40 -18 -71t-49 -49t-70 -18z" />
    <glyph glyph-name="comma" unicode="," horiz-adv-x="607" 
d="M158 -214q54 9 94 40t62 76.5t26 95.5q-21 -5 -41 -5q-38 0 -68.5 17.5t-47.5 48t-17 67.5q0 38 16 69.5t47 50t72 18.5q67 0 108.5 -50.5t41.5 -148.5q0 -85 -30.5 -168.5t-96.5 -143t-166 -71.5v104z" />
    <glyph glyph-name="colon" unicode=":" horiz-adv-x="607" 
d="M304 -10q-39 0 -70.5 18t-49.5 49t-18 71q0 39 18 70t49.5 49t70.5 18t70 -18t49 -49t18 -70q0 -40 -18 -71t-49 -49t-70 -18zM304 788q-39 0 -70.5 18t-49.5 49t-18 71q0 39 18 70t49.5 49t70.5 18t70 -18t49 -49t18 -70q0 -40 -18 -71t-49 -49t-70 -18z" />
    <glyph glyph-name="semicolon" unicode=";" horiz-adv-x="607" 
d="M158 -214q54 9 94 40t62 76.5t26 95.5q-21 -5 -41 -5q-38 0 -68.5 17.5t-47.5 48t-17 67.5q0 38 16 69.5t47 50t72 18.5q67 0 108.5 -50.5t41.5 -148.5q0 -85 -30.5 -168.5t-96.5 -143t-166 -71.5v104zM302 788q-39 0 -70.5 18t-49.5 49t-18 71q0 39 18 70t49.5 49
t70.5 18t70 -18t49 -49t18 -70q0 -40 -18 -71t-49 -49t-70 -18z" />
    <glyph glyph-name="ellipsis" unicode="&#x2026;" horiz-adv-x="1321" 
d="M661 -10q-39 0 -70.5 18t-49.5 49t-18 71q0 39 18 70t49.5 49t70.5 18t70 -18t49 -49t18 -70q0 -40 -18 -71t-49 -49t-70 -18zM1018 -10q-39 0 -70.5 18t-49.5 49t-18 71q0 39 18 70t49.5 49t70.5 18t70 -18t49 -49t18 -70q0 -40 -18 -71t-49 -49t-70 -18zM304 -10
q-39 0 -70.5 18t-49.5 49t-18 71q0 39 18 70t49.5 49t70.5 18t70 -18t49 -49t18 -70q0 -40 -18 -71t-49 -49t-70 -18z" />
    <glyph glyph-name="exclam" unicode="!" horiz-adv-x="577" 
d="M188 384v1058h201v-1058h-201zM289 -9q-38 0 -68.5 17t-47.5 47t-17 68t17 68.5t47.5 47.5t68.5 17t68 -17t47 -47.5t17 -68.5t-17 -68t-47 -47t-68 -17z" />
    <glyph glyph-name="exclamdown" unicode="&#xa1;" horiz-adv-x="577" 
d="M389 709v-1058h-201v1058h201zM289 1102q38 0 68 -17t47 -47t17 -68t-17 -68.5t-47 -47.5t-68 -17t-68.5 17t-47.5 47.5t-17 68.5t17 68t47.5 47t68.5 17z" />
    <glyph glyph-name="question" unicode="?" horiz-adv-x="1175" 
d="M479 413q0 97 29.5 165t72 109.5t111.5 91.5q57 41 90 72.5t56 76t23 104.5q0 67 -29.5 124.5t-92.5 93t-161 35.5q-103 0 -168 -40.5t-94.5 -105t-29.5 -140.5h-197q0 130 55.5 235.5t168 168.5t274.5 63q171 0 279 -66t155 -162.5t47 -195.5t-31 -169.5t-75 -114.5
t-115 -100q-56 -43 -89.5 -74t-55 -73.5t-21.5 -97.5v-33h-202v33zM580 -10q-38 0 -69 17.5t-48.5 48.5t-17.5 69q0 39 17.5 69.5t48.5 47.5t69 17q39 0 69 -17t47.5 -47.5t17.5 -69.5q0 -38 -17.5 -69t-47.5 -48.5t-69 -17.5z" />
    <glyph glyph-name="questiondown" unicode="&#xbf;" horiz-adv-x="1175" 
d="M697 678q0 -98 -30 -165.5t-72.5 -109.5t-111.5 -91q-57 -42 -90 -73t-56 -75.5t-23 -105.5q0 -66 29.5 -123.5t92.5 -93.5t161 -36q103 0 168 40.5t94.5 105.5t29.5 140h198q0 -129 -56 -234.5t-168.5 -168.5t-274.5 -63q-171 0 -279 65.5t-155 162.5t-47 195
q0 99 31 170t75 115t115 99q57 44 90 75t54.5 73.5t21.5 97.5v32h203v-32zM556 1100q38 0 69 -17t48.5 -48t17.5 -70q0 -38 -17.5 -68.5t-48.5 -48t-69 -17.5q-39 0 -69.5 17.5t-47.5 48t-17 68.5q0 39 17 70t47.5 48t69.5 17z" />
    <glyph glyph-name="periodcentered" unicode="&#xb7;" horiz-adv-x="607" 
d="M304 454q-39 0 -70.5 18t-49.5 49t-18 71q0 39 18 70t49.5 49t70.5 18t70 -18t49 -49t18 -70q0 -40 -18 -71t-49 -49t-70 -18z" />
    <glyph glyph-name="bullet" unicode="&#x2022;" horiz-adv-x="959" 
d="M449 415q-58.5 0 -105.75 27t-74.25 73.5t-27 106.5q0 58.5 27 105t74.25 73.5t105.75 27t105 -27t73.5 -73.5t27 -105q0 -60 -27 -106.5t-73.5 -73.5t-105 -27z" />
    <glyph glyph-name="asterisk" unicode="*" horiz-adv-x="1068" 
d="M863 1290l63 -111l-279 -152l279 -154l-63 -110l-273 164l7 -317h-127l8 317l-273 -164l-63 110l278 154l-278 152l63 111l273 -166l-8 318h127l-7 -318z" />
    <glyph glyph-name="numbersign" unicode="#" horiz-adv-x="1403" 
d="M1270 1059v-145h-244l-30 -386h236v-145h-248l-32 -383h-149l33 383h-324l-33 -383h-148l32 383h-230v145h242l32 386h-237v145h249l32 383h148l-32 -383h324l33 383h146l-31 -383h231zM521 525h329l32 392h-329z" />
    <glyph glyph-name="slash" unicode="/" horiz-adv-x="815" 
d="M0 -290l625 1810h190l-624 -1810h-191z" />
    <glyph glyph-name="backslash" unicode="\" horiz-adv-x="761" 
d="M570 -290l-624 1810h191l624 -1810h-191z" />
    <glyph glyph-name="parenleft" unicode="(" horiz-adv-x="726" 
d="M464 -290q-136 197 -206 430t-70 475t70 475t206 430h180q-124 -193 -189 -424t-65 -481t65 -481t189 -424h-180z" />
    <glyph glyph-name="parenright" unicode=")" horiz-adv-x="726" 
d="M82 -290q124 193 189 424t65 481t-65 481t-189 424h180q136 -197 206 -430t70 -475t-70 -475t-206 -430h-180z" />
    <glyph glyph-name="braceleft" unicode="{" horiz-adv-x="752" 
d="M478 887q0 -73 -31 -133t-85.5 -102.5t-125.5 -62.5l-2 54q72 -19 127 -60t86 -100.5t31 -131.5v-291q0 -107 47 -148.5t131 -41.5v-160q-157 0 -257.5 70t-100.5 245v293q0 66 -27.5 115.5t-76 76.5t-109.5 27v162q62 0 110.5 26.5t75.5 76.5t27 116v286q0 171 99 243.5
t259 72.5v-161q-86 0 -132 -43.5t-46 -145.5v-283z" />
    <glyph glyph-name="braceright" unicode="}" horiz-adv-x="752" 
d="M85 -130q85 0 132 41.5t47 148.5v291q0 91 49 161t130 105q-81 37 -130 107.5t-49 162.5v283q0 102 -46 145.5t-133 43.5v161q161 0 259.5 -72.5t98.5 -243.5v-286q0 -66 27 -116t75.5 -76.5t110.5 -26.5v-162q-61 0 -109.5 -27t-76 -76.5t-27.5 -115.5v-293
q0 -175 -100 -245t-258 -70v160z" />
    <glyph glyph-name="bracketleft" unicode="[" horiz-adv-x="648" 
d="M188 -290v1810h365v-161h-172v-1489h172v-160h-365z" />
    <glyph glyph-name="bracketright" unicode="]" horiz-adv-x="648" 
d="M95 -290v160h172v1489h-172v161h364v-1810h-364z" />
    <glyph glyph-name="hyphen" unicode="-" horiz-adv-x="1021" 
d="M154 512v159h713v-159h-713z" />
    <glyph glyph-name="uni00AD" unicode="&#xad;" horiz-adv-x="0" 
 />
    <glyph glyph-name="endash" unicode="&#x2013;" horiz-adv-x="1260" 
d="M83 512v159h1095v-159h-1095z" />
    <glyph glyph-name="emdash" unicode="&#x2014;" horiz-adv-x="1780" 
d="M83 512v159h1615v-159h-1615z" />
    <glyph glyph-name="underscore" unicode="_" horiz-adv-x="1095" 
d="M1 -255v159h1095v-159h-1095z" />
    <glyph glyph-name="quotesinglbase" unicode="&#x201a;" horiz-adv-x="607" 
d="M158 -214q54 9 94 40t62 76.5t26 95.5q-21 -5 -41 -5q-38 0 -68.5 17.5t-47.5 48t-17 67.5q0 38 16 69.5t47 50t72 18.5q67 0 108.5 -50.5t41.5 -148.5q0 -85 -30.5 -168.5t-96.5 -143t-166 -71.5v104z" />
    <glyph glyph-name="quotedblbase" unicode="&#x201e;" horiz-adv-x="972" 
d="M522 -213q54 9 94 40t62 76.5t26 95.5q-21 -5 -41 -5q-38 0 -68.5 17.5t-47.5 48t-17 67.5q0 38 16 69.5t47 50t72 18.5q67 0 108.5 -50.5t41.5 -148.5q0 -85 -30.5 -168.5t-96.5 -143t-166 -71.5v104zM158 -213q54 9 94 40t62 76.5t26 95.5q-21 -5 -41 -5
q-38 0 -68.5 17.5t-47.5 48t-17 67.5q0 38 16 69.5t47 50t72 18.5q67 0 108.5 -50.5t41.5 -148.5q0 -85 -30.5 -168.5t-96.5 -143t-166 -71.5v104z" />
    <glyph glyph-name="quotedblleft" unicode="&#x201c;" horiz-adv-x="972" 
d="M447 1363q-54 -9 -94 -40t-62 -76.5t-26 -95.5q21 5 41 5q38 0 68.5 -17.5t47.5 -48t17 -67.5q0 -38 -16 -69.5t-47 -50t-72 -18.5q-67 0 -108.5 50.5t-41.5 148.5q0 85 30.5 168.5t96.5 143t166 71.5v-104zM811 1363q-54 -9 -94 -40t-62 -76.5t-26 -95.5q21 5 41 5
q38 0 68.5 -17.5t47.5 -48t17 -67.5q0 -38 -16 -69.5t-47 -50t-72 -18.5q-67 0 -108.5 50.5t-41.5 148.5q0 85 30.5 168.5t96.5 143t166 71.5v-104z" />
    <glyph glyph-name="quotedblright" unicode="&#x201d;" horiz-adv-x="972" 
d="M522 993q54 9 94 40t62 76.5t26 95.5q-21 -5 -41 -5q-38 0 -68.5 17.5t-47.5 48t-17 67.5q0 38 16 69.5t47 50t72 18.5q67 0 108.5 -50.5t41.5 -148.5q0 -85 -30.5 -168.5t-96.5 -143t-166 -71.5v104zM158 993q54 9 94 40t62 76.5t26 95.5q-21 -5 -41 -5
q-38 0 -68.5 17.5t-47.5 48t-17 67.5q0 38 16 69.5t47 50t72 18.5q67 0 108.5 -50.5t41.5 -148.5q0 -85 -30.5 -168.5t-96.5 -143t-166 -71.5v104z" />
    <glyph glyph-name="quoteleft" unicode="&#x2018;" horiz-adv-x="607" 
d="M447 1363q-54 -9 -94 -40t-62 -76.5t-26 -95.5q21 5 41 5q38 0 68.5 -17.5t47.5 -48t17 -67.5q0 -38 -16 -69.5t-47 -50t-72 -18.5q-67 0 -108.5 50.5t-41.5 148.5q0 85 30.5 168.5t96.5 143t166 71.5v-104z" />
    <glyph glyph-name="quoteright" unicode="&#x2019;" horiz-adv-x="607" 
d="M158 994q54 9 94 40t62 76.5t26 95.5q-21 -5 -41 -5q-38 0 -68.5 17.5t-47.5 48t-17 67.5q0 38 16 69.5t47 50t72 18.5q67 0 108.5 -50.5t41.5 -148.5q0 -85 -30.5 -168.5t-96.5 -143t-166 -71.5v104z" />
    <glyph glyph-name="guillemotleft" unicode="&#xab;" horiz-adv-x="1011" 
d="M100 593l228 397h197l-225 -397l225 -402h-199zM487 593l227 397h197l-225 -397l225 -402h-199z" />
    <glyph glyph-name="guillemotright" unicode="&#xbb;" horiz-adv-x="1011" 
d="M233 191l225 402l-225 397h197l228 -397l-226 -402h-199zM353 191l225 402l-225 397h197l227 -397l-225 -402h-199z" />
    <glyph glyph-name="guilsinglleft" unicode="&#x2039;" horiz-adv-x="633" 
d="M100 593l228 397h205l-225 -397l225 -402h-207z" />
    <glyph glyph-name="guilsinglright" unicode="&#x203a;" horiz-adv-x="633" 
d="M100 191l225 402l-225 397h205l228 -397l-226 -402h-207z" />
    <glyph glyph-name="quotedbl" unicode="&#x22;" horiz-adv-x="868" 
d="M523 913l-20 529h187l-20 -529h-147zM198 913l-20 529h187l-20 -529h-147z" />
    <glyph glyph-name="quotesingle" unicode="'" horiz-adv-x="543" 
d="M198 913l-20 529h187l-20 -529h-147z" />
    <glyph glyph-name="glyph403" horiz-adv-x="440" 
d="M220 -10q-41 0 -68 27t-27 69t27 68.5t68 26.5q42 0 68.5 -27t26.5 -68q0 -42 -26.5 -69t-68.5 -27z" />
    <glyph glyph-name="glyph404" horiz-adv-x="440" 
d="M222 563q-27 0 -49 13t-35 35.5t-13 48.5t13 47.5t35 34.5t49 13q25 0 46 -13t34 -34.5t13 -47.5t-12.5 -48.5t-34 -35.5t-46.5 -13z" />
    <glyph glyph-name="uni2001" unicode="&#x2001;" horiz-adv-x="2048" 
 />
    <glyph glyph-name="uni2003" unicode="&#x2003;" horiz-adv-x="2048" 
 />
    <glyph glyph-name="uni2000" unicode="&#x2000;" horiz-adv-x="1024" 
 />
    <glyph glyph-name="uni2002" unicode="&#x2002;" horiz-adv-x="1024" 
 />
    <glyph glyph-name="uni2007" unicode="&#x2007;" 
 />
    <glyph glyph-name="uni200A" unicode="&#x200a;" horiz-adv-x="143" 
 />
    <glyph glyph-name="uni2008" unicode="&#x2008;" horiz-adv-x="607" 
 />
    <glyph glyph-name="uni00A0" unicode="&#xa0;" horiz-adv-x="503" 
 />
    <glyph glyph-name="uni2009" unicode="&#x2009;" horiz-adv-x="256" 
 />
    <glyph glyph-name="uni200B" unicode="&#x200b;" horiz-adv-x="0" 
 />
    <glyph glyph-name="uni007F" horiz-adv-x="532" 
 />
    <glyph glyph-name="uni0E3F" unicode="&#xe3f;" horiz-adv-x="1316" 
d="M162 35v1370h550q118 0 206 -44.5t135.5 -124t47.5 -180.5q0 -109 -56.5 -187t-156.5 -111v-6q126 -33 195.5 -122t69.5 -215q0 -110 -49.5 -196.5t-141.5 -135t-216 -48.5h-584zM699 206q80 0 139 27.5t91.5 78.5t32.5 121q0 69 -32.5 119.5t-91.5 77t-139 26.5h-351
v-450h351zM674 823q75 0 130 24.5t85.5 71.5t30.5 111t-32 110t-89 70.5t-132 24.5h-319v-412h326zM544 -110v1663h153v-1663h-153z" />
    <glyph glyph-name="uni20BF" unicode="&#x20bf;" horiz-adv-x="1316" 
d="M429 -106v141h-275v1370h275v151h115v-151h118v151h115v-155q102 -11 177.5 -57.5t115 -121t39.5 -166.5q0 -109 -57.5 -187t-159.5 -111v-6q128 -33 199 -122t71 -215q0 -106 -46.5 -189.5t-133.5 -133.5t-205 -56v-142h-115v141h-118v-141h-115zM700 206q82 0 143 27.5
t94.5 78.5t33.5 121q0 69 -33 119.5t-94.5 77t-143.5 26.5h-360v-450h360zM675 823q77 0 133.5 24.5t88 71.5t31.5 111t-33 110t-91.5 70.5t-135.5 24.5h-328v-412h335z" />
    <glyph glyph-name="cent" unicode="&#xa2;" 
d="M587 -109v1312h152v-1312h-152zM668 -22q-161 0 -278.5 69t-180 197.5t-62.5 302.5q0 179 64.5 307t181 195t270.5 67q137 0 238.5 -53.5t162 -146.5t77.5 -213h-198q-21 108 -89.5 175t-188.5 67q-100 0 -169 -47.5t-105 -136t-36 -210.5q0 -121 33 -211t103.5 -140.5
t178.5 -50.5q115 0 180 61t93 168h198q-21 -123 -81.5 -213t-159.5 -138.5t-232 -48.5z" />
    <glyph glyph-name="currency" unicode="&#xa4;" horiz-adv-x="1261" 
d="M1068 649q0 -75 -22.5 -141t-63.5 -120l166 -168l-93 -93l-170 168q-53 -40 -118 -61.5t-137 -21.5q-71 0 -135 20t-118 57l-166 -165l-97 97l163 164q-41 54 -63 121t-22 143q0 71 20.5 136.5t60.5 118.5l-159 162l96 95l162 -160q55 40 120 62t138 22q75 0 142 -22.5
t121 -64.5l162 161l93 -94l-159 -160q38 -54 58.5 -119t20.5 -137zM432 554q27 -55 74.5 -88.5t104.5 -38.5t113 21q55 27 88 75t37.5 106t-22.5 114t-74.5 89.5t-104.5 38.5t-112 -22q-55 -26 -88.5 -74t-38 -106.5t22.5 -114.5z" />
    <glyph glyph-name="dollar" unicode="$" horiz-adv-x="1316" 
d="M582 16q-136 14 -232.5 71t-148.5 149t-60 214h201q7 -101 67.5 -169t172.5 -88v456q-135 28 -220.5 72.5t-129.5 116.5t-44 182q0 111 45.5 197t134 139.5t214.5 66.5v130h153v-128q129 -11 222 -64t144 -140t61 -200l-202 1q-3 58 -31.5 105t-77.5 78t-116 42v-428
q148 -31 243 -75.5t146 -121t51 -195.5q0 -125 -53.5 -214.5t-152 -140t-234.5 -59.5v-123h-153v126zM735 188q74 8 127 36t82 74t29 108q0 60 -26 101t-78 67t-134 45v-431zM582 1247q-64 -10 -109 -38.5t-68 -70.5t-23 -94q0 -53 21 -89t64 -60t115 -43v395z" />
    <glyph glyph-name="Euro" unicode="&#x20ac;" horiz-adv-x="1316" 
d="M959 -23q-173 0 -312.5 61t-232.5 180t-130 288h-167v115h151q-4 42 -4 98q0 52 4 101h-151v115h169q37 169 132.5 288.5t236.5 180.5t312 61q64 0 125.5 -8.5t106.5 -20.5v-180q-104 32 -219 32t-211 -39.5t-164.5 -118.5t-101.5 -195h522l-25 -115h-519q-6 -50 -6 -99
q0 -48 6 -100h463l-26 -115h-416q33 -118 103 -197t166 -117.5t209 -38.5q116 0 219 34v-177q-49 -15 -111 -24t-129 -9z" />
    <glyph glyph-name="florin" unicode="&#x192;" horiz-adv-x="983" 
d="M270 -401q-26 0 -55 3t-59 9h-2v153q37 -8 74 -8q78 0 117 41t39 123v1012h-191v158h191v102q0 95 34 167t106.5 112.5t181.5 40.5q25 0 54.5 -3t59.5 -9h2v-153q-38 8 -74 8q-78 0 -117 -41t-39 -122v-102h231v-158h-231v-1013q0 -94 -34 -166t-106.5 -113t-181.5 -41z
" />
    <glyph glyph-name="lira" unicode="&#x20a4;" horiz-adv-x="1316" 
d="M1212 627q0 -201 -85 -341.5t-247.5 -212.5t-392.5 -72h-210v540l-172 -72v125l172 71v195l-172 -71v124l172 72v458h212v-368l418 174v-125l-418 -173v-195l418 174v-124l-418 -174v-447q170 0 288 53t179.5 152t61.5 237h194z" />
    <glyph glyph-name="uni20BD" unicode="&#x20bd;" horiz-adv-x="1317" 
d="M722 573h-238v-216h350v-116h-350v-241h-204v241h-177v116h177v216h-173v115h173v753h442q159 0 270.5 -54t167.5 -150t56 -225q0 -131 -56 -230t-167.5 -154t-270.5 -55zM712 1262h-228v-510h228q96 0 162.5 31t101 89t34.5 140q0 79 -34.5 135t-101 85.5t-162.5 29.5z
" />
    <glyph glyph-name="uni20A8" unicode="&#x20a8;" horiz-adv-x="1317" 
d="M735 0l-572 599v162h291q128 0 208.5 52t98.5 151h-599v116h599q-13 65 -54 109.5t-105.5 66.5t-147.5 22h-292v164h994v-115h-313q54 -46 85 -108.5t39 -138.5h189v-116h-189q-12 -111 -69.5 -193t-157.5 -127t-237 -45h-128l14 32l585 -631h-239z" />
    <glyph glyph-name="sterling" unicode="&#xa3;" horiz-adv-x="1316" 
d="M124 161q138 53 206 134.5t68 180.5q0 42 -9.5 79.5t-27.5 85.5l-1 3h-225v137h168q-21 56 -32.5 112t-11.5 121q0 138 63 239.5t176.5 156.5t264.5 55q114 0 210.5 -23t181.5 -65v-176q-85 47 -175 72t-190 25q-104 0 -177 -36t-111 -103t-38 -160q0 -58 12 -107
t35 -104l3 -7h535v-137h-482q14 -40 21.5 -79.5t7.5 -84.5q0 -89 -50.5 -173t-158.5 -146h806v-161h-1069v161z" />
    <glyph glyph-name="uni20B8" unicode="&#x20b8;" horiz-adv-x="1316" 
d="M547 0v1025h-416v159h1054v-159h-420v-1025h-218zM131 1327v115h1054v-115h-1054z" />
    <glyph glyph-name="uni20AE" unicode="&#x20ae;" horiz-adv-x="1316" 
d="M1208 1442v-185h-447v-356l303 128v-123l-303 -128v-196l303 129v-123l-303 -128v-460h-207v372l-286 -122v122l286 122v196l-286 -121v123l286 121v444h-446v185h1100z" />
    <glyph glyph-name="uni20A9" unicode="&#x20a9;" horiz-adv-x="1886" 
d="M521 0l-321 1442h177l216 -1014q9 -47 14 -72q2 -19 5 -37t5 -36h5l8 44l8 44q2 14 5 28.5t6 28.5l214 1014h168l213 -1014q1 -9 3.5 -18t4.5 -18q4 -27 9 -53.5t9 -54.5h6q2 10 3 18.5t2 17.5q4 27 8.5 54t9.5 54l216 1014h177l-319 -1442h-188l-212 1013
q-15 84 -23 130h-6q-10 -63 -24 -130l-213 -1013h-186zM178 797v115h1526v-115h-1526zM178 511v116h1526v-116h-1526z" />
    <glyph glyph-name="yen" unicode="&#xa5;" horiz-adv-x="1316" 
d="M1016 1442h233l-460 -753h341v-115h-361v-206h361v-115h-361v-253h-218v253h-364v115h364v206h-364v115h344l-462 753h234l328 -565q-5 7 26 -45h7q2 6 5.5 10.5t5.5 9.5l13 24z" />
    <glyph glyph-name="uni20A9.tnum" horiz-adv-x="1315" 
d="M301 0l-177 1442h156l127 -1275h6l152 1275h189l150 -1273h6l128 1273h155l-175 -1442h-212l-145 1228h-5l-145 -1228h-210zM98 795v119h151v-119h-151zM99 511v118h175v-118h-175zM1067 795v119h150v-119h-150zM1042 511v118h176v-118h-176z" />
    <glyph glyph-name="uni2219" unicode="&#x2219;" 
d="M648 534q-52 0 -92.5 23t-63.5 63.5t-23 92.5q0 51 23 91.5t63.5 63.5t92.5 23q51 0 91 -23t63 -63.5t23 -91.5q0 -52 -23 -92.5t-63 -63.5t-91 -23z" />
    <glyph glyph-name="plus" unicode="+" 
d="M564 205v429h-438v167h438v428h167v-428h437v-167h-437v-429h-167z" />
    <glyph glyph-name="minus" unicode="&#x2212;" 
d="M126 634v167h1042v-167h-1042z" />
    <glyph glyph-name="multiply" unicode="&#xd7;" 
d="M997 252l-350 350l-350 -350l-118 118l350 352l-351 349l119 120l350 -350l350 350l120 -119l-351 -350l351 -350z" />
    <glyph glyph-name="divide" unicode="&#xf7;" 
d="M110 635v167h1074v-167h-1074zM647 1008q-39 0 -70.5 18t-49 49t-17.5 71q0 39 17.5 70t49 49t70.5 18t70.5 -18t49 -49t17.5 -70q0 -40 -17.5 -71t-49 -49t-70.5 -18zM647 155q-39 0 -70.5 17.5t-49 49t-17.5 70.5t17.5 70.5t49 49t70.5 17.5t70.5 -17.5t49 -49
t17.5 -70.5t-17.5 -70.5t-49 -49t-70.5 -17.5z" />
    <glyph glyph-name="equal" unicode="=" 
d="M126 874v168h1042v-168h-1042zM126 399v167h1042v-167h-1042z" />
    <glyph glyph-name="notequal" unicode="&#x2260;" 
d="M462 148l-129 64l499 1079l129 -62zM126 878v168h1042v-168h-1042zM126 403v167h1042v-167h-1042z" />
    <glyph glyph-name="greater" unicode="&#x3e;" 
d="M134 182v197l811 342l-811 342v197l1025 -441v-196z" />
    <glyph glyph-name="less" unicode="&#x3c;" 
d="M1159 182l-1025 441v196l1025 441v-197l-809 -342l809 -342v-197z" />
    <glyph glyph-name="greaterequal" unicode="&#x2265;" 
d="M127 345v193l809 295l-809 294v194l1040 -385v-205zM127 0v167h1040v-167h-1040z" />
    <glyph glyph-name="lessequal" unicode="&#x2264;" 
d="M1167 345l-1040 386v205l1040 385v-194l-810 -294l810 -295v-193zM1167 0h-1040v167h1040v-167z" />
    <glyph glyph-name="plusminus" unicode="&#xb1;" 
d="M564 344v428h-438v167h438v429h167v-429h437v-167h-437v-428h-167zM126 0v167h1042v-167h-1042z" />
    <glyph glyph-name="approxequal" unicode="&#x2248;" 
d="M1090 636q-1 -149 -74 -225t-200 -76q-51 0 -92.5 9.5t-72 23.5t-73.5 37q-54 29 -92.5 43.5t-88.5 14.5q-62 0 -96 -31.5t-35 -94.5h-140q0 149 73 225.5t199 76.5q53 0 96 -10.5t75 -24.5t74 -38q56 -29 91.5 -42.5t81.5 -13.5q63 0 97.5 31.5t35.5 94.5h141z
M1090 1094q-1 -149 -74 -225t-200 -76q-51 0 -92.5 9.5t-72 23.5t-73.5 37q-54 29 -92.5 43.5t-88.5 14.5q-62 0 -96 -31.5t-35 -94.5h-140q0 149 73 225.5t199 76.5q53 0 96 -10.5t75 -24.5t74 -38q56 -29 91.5 -42.5t81.5 -13.5q63 0 97.5 31.5t35.5 94.5h141z" />
    <glyph glyph-name="asciitilde" unicode="~" 
d="M1129 865q-1 -149 -74 -225t-200 -76q-51 0 -92.5 9.5t-72 23.5t-73.5 37q-54 29 -92.5 43.5t-88.5 14.5q-62 0 -96 -31.5t-35 -94.5h-140q0 149 73 225.5t199 76.5q53 0 96 -10.5t75 -24.5t74 -38q56 -29 91.5 -42.5t81.5 -13.5q63 0 97.5 31.5t35.5 94.5h141z" />
    <glyph glyph-name="logicalnot" unicode="&#xac;" 
d="M982 314v322h-835v168h1000v-490h-165z" />
    <glyph glyph-name="asciicircum" unicode="^" 
d="M170 717l372 725h211l370 -725h-199l-277 546l-277 -546h-200z" />
    <glyph glyph-name="infinity" unicode="&#x221e;" horiz-adv-x="1583" 
d="M481 428q-83 0 -150.5 38.5t-106 106t-38.5 150.5t38.5 150t106 105.5t150.5 38.5q79 0 154 -46t155 -146q80 102 154 147t154 45q85 0 153 -38t106.5 -105t38.5 -151t-38.5 -151.5t-106.5 -105.5t-153 -38q-54 0 -102.5 20.5t-97.5 63t-108 112.5q-81 -102 -156 -149
t-153 -47zM481 566q42 0 77 18t65.5 46.5t71.5 74.5l15 18q-15 16 -17 20q-41 46 -70.5 73.5t-64.5 45t-77 17.5t-78 -20.5t-56.5 -56t-20.5 -79.5t20.5 -80.5t56.5 -56.5t78 -20zM1098 566q44 0 80.5 20t57.5 56.5t21 80.5t-21 79.5t-57.5 56t-80.5 20.5q-54 0 -108.5 -37
t-118.5 -119q64 -84 118 -120.5t109 -36.5z" />
    <glyph glyph-name="emptyset" unicode="&#x2205;" horiz-adv-x="1374" 
d="M687 206q-89 0 -170 29.5t-147 83.5l-96 -97l-80 79l96 97q-54 66 -83.5 147.5t-29.5 170.5q0 139 69 256t185.5 186t255.5 69q88 0 169 -29t147 -83l98 98l79 -80l-97 -97q55 -67 84.5 -148.5t29.5 -171.5q0 -138 -68.5 -255.5t-186 -186t-255.5 -68.5zM879 990
q-39 32 -89 50t-103 18q-94 0 -172 -45.5t-123 -124t-45 -172.5q0 -54 17.5 -103t50.5 -89zM687 375q93 0 171.5 45.5t124 124t45.5 171.5q0 55 -18.5 104.5t-50.5 89.5l-466 -467q40 -32 89.5 -50t104.5 -18z" />
    <glyph glyph-name="integral" unicode="&#x222b;" horiz-adv-x="926" 
d="M246 -262q-25 0 -54.5 3t-59.5 9h-2v153q38 -8 74 -8q78 0 117 41t39 123v1075q0 94 34 166t106 113t181 41q26 0 55.5 -3t59.5 -9h2v-153q-38 8 -74 8q-79 0 -118 -41t-39 -123l1 -1075q0 -94 -34 -166t-106.5 -113t-181.5 -41z" />
    <glyph glyph-name="Delta" unicode="&#x2206;" horiz-adv-x="1548" 
d="M129 0l511 1442h267l512 -1442h-1290zM398 167h752l-322 920q-5 15 -9.5 29.5t-9.5 28.5q-22 77 -32 110h-7q-5 -19 -11 -39.5t-13 -41.5q-9 -30 -26 -86z" />
    <glyph glyph-name="product" unicode="&#x220f;" horiz-adv-x="1465" 
d="M235 -250v1692h995v-1692h-192v1525h-611v-1525h-192z" />
    <glyph glyph-name="summation" unicode="&#x2211;" horiz-adv-x="1319" 
d="M147 -250v157l514 689l-514 689v157h1027v-166h-795l508 -680l-507 -680h794v-166h-1027z" />
    <glyph glyph-name="radical" unicode="&#x221a;" horiz-adv-x="1457" 
d="M656 -51h11l468 1493h194l-525 -1692h-276l-255 622h-137v200h274z" />
    <glyph glyph-name="mu" unicode="&#xb5;" horiz-adv-x="1387" 
d="M235 -389v1479h208v-652q0 -136 63 -210t180 -74q88 0 152.5 40.5t98.5 110t34 157.5v628h208v-1090h-208v203h-4q-50 -106 -142 -166.5t-215 -60.5q-77 0 -138 29.5t-101 89.5l72 82v-566h-208z" />
    <glyph glyph-name="partialdiff" unicode="&#x2202;" horiz-adv-x="1320" 
d="M644 -23q-142 0 -254.5 63.5t-175 176t-62.5 252.5q0 133 56 239t157.5 166.5t232.5 60.5q139 0 229.5 -64t129.5 -156h10q-14 152 -95 277t-224.5 208t-339.5 110l43 158q246 -37 428 -156t280 -305t98 -419q0 -177 -63.5 -316t-180 -217t-269.5 -78zM646 140
q95 0 166.5 50t111 142.5t41.5 215.5q-46 109 -123 174.5t-192 65.5q-92 0 -160.5 -42t-105.5 -114t-37 -162q0 -93 37 -168t105 -118.5t157 -43.5z" />
    <glyph glyph-name="percent" unicode="%" horiz-adv-x="1957" 
d="M455 640q-100 0 -170.5 46.5t-107 134t-36.5 210.5v35q0 187 82 290t232 103q151 0 231.5 -102.5t80.5 -290.5v-35q0 -186 -80.5 -288.5t-231.5 -102.5zM456 775q76 0 112 63.5t36 181.5v58q0 119 -37 182.5t-112 63.5t-113 -64t-38 -182v-58q0 -117 38.5 -181t113.5 -64
zM448 0l902 1442h171l-902 -1442h-171zM1504 -13q-100 0 -170.5 46.5t-107 134t-36.5 210.5v35q0 187 82 290t232 103q151 0 231.5 -102.5t80.5 -290.5v-35q0 -186 -80.5 -288.5t-231.5 -102.5zM1505 122q76 0 112 63.5t36 181.5v58q0 119 -37 182.5t-112 63.5t-113 -64
t-38 -182v-58q0 -117 38.5 -181t113.5 -64z" />
    <glyph glyph-name="perthousand" unicode="&#x2030;" horiz-adv-x="2723" 
d="M455 640q-100 0 -170.5 46.5t-107 134t-36.5 210.5v35q0 187 82 290t232 103q151 0 231.5 -102.5t80.5 -290.5v-35q0 -186 -80.5 -288.5t-231.5 -102.5zM456 775q76 0 112 63.5t36 181.5v58q0 119 -37 182.5t-112 63.5t-113 -64t-38 -182v-58q0 -117 38.5 -181t113.5 -64
zM448 0l902 1442h171l-902 -1442h-171zM1504 -13q-100 0 -170.5 46.5t-107 134t-36.5 210.5v35q0 187 82 290t232 103q151 0 231.5 -102.5t80.5 -290.5v-35q0 -186 -80.5 -288.5t-231.5 -102.5zM1505 122q76 0 112 63.5t36 181.5v58q0 119 -37 182.5t-112 63.5t-113 -64
t-38 -182v-58q0 -117 38.5 -181t113.5 -64zM2270 -13q-100 0 -170.5 46.5t-107 134t-36.5 210.5v35q0 187 82 290t232 103q151 0 231.5 -102.5t80.5 -290.5v-35q0 -186 -80.5 -288.5t-231.5 -102.5zM2271 122q76 0 112 63.5t36 181.5v58q0 119 -37 182.5t-112 63.5t-113 -64
t-38 -182v-58q0 -117 38.5 -181t113.5 -64z" />
    <glyph glyph-name="arrowup" unicode="&#x2191;" horiz-adv-x="1416" 
d="M626 93v943h-9l-379 -378l-112 111l582 581l582 -582l-112 -111l-380 379h-9v-943h-163z" />
    <glyph glyph-name="uni2197" unicode="&#x2197;" horiz-adv-x="1324" 
d="M243 234l-116 116l694 693l-7 7h-535v157h821v-824l-157 1v537l-7 7z" />
    <glyph glyph-name="arrowright" unicode="&#x2192;" horiz-adv-x="1526" 
d="M816 139l-111 112l380 380v9h-944v164l944 -1v10l-379 379l112 111l580 -582z" />
    <glyph glyph-name="uni2198" unicode="&#x2198;" horiz-adv-x="1323" 
d="M276 235l1 157h537l7 7l-694 693l116 115l693 -693l7 7v535h157v-821h-824z" />
    <glyph glyph-name="arrowdown" unicode="&#x2193;" horiz-adv-x="1416" 
d="M708 93l-582 582l112 111l380 -380h9v944h164l-1 -944h10l379 379l111 -111z" />
    <glyph glyph-name="uni2199" unicode="&#x2199;" horiz-adv-x="1324" 
d="M224 235v824l157 -1v-537l7 -7l693 693l116 -115l-694 -693l7 -7h535v-157h-821z" />
    <glyph glyph-name="arrowleft" unicode="&#x2190;" horiz-adv-x="1526" 
d="M708 140l-580 581l582 582l110 -112l-379 -380v-9h943v-163h-943v-9l379 -379z" />
    <glyph glyph-name="uni2196" unicode="&#x2196;" horiz-adv-x="1323" 
d="M1080 234l-693 694l-6 -7v-536h-158v822h824v-157h-538l-6 -7l693 -693z" />
    <glyph glyph-name="arrowboth" unicode="&#x2194;" horiz-adv-x="1689" 
d="M628 222l-498 499l500 500l105 -106l-309 -308v-7l837 -1v8l-307 308l105 105l498 -499l-500 -500l-104 106l308 309v7l-837 1v-9l308 -308z" />
    <glyph glyph-name="block" unicode="&#x2588;" horiz-adv-x="1684" 
d="M125 1434h1434v-1434h-1434v1434z" />
    <glyph glyph-name="uni258A" unicode="&#x258a;" horiz-adv-x="1172" 
d="M125 0v1434h922v-1434h-922z" />
    <glyph glyph-name="H18533" unicode="&#x25cf;" horiz-adv-x="1704" 
d="M852 -24q-202 0 -373 100.5t-271.5 272t-100.5 374.5q0 201 100.5 372t271.5 271t373 100q201 0 372.5 -100.5t272 -271t100.5 -371.5q0 -203 -100.5 -374.5t-272 -272t-372.5 -100.5z" />
    <glyph glyph-name="circle" unicode="&#x25cb;" horiz-adv-x="1704" 
d="M852 -24q-205 0 -375.5 99.5t-270 270.5t-99.5 376q0 204 99.5 375t270 270t375.5 99t375.5 -99t270 -270t99.5 -375q0 -205 -99.5 -376t-270 -270.5t-375.5 -99.5zM852 85q174 0 319.5 85t230.5 231.5t85 320.5t-85 319.5t-230.5 230.5t-319.5 85t-319.5 -85
t-230.5 -230.5t-85 -319.5t85 -320.5t230.5 -231.5t319.5 -85z" />
    <glyph glyph-name="uni25D0" unicode="&#x25d0;" horiz-adv-x="1688" 
d="M844 -24q-204 0 -375 99.5t-270 270.5t-99 376q0 204 99 375t270 270t375 99t375 -99t270 -270t99 -375q0 -205 -99 -376t-270 -270.5t-375 -99.5zM844 85q174 0 319.5 85t230 231.5t84.5 320.5t-84.5 319.5t-230 230.5t-319.5 85v-1272z" />
    <glyph glyph-name="lozenge" unicode="&#x25ca;" horiz-adv-x="1305" 
d="M132 719l424 715h194l423 -715l-423 -717h-194zM335 719l318 -538l316 538l-316 536z" />
    <glyph glyph-name="uni25A4" unicode="&#x25a4;" horiz-adv-x="2616" 
d="M857 -16q-214 0 -385 95t-268 263t-97 379t97 379t268 263t385 95h903q214 0 385 -95t267.5 -263t96.5 -379t-96.5 -379t-267.5 -263t-385 -95h-903zM606 371h505v109h-324l172 155q46 40 75.5 71t50 73t20.5 92q0 67 -33.5 115t-90.5 73t-127 25q-83 0 -140.5 -32.5
t-86.5 -86.5t-29 -117h128q0 38 14.5 68.5t43.5 48t71 17.5q57 0 90 -30.5t33 -81.5q0 -31 -12 -57t-30 -45.5t-49 -47.5l-7 -6l-274 -246v-97zM1334 360q22 0 41 11.5t30 31.5t11 43q0 22 -11 41t-30 30.5t-41 11.5q-24 0 -43.5 -11.5t-31 -30.5t-11.5 -41q0 -35 25 -60.5
t61 -25.5zM1778 360q131 0 201 90t70 254v33q0 166 -70.5 256.5t-201.5 90.5t-202 -91t-71 -256v-33q0 -164 71.5 -254t202.5 -90zM1778 468q-71 0 -107.5 58.5t-36.5 168.5v51q0 111 36 170t108 59q70 0 106 -58.5t36 -170.5v-51q0 -110 -35 -168.5t-107 -58.5z" />
    <glyph glyph-name="smileface" unicode="&#x263a;" horiz-adv-x="1704" 
d="M1284 721q-1 -121 -58 -219.5t-155.5 -154.5t-217.5 -56q-120 0 -219 57t-156.5 155.5t-58.5 217.5h99q1 -94 45 -170t120.5 -119.5t169.5 -43.5q94 0 170 43.5t119.5 120t44.5 169.5h97zM636 823q-46 0 -78 32.5t-32 78.5q0 31 15 56t40 39.5t55 14.5q31 0 56 -14.5
t39.5 -40t14.5 -55.5q0 -46 -32 -78.5t-78 -32.5zM1068 823q-46 0 -78 32.5t-32 78.5q0 31 15 56t40 39.5t55 14.5q47 0 78.5 -32t31.5 -78t-32 -78.5t-78 -32.5zM852 -24q-205 0 -375.5 99.5t-270 270.5t-99.5 376q0 204 99.5 375t270 270t375.5 99t375.5 -99t270 -270
t99.5 -375q0 -205 -99.5 -376t-270 -270.5t-375.5 -99.5zM852 85q174 0 319.5 85t230.5 231.5t85 320.5t-85 319.5t-230.5 230.5t-319.5 85t-319.5 -85t-230.5 -230.5t-85 -319.5t85 -320.5t230.5 -231.5t319.5 -85z" />
    <glyph glyph-name="uni2661" unicode="&#x2661;" horiz-adv-x="1704" 
d="M1604 1059q0 -87 -33.5 -173.5t-97.5 -162.5l-617 -733l-639 760q-117 138 -117 299q0 111 56 205t151.5 149t208.5 55q82 0 158 -31t137 -92l45 -45l47 45q61 60 137 91.5t156 31.5q110 0 204 -53t149 -145t55 -201zM1493 1059q0 78 -40 144t-108.5 105t-148.5 39
q-59 0 -114.5 -23.5t-100.5 -68.5l-126 -120l-123 121q-44 45 -98.5 68t-117.5 23q-82 0 -152.5 -40.5t-111.5 -109t-41 -148.5q0 -61 22 -116.5t69 -110.5l554 -660l532 632q52 62 78.5 129t26.5 136z" />
    <glyph glyph-name="heart" unicode="&#x2665;" horiz-adv-x="1704" 
d="M1604 1059q0 -87 -33.5 -173.5t-97.5 -162.5l-617 -733l-639 760q-117 138 -117 299q0 111 56 205t151.5 149t208.5 55q82 0 158 -31t137 -92l45 -45l47 45q61 60 137 91.5t156 31.5q110 0 204 -53t149 -145t55 -201z" />
    <glyph glyph-name="uni2713" unicode="&#x2713;" horiz-adv-x="1413" 
d="M414 0l-286 509l132 75l233 -418l648 1277l145 -70l-707 -1373h-165z" />
    <glyph glyph-name="uni2733" unicode="&#x2733;" horiz-adv-x="1718" 
d="M819 -31v550l-211 -508l-74 30l211 510l-389 -389l-56 56l389 389l-509 -211l-31 74l508 211h-550v80h551l-509 211l30 74l510 -211l-389 390l56 56l388 -389l-210 508l74 32l211 -509v550h80v-551l211 510l74 -31l-211 -510l390 390l56 -56l-389 -389l508 210l31 -74
l-509 -211h551v-80h-550l508 -211l-30 -74l-511 212l391 -390l-56 -56l-389 388l210 -508l-74 -31l-211 509v-551h-80z" />
    <glyph glyph-name="at" unicode="@" horiz-adv-x="1789" 
d="M905 -247q-208 0 -378 94.5t-268 264.5t-98 386q0 210 99 380.5t270 267.5t379 97q212 0 377 -88t256 -242t91 -348q0 -122 -41.5 -222t-117 -158.5t-173.5 -58.5q-53 0 -98 17t-75 49.5t-39 76.5q-43 -70 -108 -107.5t-150 -37.5q-87 0 -151 39.5t-97.5 111t-33.5 164.5
q0 110 46 206t127 153t181 57q87 0 146 -42t83 -111l20 134h115l-73 -475q-8 -56 22.5 -90t90.5 -34q66 0 111.5 45.5t68 120t22.5 161.5q0 162 -74.5 289.5t-211.5 199.5t-317 72q-176 0 -318 -82t-223 -225t-81 -320t80.5 -320t221.5 -224.5t319 -81.5q98 0 179.5 26
t144.5 66l59 -107l-3 -2q-75 -45 -170.5 -73.5t-209.5 -28.5zM858 235q74 0 128.5 42t83.5 110t29 143q0 92 -45.5 151.5t-132.5 59.5q-73 0 -129.5 -41.5t-88 -108.5t-31.5 -143q0 -62 21.5 -110t63.5 -75.5t101 -27.5z" />
    <glyph glyph-name="ampersand" unicode="&#x26;" horiz-adv-x="1579" 
d="M638 -23q-145 0 -256 49.5t-173.5 141t-62.5 215.5q0 105 43.5 184.5t114.5 135.5t171 108q-4 5 -9.5 10.5t-10.5 11.5q-59 67 -98.5 144.5t-39.5 165.5q0 94 47 167.5t134 114t200 40.5q112 0 195 -39t129 -111.5t46 -168.5q0 -87 -37 -153.5t-105 -118.5t-170 -104
l329 -359q39 62 67 133t42 144h179q-20 -109 -63 -214.5t-107 -195.5l250 -278h-239l-130 143q-92 -82 -204 -124t-242 -42zM655 158q90 0 169 29.5t143 84.5l-380 415q-73 -37 -123.5 -78t-80 -93t-29.5 -118q0 -70 36.5 -124.5t104.5 -85t160 -30.5zM644 896
q87 45 137.5 78.5t78.5 74.5t28 96q0 51 -24.5 88.5t-67.5 57t-96 19.5q-58 0 -102.5 -21t-69.5 -58t-25 -86q0 -42 17 -81.5t42.5 -73.5t62.5 -74z" />
    <glyph glyph-name="paragraph" unicode="&#xb6;" horiz-adv-x="1338" 
d="M608 539q-136 2 -241.5 63.5t-163.5 163.5t-58 225q0 124 58 227t163.5 163.5t241.5 60.5h495v-1692h-132v1580h-231v-1580h-132v789z" />
    <glyph glyph-name="section" unicode="&#xa7;" horiz-adv-x="1346" 
d="M679 -273q-157 0 -270 49.5t-178 139.5t-80 213h203q16 -120 100.5 -189t226.5 -69q86 0 152 26t102.5 73.5t36.5 111.5q0 67 -37.5 106t-105 62t-196.5 50q-140 31 -230.5 66t-145.5 95.5t-55 155.5q0 80 41 142.5t120 109.5q-77 39 -119 96.5t-42 147.5q0 105 58 184
t163 122t244 43q144 0 244 -46.5t156 -128t71 -188.5h-198q-9 65 -44 114t-94 76.5t-138 27.5q-75 0 -134.5 -24.5t-93 -67.5t-33.5 -97q0 -61 42.5 -98.5t106.5 -58t178 -44.5q144 -31 237.5 -66t151.5 -97t58 -159q0 -77 -38.5 -141t-109.5 -114q73 -39 110.5 -96.5
t37.5 -146.5q0 -114 -61.5 -200t-174.5 -133t-262 -47zM889 399q49 34 75 77.5t26 94.5q0 61 -37.5 99t-104 60.5t-186.5 48.5q-113 26 -159 40q-57 -33 -87 -75.5t-30 -94.5q0 -60 37 -97t98 -58t166 -44q90 -19 130.5 -29t71.5 -22z" />
    <glyph glyph-name="copyright" unicode="&#xa9;" horiz-adv-x="1702" 
d="M851 -24q-204 0 -375 99.5t-270 270.5t-99 376q0 204 99 375t270 270t375 99t375 -99t270 -270t99 -375q0 -205 -99 -376t-270 -270.5t-375 -99.5zM851 85q174 0 319.5 85t230 231.5t84.5 320.5t-84.5 319.5t-230 230.5t-319.5 85t-319.5 -85t-230 -230.5t-84.5 -319.5
t84.5 -320.5t230 -231.5t319.5 -85zM871 340q-105 0 -182 48t-118.5 134t-41.5 199q0 112 41 198t117 133.5t180 47.5q84 0 150 -32.5t107.5 -92.5t53.5 -140h-131q-16 72 -61.5 112.5t-116.5 40.5q-64 0 -110.5 -34.5t-70.5 -95t-24 -137.5q0 -81 24 -141.5t70.5 -93.5
t111.5 -33q71 0 118 42t60 115h132q-10 -80 -50.5 -141.5t-107 -95t-151.5 -33.5z" />
    <glyph glyph-name="registered" unicode="&#xae;" horiz-adv-x="1702" 
d="M851 -24q-204 0 -375 99.5t-270 270.5t-99 376q0 204 99 375t270 270t375 99t375 -99t270 -270t99 -375q0 -205 -99 -376t-270 -270.5t-375 -99.5zM851 85q174 0 319.5 85t230 231.5t84.5 320.5t-84.5 319.5t-230 230.5t-319.5 85t-319.5 -85t-230 -230.5t-84.5 -319.5
t84.5 -320.5t230 -231.5t319.5 -85zM605 351v735h314q110 0 171 -59.5t61 -161.5q0 -85 -45 -141t-127 -68l173 -305h-149l-161 293h-103v-293h-134zM891 745q58 0 94 28.5t36 89.5q0 62 -35.5 91t-94.5 29h-152v-238h152z" />
    <glyph glyph-name="trademark" unicode="&#x2122;" horiz-adv-x="1822" 
d="M848 748v694h125l243 -572l243 572h128v-694h-105v500l-212 -500h-108l-209 490v-490h-105zM373 748v594h-232v100h570v-100h-233v-594h-105z" />
    <glyph glyph-name="degree" unicode="&#xb0;" horiz-adv-x="1087" 
d="M544 718q-100 0 -184 48.5t-133.5 133t-49.5 186.5t49.5 186.5t133.5 133.5t184 49t184 -49t133.5 -133.5t49.5 -186.5t-49.5 -186.5t-133.5 -133t-184 -48.5zM544 842q66 0 122.5 31.5t89 87.5t32.5 125q0 68 -32.5 124.5t-89 89.5t-122.5 33t-122.5 -33t-89.5 -89.5
t-33 -124.5q0 -69 33 -125t89.5 -87.5t122.5 -31.5z" />
    <glyph glyph-name="bar" unicode="|" horiz-adv-x="629" 
d="M235 -290v1810h159v-1810h-159z" />
    <glyph glyph-name="brokenbar" unicode="&#xa6;" horiz-adv-x="629" 
d="M235 -290v769h159v-769h-159zM235 759v761h159v-761h-159z" />
    <glyph glyph-name="dagger" unicode="&#x2020;" horiz-adv-x="969" 
d="M405 379v643h-262v145h262v275h159v-275h261v-145h-261v-643h-159z" />
    <glyph glyph-name="uni2113" unicode="&#x2113;" horiz-adv-x="972" 
d="M621 -24q-179 0 -269 100.5t-90 296.5v805q0 87 35.5 153t99 101.5t143.5 35.5q87 0 147.5 -37t91 -104t30.5 -157q0 -145 -76.5 -291.5t-228 -257t-366.5 -148.5v167q158 32 274 114.5t176.5 191t60.5 220.5q0 64 -26 103t-84 39q-53 0 -80.5 -35.5t-27.5 -90.5v-807
q0 -68 16.5 -120t63 -86t133.5 -34q40 0 77.5 8t67.5 19v-156q-33 -14 -77 -22t-91 -8z" />
    <glyph glyph-name="daggerdbl" unicode="&#x2021;" horiz-adv-x="1023" 
d="M433 380v284h-262v143h262v224h-262v143h262v269h158v-269h261v-143h-261v-224h261v-143h-261v-284h-158z" />
    <glyph glyph-name="dieresis" unicode="&#xa8;" horiz-adv-x="1154" 
d="M496 1255q-31 0 -55.5 14.5t-39.5 39.5t-15 55q0 31 15 55.5t39.5 39t55.5 14.5q30 0 55 -14.5t39.5 -39t14.5 -55.5q0 -30 -14.5 -55t-39.5 -39.5t-55 -14.5zM854 1255q-30 0 -55 14.5t-39.5 39.5t-14.5 55q0 31 14.5 55.5t39.5 39t55 14.5q31 0 55.5 -14.5t39 -39
t14.5 -55.5q0 -30 -14.5 -55t-39 -39.5t-55.5 -14.5z" />
    <glyph glyph-name="dotaccent" unicode="&#x2d9;" 
d="M647 1244q-36 0 -65.5 17t-46.5 46t-17 66t17 66t46.5 46t65.5 17q37 0 66.5 -17t46 -46t16.5 -66t-16.5 -66t-46 -46t-66.5 -17z" />
    <glyph glyph-name="grave" unicode="`" horiz-adv-x="1238" 
d="M735 1229h-158l-199 295h216z" />
    <glyph glyph-name="acute" unicode="&#xb4;" horiz-adv-x="1238" 
d="M396 1229l141 295h216l-199 -295h-158z" />
    <glyph glyph-name="hungarumlaut" unicode="&#x2dd;" horiz-adv-x="1238" 
d="M269 1229l141 295h199l-199 -295h-141zM575 1229l141 295h199l-199 -295h-141z" />
    <glyph glyph-name="circumflex" unicode="&#x2c6;" horiz-adv-x="1238" 
d="M701 1490l225 -261h-178l-148 163l-151 -163h-177l225 261h204z" />
    <glyph glyph-name="caron" unicode="&#x2c7;" horiz-adv-x="1238" 
d="M701 1230h-204l-225 260h177l151 -162l148 162h178z" />
    <glyph glyph-name="breve" unicode="&#x2d8;" horiz-adv-x="1238" 
d="M605 1227q-86 0 -151 34t-100.5 94.5t-36.5 139.5h139q1 -65 41 -105t108 -40q70 0 110.5 40t41.5 105h139q-2 -79 -38 -139.5t-101 -94.5t-152 -34z" />
    <glyph glyph-name="ring" unicode="&#x2da;" horiz-adv-x="1238" 
d="M598 1227q-53 0 -95.5 23.5t-67 65.5t-24.5 95t24.5 95.5t67 66t95.5 23.5t95.5 -23.5t67 -66t24.5 -95.5t-24.5 -95t-67 -65.5t-95.5 -23.5zM598 1315q42 0 69 27t27 69t-27 69t-69 27t-69 -27t-27 -69t27 -69t69 -27z" />
    <glyph glyph-name="tilde" unicode="&#x2dc;" horiz-adv-x="1238" 
d="M925 1484q-1 -122 -52.5 -184.5t-140.5 -62.5q-49 0 -81.5 17.5t-72.5 52.5q-30 27 -52.5 40.5t-51.5 13.5q-42 0 -65 -30.5t-24 -92.5h-107q0 122 52.5 185t144.5 63q50 0 83.5 -18.5t74.5 -53.5q30 -27 51 -40t48 -13q41 0 63 30.5t23 92.5h107z" />
    <glyph glyph-name="macron" unicode="&#xaf;" horiz-adv-x="1238" 
d="M348 1298v132h627v-132h-627z" />
    <glyph glyph-name="cedilla" unicode="&#xb8;" horiz-adv-x="1238" 
d="M567 -396q-26 0 -59 4t-64 12v96q28 -8 56.5 -11.5t51.5 -3.5q45 0 66.5 15.5t21.5 45.5t-21 44.5t-67 14.5q-13 0 -27 -0.5t-34 -0.5v62l60 147l102 -19l-42 -105q81 -3 121 -41.5t40 -99.5q0 -72 -50.5 -116t-154.5 -44z" />
    <glyph glyph-name="ogonek" unicode="&#x2db;" horiz-adv-x="1238" 
d="M414 -230q0 82 56 146t143 108l136 -24q-85 -42 -128.5 -93t-43.5 -108q0 -54 39 -81.5t108 -24.5v-106q-84 -11 -155 7.5t-113 64t-42 111.5z" />
    <glyph glyph-name="uniE002" unicode="&#xe002;" horiz-adv-x="1722" 
d="M335 532v379h266v-61h-199v-102h176v-62h-176v-154h-67zM589 532l143 379h78l143 -379h-74l-32 84h-156l-31 -84h-71zM714 678h112l-57 147zM1000 532v379h90l109 -284l111 284h90v-379h-68v267l-104 -267h-56l-104 267v-267h-68zM861 -33q204 0 377 101.5t275 275.5
t102 379q0 203 -102 376t-275 274.5t-377 101.5q-205 0 -378 -101.5t-274.5 -274t-101.5 -376.5q0 -206 101.5 -379.5t274.5 -275t378 -101.5z" />
    </font>
</defs>
</svg>
